<?xml version="1.0" encoding="UTF-8" standalone="no"?>
<!DOCTYPE svg PUBLIC "-//W3C//DTD SVG 1.1//EN"
 "http://www.w3.org/Graphics/SVG/1.1/DTD/svg11.dtd">
<!-- Generated by graphviz version 2.40.1 (20161225.0304)
 -->
<!-- Title: optimizer Pages: 1 -->
<svg width="332pt" height="116pt"
 viewBox="0.00 0.00 331.50 116.00" xmlns="http://www.w3.org/2000/svg" xmlns:xlink="http://www.w3.org/1999/xlink">
<g id="graph0" class="graph" transform="scale(1 1) rotate(0) translate(4 112)">
<title>optimizer</title>
<polygon fill="#ffffff" stroke="transparent" points="-4,4 -4,-112 327.5,-112 327.5,4 -4,4"/>
<!-- libFoo.a -->
<g id="node1" class="node">
<title>libFoo.a</title>
<polygon fill="none" stroke="#0000ff" stroke-width="2" points="141,-108 138,-112 117,-112 114,-108 79,-108 79,-72 141,-72 141,-108"/>
<text text-anchor="middle" x="110" y="-86.3" font-family="Times,serif" font-size="14.00" fill="#000000">libFoo.a</text>
</g>
<!-- Foo.o -->
<g id="node2" class="node">
<title>Foo.o</title>
<polygon fill="none" stroke="#000000" points="48,-36 0,-36 0,0 54,0 54,-30 48,-36"/>
<polyline fill="none" stroke="#000000" points="48,-36 48,-30 "/>
<polyline fill="none" stroke="#000000" points="54,-30 48,-30 "/>
<text text-anchor="middle" x="27" y="-14.3" font-family="Times,serif" font-size="14.00" fill="#000000">Foo.o</text>
</g>
<!-- libFoo.a&#45;&gt;Foo.o -->
<g id="edge1" class="edge">
<title>libFoo.a&#45;&gt;Foo.o</title>
<path fill="none" stroke="#000000" d="M89.0556,-71.8314C78.9309,-63.0485 66.6223,-52.3712 55.6452,-42.8489"/>
<polygon fill="#000000" stroke="#000000" points="57.7851,-40.0718 47.9377,-36.1628 53.1981,-45.3595 57.7851,-40.0718"/>
</g>
<!-- Foo+Bar.o -->
<g id="node3" class="node">
<title>Foo+Bar.o</title>
<polygon fill="none" stroke="#000000" points="142,-36 72,-36 72,0 148,0 148,-30 142,-36"/>
<polyline fill="none" stroke="#000000" points="142,-36 142,-30 "/>
<polyline fill="none" stroke="#000000" points="148,-30 142,-30 "/>
<text text-anchor="middle" x="110" y="-14.3" font-family="Times,serif" font-size="14.00" fill="#000000">Foo+Bar.o</text>
</g>
<!-- libFoo.a&#45;&gt;Foo+Bar.o -->
<g id="edge2" class="edge">
<title>libFoo.a&#45;&gt;Foo+Bar.o</title>
<path fill="none" stroke="#000000" d="M110,-71.8314C110,-64.131 110,-54.9743 110,-46.4166"/>
<polygon fill="#000000" stroke="#000000" points="113.5001,-46.4132 110,-36.4133 106.5001,-46.4133 113.5001,-46.4132"/>
</g>
<!-- MulleObjCLoader+Foo.o -->
<g id="node4" class="node">
<title>MulleObjCLoader+Foo.o</title>
<polygon fill="none" stroke="#000000" points="317.5,-36 166.5,-36 166.5,0 323.5,0 323.5,-30 317.5,-36"/>
<polyline fill="none" stroke="#000000" points="317.5,-36 317.5,-30 "/>
<polyline fill="none" stroke="#000000" points="323.5,-30 317.5,-30 "/>
<text text-anchor="middle" x="245" y="-14.3" font-family="Times,serif" font-size="14.00" fill="#000000">MulleObjCLoader+Foo.o</text>
</g>
<!-- libFoo.a&#45;&gt;MulleObjCLoader+Foo.o -->
<g id="edge3" class="edge">
<title>libFoo.a&#45;&gt;MulleObjCLoader+Foo.o</title>
<path fill="none" stroke="#000000" d="M141.311,-73.3008C159.3319,-63.6896 182.2387,-51.4727 201.9361,-40.9674"/>
<polygon fill="#000000" stroke="#000000" points="203.8445,-43.9163 211.021,-36.1222 200.5503,-37.7398 203.8445,-43.9163"/>
</g>
</g>
</svg>
