<svg xmlns="http://www.w3.org/2000/svg" xmlns:xlink="http://www.w3.org/1999/xlink" width="332pt" height="116pt" viewBox="0 0 331.5 116"><g id="graph0" class="graph" transform="scale(1 1) rotate(0) translate(4 112)"><title>optimizer</title><polygon fill="#fff" stroke="transparent" points="-4 4 -4 -112 327.5 -112 327.5 4 -4 4"/><g id="node1" class="node"><title>libFoo.a</title><polygon fill="none" stroke="#00f" stroke-width="2" points="141 -108 138 -112 117 -112 114 -108 79 -108 79 -72 141 -72 141 -108"/><text x="110" y="-86.3" fill="#000" font-family="Times,serif" font-size="14" text-anchor="middle">libFoo.a</text></g><g id="node2" class="node"><title>Foo.o</title><polygon fill="none" stroke="#000" points="48 -36 0 -36 0 0 54 0 54 -30 48 -36"/><polyline fill="none" stroke="#000" points="48 -36 48 -30"/><polyline fill="none" stroke="#000" points="54 -30 48 -30"/><text x="27" y="-14.3" fill="#000" font-family="Times,serif" font-size="14" text-anchor="middle">Foo.o</text></g><g id="edge1" class="edge"><title>libFoo.a-&gt;Foo.o</title><path fill="none" stroke="#000" d="M89.0556,-71.8314C78.9309,-63.0485 66.6223,-52.3712 55.6452,-42.8489"/><polygon fill="#000" stroke="#000" points="57.785 -40.072 47.938 -36.163 53.198 -45.359 57.785 -40.072"/></g><g id="node3" class="node"><title>Foo+Bar.o</title><polygon fill="none" stroke="#000" points="142 -36 72 -36 72 0 148 0 148 -30 142 -36"/><polyline fill="none" stroke="#000" points="142 -36 142 -30"/><polyline fill="none" stroke="#000" points="148 -30 142 -30"/><text x="110" y="-14.3" fill="#000" font-family="Times,serif" font-size="14" text-anchor="middle">Foo+Bar.o</text></g><g id="edge2" class="edge"><title>libFoo.a-&gt;Foo+Bar.o</title><path fill="none" stroke="#000" d="M110,-71.8314C110,-64.131 110,-54.9743 110,-46.4166"/><polygon fill="#000" stroke="#000" points="113.5 -46.413 110 -36.413 106.5 -46.413 113.5 -46.413"/></g><g id="node4" class="node"><title>MulleObjCLoader+Foo.o</title><polygon fill="none" stroke="#000" points="317.5 -36 166.5 -36 166.5 0 323.5 0 323.5 -30 317.5 -36"/><polyline fill="none" stroke="#000" points="317.5 -36 317.5 -30"/><polyline fill="none" stroke="#000" points="323.5 -30 317.5 -30"/><text x="245" y="-14.3" fill="#000" font-family="Times,serif" font-size="14" text-anchor="middle">MulleObjCLoader+Foo.o</text></g><g id="edge3" class="edge"><title>libFoo.a-&gt;MulleObjCLoader+Foo.o</title><path fill="none" stroke="#000" d="M141.311,-73.3008C159.3319,-63.6896 182.2387,-51.4727 201.9361,-40.9674"/><polygon fill="#000" stroke="#000" points="203.845 -43.916 211.021 -36.122 200.55 -37.74 203.845 -43.916"/></g></g></svg>