<?xml version="1.0" encoding="UTF-8" standalone="no"?>
<!DOCTYPE svg PUBLIC "-//W3C//DTD SVG 1.1//EN"
 "http://www.w3.org/Graphics/SVG/1.1/DTD/svg11.dtd">
<!-- Generated by graphviz version 2.34.0 (20131231.1455)
 -->
<!-- Title: optimizer Pages: 1 -->
<svg width="333pt" height="116pt"
 viewBox="0.00 0.00 333.00 116.00" xmlns="http://www.w3.org/2000/svg" xmlns:xlink="http://www.w3.org/1999/xlink">
<g id="graph0" class="graph" transform="scale(1 1) rotate(0) translate(4 112)">
<title>optimizer</title>
<polygon fill="white" stroke="white" points="-4,4 -4,-112 329,-112 329,4 -4,4"/>
<!-- libFoo.a -->
<g id="node1" class="node"><title>libFoo.a</title>
<polygon fill="none" stroke="blue" stroke-width="2" points="141.21,-108 138.21,-112 117.21,-112 114.21,-108 78.7902,-108 78.7902,-72 141.21,-72 141.21,-108"/>
<text text-anchor="middle" x="110" y="-84.4" font-family="Times,serif" font-size="14.00">libFoo.a</text>
</g>
<!-- Foo.o -->
<g id="node2" class="node"><title>Foo.o</title>
<polygon fill="none" stroke="black" points="48,-36 0,-36 0,-0 54,-0 54,-30 48,-36"/>
<polyline fill="none" stroke="black" points="48,-36 48,-30 "/>
<polyline fill="none" stroke="black" points="54,-30 48,-30 "/>
<text text-anchor="middle" x="27" y="-12.4" font-family="Times,serif" font-size="14.00">Foo.o</text>
</g>
<!-- libFoo.a&#45;&gt;Foo.o -->
<g id="edge1" class="edge"><title>libFoo.a&#45;&gt;Foo.o</title>
<path fill="none" stroke="black" d="M89.4831,-71.6966C79.1305,-62.9655 66.4137,-52.2405 55.161,-42.7503"/>
<polygon fill="black" stroke="black" points="57.1817,-39.8759 47.2809,-36.1043 52.6687,-45.2269 57.1817,-39.8759"/>
</g>
<!-- Foo+Bar.o -->
<g id="node3" class="node"><title>Foo+Bar.o</title>
<polygon fill="none" stroke="black" points="141.225,-36 72.7747,-36 72.7747,-0 147.225,-0 147.225,-30 141.225,-36"/>
<polyline fill="none" stroke="black" points="141.225,-36 141.225,-30 "/>
<polyline fill="none" stroke="black" points="147.225,-30 141.225,-30 "/>
<text text-anchor="middle" x="110" y="-12.4" font-family="Times,serif" font-size="14.00">Foo+Bar.o</text>
</g>
<!-- libFoo.a&#45;&gt;Foo+Bar.o -->
<g id="edge2" class="edge"><title>libFoo.a&#45;&gt;Foo+Bar.o</title>
<path fill="none" stroke="black" d="M110,-71.6966C110,-63.9827 110,-54.7125 110,-46.1124"/>
<polygon fill="black" stroke="black" points="113.5,-46.1043 110,-36.1043 106.5,-46.1044 113.5,-46.1043"/>
</g>
<!-- MulleObjCLoader+Foo.o -->
<g id="node4" class="node"><title>MulleObjCLoader+Foo.o</title>
<polygon fill="none" stroke="black" points="319.203,-36 166.797,-36 166.797,-0 325.203,-0 325.203,-30 319.203,-36"/>
<polyline fill="none" stroke="black" points="319.203,-36 319.203,-30 "/>
<polyline fill="none" stroke="black" points="325.203,-30 319.203,-30 "/>
<text text-anchor="middle" x="246" y="-12.4" font-family="Times,serif" font-size="14.00">MulleObjCLoader+Foo.o</text>
</g>
<!-- libFoo.a&#45;&gt;MulleObjCLoader+Foo.o -->
<g id="edge3" class="edge"><title>libFoo.a&#45;&gt;MulleObjCLoader+Foo.o</title>
<path fill="none" stroke="black" d="M141.201,-72.9406C159.699,-63.4197 183.395,-51.223 203.575,-40.8366"/>
<polygon fill="black" stroke="black" points="205.278,-43.8964 212.567,-36.208 202.074,-37.6725 205.278,-43.8964"/>
</g>
</g>
</svg>
