<?xml version="1.0" encoding="UTF-8" standalone="no"?>
<!DOCTYPE svg PUBLIC "-//W3C//DTD SVG 1.1//EN"
 "http://www.w3.org/Graphics/SVG/1.1/DTD/svg11.dtd">
<!-- Generated by graphviz version 2.34.0 (20131231.1455)
 -->
<!-- Title: optimizer Pages: 1 -->
<svg width="768pt" height="188pt"
 viewBox="0.00 0.00 768.00 188.00" xmlns="http://www.w3.org/2000/svg" xmlns:xlink="http://www.w3.org/1999/xlink">
<g id="graph0" class="graph" transform="scale(1 1) rotate(0) translate(4 184)">
<title>optimizer</title>
<polygon fill="white" stroke="white" points="-4,4 -4,-184 764,-184 764,4 -4,4"/>
<!-- src -->
<g id="node1" class="node"><title>src</title>
<polygon fill="none" stroke="black" points="209,-180 206,-184 185,-184 182,-180 155,-180 155,-144 209,-144 209,-180"/>
<text text-anchor="middle" x="182" y="-156.4" font-family="Times,serif" font-size="14.00">src</text>
</g>
<!-- Foo.m -->
<g id="node2" class="node"><title>Foo.m</title>
<polygon fill="none" stroke="purple" stroke-width="2" points="48,-108 0,-108 0,-72 54,-72 54,-102 48,-108"/>
<polyline fill="none" stroke="purple" stroke-width="2" points="48,-108 48,-102 "/>
<polyline fill="none" stroke="purple" stroke-width="2" points="54,-102 48,-102 "/>
<text text-anchor="middle" x="27" y="-84.4" font-family="Times,serif" font-size="14.00">Foo.m</text>
</g>
<!-- src&#45;&gt;Foo.m -->
<g id="edge1" class="edge"><title>src&#45;&gt;Foo.m</title>
<path fill="none" stroke="black" d="M154.984,-149.172C132.703,-139.372 100.059,-124.912 63.4779,-108.177"/>
<polygon fill="black" stroke="black" points="64.6455,-104.862 54.0968,-103.874 61.7274,-111.224 64.6455,-104.862"/>
</g>
<!-- Foo+Bar.m -->
<g id="node3" class="node"><title>Foo+Bar.m</title>
<polygon fill="none" stroke="purple" stroke-width="2" points="145.143,-108 72.8566,-108 72.8566,-72 151.143,-72 151.143,-102 145.143,-108"/>
<polyline fill="none" stroke="purple" stroke-width="2" points="145.143,-108 145.143,-102 "/>
<polyline fill="none" stroke="purple" stroke-width="2" points="151.143,-102 145.143,-102 "/>
<text text-anchor="middle" x="112" y="-84.4" font-family="Times,serif" font-size="14.00">Foo+Bar.m</text>
</g>
<!-- src&#45;&gt;Foo+Bar.m -->
<g id="edge2" class="edge"><title>src&#45;&gt;Foo+Bar.m</title>
<path fill="none" stroke="black" d="M164.697,-143.697C156.135,-135.135 145.656,-124.656 136.304,-115.304"/>
<polygon fill="black" stroke="black" points="138.65,-112.701 129.104,-108.104 133.701,-117.65 138.65,-112.701"/>
</g>
<!-- MulleObjCLoader+Foo.m -->
<g id="node4" class="node"><title>MulleObjCLoader+Foo.m</title>
<polygon fill="none" stroke="purple" stroke-width="2" points="327.619,-108 170.381,-108 170.381,-72 333.619,-72 333.619,-102 327.619,-108"/>
<polyline fill="none" stroke="purple" stroke-width="2" points="327.619,-108 327.619,-102 "/>
<polyline fill="none" stroke="purple" stroke-width="2" points="333.619,-102 327.619,-102 "/>
<text text-anchor="middle" x="252" y="-84.4" font-family="Times,serif" font-size="14.00">MulleObjCLoader+Foo.m</text>
</g>
<!-- src&#45;&gt;MulleObjCLoader+Foo.m -->
<g id="edge3" class="edge"><title>src&#45;&gt;MulleObjCLoader+Foo.m</title>
<path fill="none" stroke="black" d="M199.303,-143.697C207.865,-135.135 218.344,-124.656 227.696,-115.304"/>
<polygon fill="black" stroke="black" points="230.299,-117.65 234.896,-108.104 225.35,-112.701 230.299,-117.65"/>
</g>
<!-- dependencies.inc -->
<g id="node5" class="node"><title>dependencies.inc</title>
<polygon fill="none" stroke="goldenrod" stroke-width="2" points="458.008,-108 351.992,-108 351.992,-72 464.008,-72 464.008,-102 458.008,-108"/>
<polyline fill="none" stroke="goldenrod" stroke-width="2" points="458.008,-108 458.008,-102 "/>
<polyline fill="none" stroke="goldenrod" stroke-width="2" points="464.008,-102 458.008,-102 "/>
<text text-anchor="middle" x="408" y="-84.4" font-family="Times,serif" font-size="14.00">dependencies.inc</text>
</g>
<!-- src&#45;&gt;dependencies.inc -->
<g id="edge4" class="edge"><title>src&#45;&gt;dependencies.inc</title>
<path fill="none" stroke="black" d="M209.261,-152.556C242.292,-142.325 299.035,-124.75 343.454,-110.992"/>
<polygon fill="black" stroke="black" points="344.502,-114.332 353.019,-108.03 342.431,-107.645 344.502,-114.332"/>
</g>
<!-- build -->
<g id="node6" class="node"><title>build</title>
<polygon fill="none" stroke="black" points="596,-180 593,-184 572,-184 569,-180 542,-180 542,-144 596,-144 596,-180"/>
<text text-anchor="middle" x="569" y="-156.4" font-family="Times,serif" font-size="14.00">build</text>
</g>
<!-- CMakeFiles -->
<g id="node7" class="node"><title>CMakeFiles</title>
<polygon fill="none" stroke="black" points="566.332,-108 563.332,-112 542.332,-112 539.332,-108 481.668,-108 481.668,-72 566.332,-72 566.332,-108"/>
<text text-anchor="middle" x="524" y="-84.4" font-family="Times,serif" font-size="14.00">CMakeFiles</text>
</g>
<!-- build&#45;&gt;CMakeFiles -->
<g id="edge5" class="edge"><title>build&#45;&gt;CMakeFiles</title>
<path fill="none" stroke="black" d="M557.876,-143.697C552.645,-135.559 546.3,-125.689 540.522,-116.701"/>
<polygon fill="black" stroke="black" points="543.347,-114.623 534.996,-108.104 537.459,-118.409 543.347,-114.623"/>
</g>
<!-- libFoo.a -->
<g id="node11" class="node"><title>libFoo.a</title>
<polygon fill="none" stroke="blue" stroke-width="2" points="640.21,-108 583.79,-108 583.79,-72 646.21,-72 646.21,-102 640.21,-108"/>
<polyline fill="none" stroke="blue" stroke-width="2" points="640.21,-108 640.21,-102 "/>
<polyline fill="none" stroke="blue" stroke-width="2" points="646.21,-102 640.21,-102 "/>
<text text-anchor="middle" x="615" y="-84.4" font-family="Times,serif" font-size="14.00">libFoo.a</text>
</g>
<!-- build&#45;&gt;libFoo.a -->
<g id="edge9" class="edge"><title>build&#45;&gt;libFoo.a</title>
<path fill="none" stroke="black" d="M580.371,-143.697C585.718,-135.559 592.204,-125.689 598.111,-116.701"/>
<polygon fill="black" stroke="black" points="601.193,-118.384 603.76,-108.104 595.343,-114.539 601.193,-118.384"/>
</g>
<!-- Foo.m.o -->
<g id="node8" class="node"><title>Foo.m.o</title>
<polygon fill="none" stroke="black" points="455.009,-36 398.991,-36 398.991,-0 461.009,-0 461.009,-30 455.009,-36"/>
<polyline fill="none" stroke="black" points="455.009,-36 455.009,-30 "/>
<polyline fill="none" stroke="black" points="461.009,-30 455.009,-30 "/>
<text text-anchor="middle" x="430" y="-12.4" font-family="Times,serif" font-size="14.00">Foo.m.o</text>
</g>
<!-- CMakeFiles&#45;&gt;Foo.m.o -->
<g id="edge6" class="edge"><title>CMakeFiles&#45;&gt;Foo.m.o</title>
<path fill="none" stroke="black" d="M500.764,-71.6966C488.812,-62.796 474.077,-51.8232 461.153,-42.1989"/>
<polygon fill="black" stroke="black" points="463.08,-39.2699 452.969,-36.1043 458.899,-44.8842 463.08,-39.2699"/>
</g>
<!-- Foo+Bar.m.o -->
<g id="node9" class="node"><title>Foo+Bar.m.o</title>
<polygon fill="none" stroke="black" points="563.015,-36 478.985,-36 478.985,-0 569.015,-0 569.015,-30 563.015,-36"/>
<polyline fill="none" stroke="black" points="563.015,-36 563.015,-30 "/>
<polyline fill="none" stroke="black" points="569.015,-30 563.015,-30 "/>
<text text-anchor="middle" x="524" y="-12.4" font-family="Times,serif" font-size="14.00">Foo+Bar.m.o</text>
</g>
<!-- CMakeFiles&#45;&gt;Foo+Bar.m.o -->
<g id="edge7" class="edge"><title>CMakeFiles&#45;&gt;Foo+Bar.m.o</title>
<path fill="none" stroke="black" d="M524,-71.6966C524,-63.9827 524,-54.7125 524,-46.1124"/>
<polygon fill="black" stroke="black" points="527.5,-46.1043 524,-36.1043 520.5,-46.1044 527.5,-46.1043"/>
</g>
<!-- MulleObjCLoader+Foo.m.o -->
<g id="node10" class="node"><title>MulleObjCLoader+Foo.m.o</title>
<polygon fill="none" stroke="black" points="754.494,-36 587.506,-36 587.506,-0 760.494,-0 760.494,-30 754.494,-36"/>
<polyline fill="none" stroke="black" points="754.494,-36 754.494,-30 "/>
<polyline fill="none" stroke="black" points="760.494,-30 754.494,-30 "/>
<text text-anchor="middle" x="674" y="-12.4" font-family="Times,serif" font-size="14.00">MulleObjCLoader+Foo.m.o</text>
</g>
<!-- CMakeFiles&#45;&gt;MulleObjCLoader+Foo.m.o -->
<g id="edge8" class="edge"><title>CMakeFiles&#45;&gt;MulleObjCLoader+Foo.m.o</title>
<path fill="none" stroke="black" d="M560.694,-71.8761C581.018,-62.3917 606.471,-50.5134 628.102,-40.419"/>
<polygon fill="black" stroke="black" points="629.843,-43.4689 637.425,-36.0683 626.883,-37.1256 629.843,-43.4689"/>
</g>
</g>
</svg>
