<svg xmlns="http://www.w3.org/2000/svg" xmlns:xlink="http://www.w3.org/1999/xlink" width="764pt" height="188pt" viewBox="0 0 764 188"><g id="graph0" class="graph" transform="scale(1 1) rotate(0) translate(4 184)"><title>optimizer</title><polygon fill="#fff" stroke="transparent" points="-4 4 -4 -184 760 -184 760 4 -4 4"/><g id="node1" class="node"><title>src</title><polygon fill="none" stroke="#000" points="209 -180 206 -184 185 -184 182 -180 155 -180 155 -144 209 -144 209 -180"/><text x="182" y="-158.3" fill="#000" font-family="Times,serif" font-size="14" text-anchor="middle">src</text></g><g id="node2" class="node"><title>Foo.m</title><polygon fill="none" stroke="#a020f0" stroke-width="2" points="48 -108 0 -108 0 -72 54 -72 54 -102 48 -108"/><polyline fill="none" stroke="#a020f0" stroke-width="2" points="48 -108 48 -102"/><polyline fill="none" stroke="#a020f0" stroke-width="2" points="54 -102 48 -102"/><text x="27" y="-86.3" fill="#000" font-family="Times,serif" font-size="14" text-anchor="middle">Foo.m</text></g><g id="edge1" class="edge"><title>src-&gt;Foo.m</title><path fill="none" stroke="#000" d="M154.927,-150.0632C132.611,-140.1478 99.9447,-125.46 63.4344,-108.1337"/><polygon fill="#000" stroke="#000" points="64.606 -104.815 54.073 -103.673 61.595 -111.134 64.606 -104.815"/></g><g id="node3" class="node"><title>Foo+Bar.m</title><polygon fill="none" stroke="#a020f0" stroke-width="2" points="146 -108 72 -108 72 -72 152 -72 152 -102 146 -108"/><polyline fill="none" stroke="#a020f0" stroke-width="2" points="146 -108 146 -102"/><polyline fill="none" stroke="#a020f0" stroke-width="2" points="152 -102 146 -102"/><text x="112" y="-86.3" fill="#000" font-family="Times,serif" font-size="14" text-anchor="middle">Foo+Bar.m</text></g><g id="edge2" class="edge"><title>src-&gt;Foo+Bar.m</title><path fill="none" stroke="#000" d="M164.336,-143.8314C156.0268,-135.2848 145.9736,-124.9443 136.9082,-115.6198"/><polygon fill="#000" stroke="#000" points="139.382 -113.144 129.902 -108.413 134.363 -118.023 139.382 -113.144"/></g><g id="node4" class="node"><title>MulleObjCLoader+Foo.m</title><polygon fill="none" stroke="#a020f0" stroke-width="2" points="325.5 -108 170.5 -108 170.5 -72 331.5 -72 331.5 -102 325.5 -108"/><polyline fill="none" stroke="#a020f0" stroke-width="2" points="325.5 -108 325.5 -102"/><polyline fill="none" stroke="#a020f0" stroke-width="2" points="331.5 -102 325.5 -102"/><text x="251" y="-86.3" fill="#000" font-family="Times,serif" font-size="14" text-anchor="middle">MulleObjCLoader+Foo.m</text></g><g id="edge3" class="edge"><title>src-&gt;MulleObjCLoader+Foo.m</title><path fill="none" stroke="#000" d="M199.4116,-143.8314C207.521,-135.3694 217.3156,-125.1489 226.182,-115.8971"/><polygon fill="#000" stroke="#000" points="228.962 -118.055 233.354 -108.413 223.908 -113.212 228.962 -118.055"/></g><g id="node5" class="node"><title>dependencies.inc</title><polygon fill="none" stroke="#000" points="454 -108 350 -108 350 -72 460 -72 460 -102 454 -108"/><polyline fill="none" stroke="#000" points="454 -108 454 -102"/><polyline fill="none" stroke="#000" points="460 -102 454 -102"/><text x="405" y="-86.3" fill="#000" font-family="Times,serif" font-size="14" text-anchor="middle">dependencies.inc</text></g><g id="edge4" class="edge"><title>src-&gt;dependencies.inc</title><path fill="none" stroke="#000" d="M209.3442,-153.1714C241.6738,-142.7331 296.571,-125.0085 340.0012,-110.9862"/><polygon fill="#000" stroke="#000" points="341.203 -114.276 349.644 -107.873 339.052 -107.615 341.203 -114.276"/></g><g id="node6" class="node"><title>build</title><polygon fill="none" stroke="#000" points="592 -180 589 -184 568 -184 565 -180 538 -180 538 -144 592 -144 592 -180"/><text x="565" y="-158.3" fill="#000" font-family="Times,serif" font-size="14" text-anchor="middle">build</text></g><g id="node7" class="node"><title>CMakeFiles</title><polygon fill="none" stroke="#000" points="561.5 -108 558.5 -112 537.5 -112 534.5 -108 478.5 -108 478.5 -72 561.5 -72 561.5 -108"/><text x="520" y="-86.3" fill="#000" font-family="Times,serif" font-size="14" text-anchor="middle">CMakeFiles</text></g><g id="edge5" class="edge"><title>build-&gt;CMakeFiles</title><path fill="none" stroke="#000" d="M553.6446,-143.8314C548.5674,-135.7079 542.4773,-125.9637 536.8824,-117.0118"/><polygon fill="#000" stroke="#000" points="539.776 -115.038 531.508 -108.413 533.84 -118.748 539.776 -115.038"/></g><g id="node11" class="node"><title>libFoo.a</title><polygon fill="none" stroke="#00f" stroke-width="2" points="636 -108 580 -108 580 -72 642 -72 642 -102 636 -108"/><polyline fill="none" stroke="#00f" stroke-width="2" points="636 -108 636 -102"/><polyline fill="none" stroke="#00f" stroke-width="2" points="642 -102 636 -102"/><text x="611" y="-86.3" fill="#000" font-family="Times,serif" font-size="14" text-anchor="middle">libFoo.a</text></g><g id="edge9" class="edge"><title>build-&gt;libFoo.a</title><path fill="none" stroke="#000" d="M576.6077,-143.8314C581.7978,-135.7079 588.0232,-125.9637 593.7425,-117.0118"/><polygon fill="#000" stroke="#000" points="596.802 -118.725 599.236 -108.413 590.903 -114.956 596.802 -118.725"/></g><g id="node8" class="node"><title>Foo.m.o</title><polygon fill="none" stroke="#000" points="450.5 -36 393.5 -36 393.5 0 456.5 0 456.5 -30 450.5 -36"/><polyline fill="none" stroke="#000" points="450.5 -36 450.5 -30"/><polyline fill="none" stroke="#000" points="456.5 -30 450.5 -30"/><text x="425" y="-14.3" fill="#000" font-family="Times,serif" font-size="14" text-anchor="middle">Foo.m.o</text></g><g id="edge6" class="edge"><title>CMakeFiles-&gt;Foo.m.o</title><path fill="none" stroke="#000" d="M496.0275,-71.8314C484.2139,-62.8779 469.8028,-51.9558 457.0565,-42.2955"/><polygon fill="#000" stroke="#000" points="459.049 -39.414 448.965 -36.163 454.82 -44.992 459.049 -39.414"/></g><g id="node9" class="node"><title>Foo+Bar.m.o</title><polygon fill="none" stroke="#000" points="559.5 -36 474.5 -36 474.5 0 565.5 0 565.5 -30 559.5 -36"/><polyline fill="none" stroke="#000" points="559.5 -36 559.5 -30"/><polyline fill="none" stroke="#000" points="565.5 -30 559.5 -30"/><text x="520" y="-14.3" fill="#000" font-family="Times,serif" font-size="14" text-anchor="middle">Foo+Bar.m.o</text></g><g id="edge7" class="edge"><title>CMakeFiles-&gt;Foo+Bar.m.o</title><path fill="none" stroke="#000" d="M520,-71.8314C520,-64.131 520,-54.9743 520,-46.4166"/><polygon fill="#000" stroke="#000" points="523.5 -46.413 520 -36.413 516.5 -46.413 523.5 -46.413"/></g><g id="node10" class="node"><title>MulleObjCLoader+Foo.m.o</title><polygon fill="none" stroke="#000" points="750 -36 584 -36 584 0 756 0 756 -30 750 -36"/><polyline fill="none" stroke="#000" points="750 -36 750 -30"/><polyline fill="none" stroke="#000" points="756 -30 750 -30"/><text x="670" y="-14.3" fill="#000" font-family="Times,serif" font-size="14" text-anchor="middle">MulleObjCLoader+Foo.m.o</text></g><g id="edge8" class="edge"><title>CMakeFiles-&gt;MulleObjCLoader+Foo.m.o</title><path fill="none" stroke="#000" d="M557.8513,-71.8314C577.7346,-62.2874 602.2782,-50.5065 623.3305,-40.4013"/><polygon fill="#000" stroke="#000" points="624.92 -43.521 632.421 -36.038 621.891 -37.21 624.92 -43.521"/></g><g id="node12" class="node"><title>objc-loader.inc</title><polygon fill="none" stroke="#daa520" stroke-width="2" points="702 -180 610 -180 610 -144 708 -144 708 -174 702 -180"/><polyline fill="none" stroke="#daa520" stroke-width="2" points="702 -180 702 -174"/><polyline fill="none" stroke="#daa520" stroke-width="2" points="708 -174 702 -174"/><text x="659" y="-158.3" fill="#000" font-family="Times,serif" font-size="14" text-anchor="middle">objc-loader.inc</text></g></g></svg>