<?xml version="1.0" encoding="UTF-8" standalone="no"?>
<!DOCTYPE svg PUBLIC "-//W3C//DTD SVG 1.1//EN"
 "http://www.w3.org/Graphics/SVG/1.1/DTD/svg11.dtd">
<!-- Generated by graphviz version 2.40.1 (20161225.0304)
 -->
<!-- Title: optimizer Pages: 1 -->
<svg width="992pt" height="188pt"
 viewBox="0.00 0.00 992.00 188.00" xmlns="http://www.w3.org/2000/svg" xmlns:xlink="http://www.w3.org/1999/xlink">
<g id="graph0" class="graph" transform="scale(1 1) rotate(0) translate(4 184)">
<title>optimizer</title>
<polygon fill="#ffffff" stroke="transparent" points="-4,4 -4,-184 988,-184 988,4 -4,4"/>
<!-- unarchive -->
<g id="node1" class="node">
<title>unarchive</title>
<polygon fill="none" stroke="#000000" points="247.5,-180 244.5,-184 223.5,-184 220.5,-180 177.5,-180 177.5,-144 247.5,-144 247.5,-180"/>
<text text-anchor="middle" x="212.5" y="-158.3" font-family="Times,serif" font-size="14.00" fill="#000000">unarchive</text>
</g>
<!-- Foo.d -->
<g id="node2" class="node">
<title>Foo.d</title>
<polygon fill="none" stroke="#000000" points="239.5,-108 236.5,-112 215.5,-112 212.5,-108 185.5,-108 185.5,-72 239.5,-72 239.5,-108"/>
<text text-anchor="middle" x="212.5" y="-86.3" font-family="Times,serif" font-size="14.00" fill="#000000">Foo.d</text>
</g>
<!-- unarchive&#45;&gt;Foo.d -->
<g id="edge1" class="edge">
<title>unarchive&#45;&gt;Foo.d</title>
<path fill="none" stroke="#000000" d="M212.5,-143.8314C212.5,-136.131 212.5,-126.9743 212.5,-118.4166"/>
<polygon fill="#000000" stroke="#000000" points="216.0001,-118.4132 212.5,-108.4133 209.0001,-118.4133 216.0001,-118.4132"/>
</g>
<!-- class_db.csv -->
<g id="node3" class="node">
<title>class_db.csv</title>
<polygon fill="none" stroke="#2e8b57" stroke-width="2" points="79,-36 0,-36 0,0 85,0 85,-30 79,-36"/>
<polyline fill="none" stroke="#2e8b57" stroke-width="2" points="79,-36 79,-30 "/>
<polyline fill="none" stroke="#2e8b57" stroke-width="2" points="85,-30 79,-30 "/>
<text text-anchor="middle" x="42.5" y="-14.3" font-family="Times,serif" font-size="14.00" fill="#000000">class_db.csv</text>
</g>
<!-- Foo.d&#45;&gt;class_db.csv -->
<g id="edge2" class="edge">
<title>Foo.d&#45;&gt;class_db.csv</title>
<path fill="none" stroke="#000000" d="M185.1866,-78.432C160.7953,-68.1016 124.4048,-52.6891 94.4797,-40.0149"/>
<polygon fill="#000000" stroke="#000000" points="95.5876,-36.6832 85.0144,-36.0061 92.8576,-43.129 95.5876,-36.6832"/>
</g>
<!-- method_db.csv -->
<g id="node4" class="node">
<title>method_db.csv</title>
<polygon fill="none" stroke="#2e8b57" stroke-width="2" points="197.5,-36 103.5,-36 103.5,0 203.5,0 203.5,-30 197.5,-36"/>
<polyline fill="none" stroke="#2e8b57" stroke-width="2" points="197.5,-36 197.5,-30 "/>
<polyline fill="none" stroke="#2e8b57" stroke-width="2" points="203.5,-30 197.5,-30 "/>
<text text-anchor="middle" x="153.5" y="-14.3" font-family="Times,serif" font-size="14.00" fill="#000000">method_db.csv</text>
</g>
<!-- Foo.d&#45;&gt;method_db.csv -->
<g id="edge3" class="edge">
<title>Foo.d&#45;&gt;method_db.csv</title>
<path fill="none" stroke="#000000" d="M197.6118,-71.8314C190.747,-63.454 182.4699,-53.3531 174.9489,-44.1749"/>
<polygon fill="#000000" stroke="#000000" points="177.6341,-41.9297 168.5886,-36.4133 172.2197,-46.3665 177.6341,-41.9297"/>
</g>
<!-- objc&#45;loader.inc -->
<g id="node5" class="node">
<title>objc&#45;loader.inc</title>
<polygon fill="none" stroke="#daa520" stroke-width="2" points="313.5,-36 221.5,-36 221.5,0 319.5,0 319.5,-30 313.5,-36"/>
<polyline fill="none" stroke="#daa520" stroke-width="2" points="313.5,-36 313.5,-30 "/>
<polyline fill="none" stroke="#daa520" stroke-width="2" points="319.5,-30 313.5,-30 "/>
<text text-anchor="middle" x="270.5" y="-14.3" font-family="Times,serif" font-size="14.00" fill="#000000">objc&#45;loader.inc</text>
</g>
<!-- Foo.d&#45;&gt;objc&#45;loader.inc -->
<g id="edge4" class="edge">
<title>Foo.d&#45;&gt;objc&#45;loader.inc</title>
<path fill="none" stroke="#000000" d="M227.1358,-71.8314C233.8161,-63.5386 241.8568,-53.557 249.1904,-44.4533"/>
<polygon fill="#000000" stroke="#000000" points="252.1194,-46.3965 255.6671,-36.4133 246.6681,-42.0052 252.1194,-46.3965"/>
</g>
<!-- MulleObjCLoader+Foo.m -->
<g id="node6" class="node">
<title>MulleObjCLoader+Foo.m</title>
<polygon fill="none" stroke="#000000" stroke-width="2" points="493,-36 338,-36 338,0 499,0 499,-30 493,-36"/>
<polyline fill="none" stroke="#000000" stroke-width="2" points="493,-36 493,-30 "/>
<polyline fill="none" stroke="#000000" stroke-width="2" points="499,-30 493,-30 "/>
<text text-anchor="middle" x="418.5" y="-14.3" font-family="Times,serif" font-size="14.00" fill="#000000">MulleObjCLoader+Foo.m</text>
</g>
<!-- Foo.d&#45;&gt;MulleObjCLoader+Foo.m -->
<g id="edge5" class="edge">
<title>Foo.d&#45;&gt;MulleObjCLoader+Foo.m</title>
<path fill="none" stroke="#000000" d="M239.8552,-80.439C269.6192,-70.036 318.1654,-53.0684 357.1437,-39.4449"/>
<polygon fill="#000000" stroke="#000000" points="358.5449,-42.6629 366.8301,-36.0594 356.2353,-36.0549 358.5449,-42.6629"/>
</g>
<!-- optimize -->
<g id="node7" class="node">
<title>optimize</title>
<polygon fill="none" stroke="#000000" points="657,-180 654,-184 633,-184 630,-180 592,-180 592,-144 657,-144 657,-180"/>
<text text-anchor="middle" x="624.5" y="-158.3" font-family="Times,serif" font-size="14.00" fill="#000000">optimize</text>
</g>
<!-- class&#45;coverage.csv -->
<g id="node8" class="node">
<title>class&#45;coverage.csv</title>
<polygon fill="none" stroke="#2e8b57" stroke-width="2" points="533.5,-108 421.5,-108 421.5,-72 539.5,-72 539.5,-102 533.5,-108"/>
<polyline fill="none" stroke="#2e8b57" stroke-width="2" points="533.5,-108 533.5,-102 "/>
<polyline fill="none" stroke="#2e8b57" stroke-width="2" points="539.5,-102 533.5,-102 "/>
<text text-anchor="middle" x="480.5" y="-86.3" font-family="Times,serif" font-size="14.00" fill="#000000">class&#45;coverage.csv</text>
</g>
<!-- optimize&#45;&gt;class&#45;coverage.csv -->
<g id="edge6" class="edge">
<title>optimize&#45;&gt;class&#45;coverage.csv</title>
<path fill="none" stroke="#000000" d="M591.8242,-145.6621C572.22,-135.86 547.0051,-123.2526 525.5314,-112.5157"/>
<polygon fill="#000000" stroke="#000000" points="527.0942,-109.384 516.5847,-108.0423 523.9637,-115.645 527.0942,-109.384"/>
</g>
<!-- method&#45;coverage.csv -->
<g id="node9" class="node">
<title>method&#45;coverage.csv</title>
<polygon fill="none" stroke="#2e8b57" stroke-width="2" points="685,-108 558,-108 558,-72 691,-72 691,-102 685,-108"/>
<polyline fill="none" stroke="#2e8b57" stroke-width="2" points="685,-108 685,-102 "/>
<polyline fill="none" stroke="#2e8b57" stroke-width="2" points="691,-102 685,-102 "/>
<text text-anchor="middle" x="624.5" y="-86.3" font-family="Times,serif" font-size="14.00" fill="#000000">method&#45;coverage.csv</text>
</g>
<!-- optimize&#45;&gt;method&#45;coverage.csv -->
<g id="edge7" class="edge">
<title>optimize&#45;&gt;method&#45;coverage.csv</title>
<path fill="none" stroke="#000000" d="M624.5,-143.8314C624.5,-136.131 624.5,-126.9743 624.5,-118.4166"/>
<polygon fill="#000000" stroke="#000000" points="628.0001,-118.4132 624.5,-108.4133 621.0001,-118.4133 628.0001,-118.4132"/>
</g>
<!-- Foo2.d -->
<g id="node10" class="node">
<title>Foo2.d</title>
<polygon fill="none" stroke="#000000" points="763.5,-108 760.5,-112 739.5,-112 736.5,-108 709.5,-108 709.5,-72 763.5,-72 763.5,-108"/>
<text text-anchor="middle" x="736.5" y="-86.3" font-family="Times,serif" font-size="14.00" fill="#000000">Foo.d</text>
</g>
<!-- optimize&#45;&gt;Foo2.d -->
<g id="edge8" class="edge">
<title>optimize&#45;&gt;Foo2.d</title>
<path fill="none" stroke="#000000" d="M652.7623,-143.8314C667.2802,-134.4984 685.1255,-123.0264 700.6068,-113.0742"/>
<polygon fill="#000000" stroke="#000000" points="702.8866,-115.7695 709.4058,-107.4177 699.1013,-109.8812 702.8866,-115.7695"/>
</g>
<!-- class&#45;objc&#45;loader.inc -->
<g id="node11" class="node">
<title>class&#45;objc&#45;loader.inc</title>
<polygon fill="none" stroke="#daa520" stroke-width="2" points="640,-36 517,-36 517,0 646,0 646,-30 640,-36"/>
<polyline fill="none" stroke="#daa520" stroke-width="2" points="640,-36 640,-30 "/>
<polyline fill="none" stroke="#daa520" stroke-width="2" points="646,-30 640,-30 "/>
<text text-anchor="middle" x="581.5" y="-14.3" font-family="Times,serif" font-size="14.00" fill="#000000">class&#45;objc&#45;loader.inc</text>
</g>
<!-- Foo2.d&#45;&gt;class&#45;objc&#45;loader.inc -->
<g id="edge9" class="edge">
<title>Foo2.d&#45;&gt;class&#45;objc&#45;loader.inc</title>
<path fill="none" stroke="#000000" d="M709.4575,-76.7531C706.1097,-75.1401 702.73,-73.5245 699.5,-72 676.9604,-61.3618 651.8652,-49.8337 630.6324,-40.1714"/>
<polygon fill="#000000" stroke="#000000" points="632.0329,-36.9635 621.4807,-36.0134 629.1373,-43.3365 632.0329,-36.9635"/>
</g>
<!-- method&#45;objc&#45;loader.inc -->
<g id="node12" class="node">
<title>method&#45;objc&#45;loader.inc</title>
<polygon fill="none" stroke="#daa520" stroke-width="2" points="802.5,-36 664.5,-36 664.5,0 808.5,0 808.5,-30 802.5,-36"/>
<polyline fill="none" stroke="#daa520" stroke-width="2" points="802.5,-36 802.5,-30 "/>
<polyline fill="none" stroke="#daa520" stroke-width="2" points="808.5,-30 802.5,-30 "/>
<text text-anchor="middle" x="736.5" y="-14.3" font-family="Times,serif" font-size="14.00" fill="#000000">method&#45;objc&#45;loader.inc</text>
</g>
<!-- Foo2.d&#45;&gt;method&#45;objc&#45;loader.inc -->
<g id="edge10" class="edge">
<title>Foo2.d&#45;&gt;method&#45;objc&#45;loader.inc</title>
<path fill="none" stroke="#000000" d="M736.5,-71.8314C736.5,-64.131 736.5,-54.9743 736.5,-46.4166"/>
<polygon fill="#000000" stroke="#000000" points="740.0001,-46.4132 736.5,-36.4133 733.0001,-46.4133 740.0001,-46.4132"/>
</g>
<!-- MulleObjCLoader+Foo.o -->
<g id="node13" class="node">
<title>MulleObjCLoader+Foo.o</title>
<polygon fill="none" stroke="#0000ff" stroke-width="2" points="978,-36 827,-36 827,0 984,0 984,-30 978,-36"/>
<polyline fill="none" stroke="#0000ff" stroke-width="2" points="978,-36 978,-30 "/>
<polyline fill="none" stroke="#0000ff" stroke-width="2" points="984,-30 978,-30 "/>
<text text-anchor="middle" x="905.5" y="-14.3" font-family="Times,serif" font-size="14.00" fill="#000000">MulleObjCLoader+Foo.o</text>
</g>
<!-- Foo2.d&#45;&gt;MulleObjCLoader+Foo.o -->
<g id="edge11" class="edge">
<title>Foo2.d&#45;&gt;MulleObjCLoader+Foo.o</title>
<path fill="none" stroke="#000000" d="M763.6528,-78.432C787.9005,-68.1016 824.077,-52.6891 853.826,-40.0149"/>
<polygon fill="#000000" stroke="#000000" points="855.4076,-43.1456 863.2357,-36.0061 852.664,-36.7057 855.4076,-43.1456"/>
</g>
</g>
</svg>
