<?xml version="1.0" encoding="UTF-8" standalone="no"?>
<!DOCTYPE svg PUBLIC "-//W3C//DTD SVG 1.1//EN"
 "http://www.w3.org/Graphics/SVG/1.1/DTD/svg11.dtd">
<!-- Generated by graphviz version 2.34.0 (20131231.1455)
 -->
<!-- Title: optimizer Pages: 1 -->
<svg width="227pt" height="332pt"
 viewBox="0.00 0.00 227.00 332.00" xmlns="http://www.w3.org/2000/svg" xmlns:xlink="http://www.w3.org/1999/xlink">
<g id="graph0" class="graph" transform="scale(1 1) rotate(0) translate(4 328)">
<title>optimizer</title>
<polygon fill="white" stroke="white" points="-4,4 -4,-328 223,-328 223,4 -4,4"/>
<!-- libFoo.a -->
<g id="node1" class="node"><title>libFoo.a</title>
<polygon fill="none" stroke="blue" stroke-width="2" points="213.21,-108 156.79,-108 156.79,-72 219.21,-72 219.21,-102 213.21,-108"/>
<polyline fill="none" stroke="blue" stroke-width="2" points="213.21,-108 213.21,-102 "/>
<polyline fill="none" stroke="blue" stroke-width="2" points="219.21,-102 213.21,-102 "/>
<text text-anchor="middle" x="188" y="-84.4" font-family="Times,serif" font-size="14.00">libFoo.a</text>
</g>
<!-- main.m -->
<g id="node2" class="node"><title>main.m</title>
<polygon fill="none" stroke="purple" stroke-width="2" points="52.2877,-180 -0.287741,-180 -0.287741,-144 58.2877,-144 58.2877,-174 52.2877,-180"/>
<polyline fill="none" stroke="purple" stroke-width="2" points="52.2877,-180 52.2877,-174 "/>
<polyline fill="none" stroke="purple" stroke-width="2" points="58.2877,-174 52.2877,-174 "/>
<text text-anchor="middle" x="29" y="-156.4" font-family="Times,serif" font-size="14.00">main.m</text>
</g>
<!-- myexe -->
<g id="node3" class="node"><title>myexe</title>
<polygon fill="none" stroke="black" points="101,-324 98,-328 77,-328 74,-324 47,-324 47,-288 101,-288 101,-324"/>
<text text-anchor="middle" x="74" y="-300.4" font-family="Times,serif" font-size="14.00">myexe</text>
</g>
<!-- src -->
<g id="node4" class="node"><title>src</title>
<polygon fill="none" stroke="black" points="56,-252 53,-256 32,-256 29,-252 2,-252 2,-216 56,-216 56,-252"/>
<text text-anchor="middle" x="29" y="-228.4" font-family="Times,serif" font-size="14.00">src</text>
</g>
<!-- myexe&#45;&gt;src -->
<g id="edge1" class="edge"><title>myexe&#45;&gt;src</title>
<path fill="none" stroke="black" d="M62.8764,-287.697C57.645,-279.559 51.3001,-269.689 45.5222,-260.701"/>
<polygon fill="black" stroke="black" points="48.3474,-258.623 39.9956,-252.104 42.4591,-262.409 48.3474,-258.623"/>
</g>
<!-- dependencies -->
<g id="node5" class="node"><title>dependencies</title>
<polygon fill="none" stroke="black" points="165.555,-252 162.555,-256 141.555,-256 138.555,-252 74.4452,-252 74.4452,-216 165.555,-216 165.555,-252"/>
<text text-anchor="middle" x="120" y="-228.4" font-family="Times,serif" font-size="14.00">dependencies</text>
</g>
<!-- myexe&#45;&gt;dependencies -->
<g id="edge3" class="edge"><title>myexe&#45;&gt;dependencies</title>
<path fill="none" stroke="black" d="M85.3708,-287.697C90.7185,-279.559 97.2043,-269.689 103.111,-260.701"/>
<polygon fill="black" stroke="black" points="106.193,-262.384 108.76,-252.104 100.343,-258.539 106.193,-262.384"/>
</g>
<!-- src&#45;&gt;main.m -->
<g id="edge2" class="edge"><title>src&#45;&gt;main.m</title>
<path fill="none" stroke="black" d="M29,-215.697C29,-207.983 29,-198.712 29,-190.112"/>
<polygon fill="black" stroke="black" points="32.5001,-190.104 29,-180.104 25.5001,-190.104 32.5001,-190.104"/>
</g>
<!-- include -->
<g id="node6" class="node"><title>include</title>
<polygon fill="none" stroke="black" points="140.405,-180 137.405,-184 116.405,-184 113.405,-180 83.5954,-180 83.5954,-144 140.405,-144 140.405,-180"/>
<text text-anchor="middle" x="112" y="-156.4" font-family="Times,serif" font-size="14.00">include</text>
</g>
<!-- dependencies&#45;&gt;include -->
<g id="edge4" class="edge"><title>dependencies&#45;&gt;include</title>
<path fill="none" stroke="black" d="M118.022,-215.697C117.141,-207.983 116.081,-198.712 115.099,-190.112"/>
<polygon fill="black" stroke="black" points="118.568,-189.642 113.955,-180.104 111.613,-190.437 118.568,-189.642"/>
</g>
<!-- lib -->
<g id="node9" class="node"><title>lib</title>
<polygon fill="none" stroke="black" points="214,-180 211,-184 190,-184 187,-180 160,-180 160,-144 214,-144 214,-180"/>
<text text-anchor="middle" x="187" y="-156.4" font-family="Times,serif" font-size="14.00">lib</text>
</g>
<!-- dependencies&#45;&gt;lib -->
<g id="edge7" class="edge"><title>dependencies&#45;&gt;lib</title>
<path fill="none" stroke="black" d="M136.562,-215.697C144.675,-207.22 154.588,-196.864 163.471,-187.583"/>
<polygon fill="black" stroke="black" points="166.243,-189.749 170.629,-180.104 161.186,-184.908 166.243,-189.749"/>
</g>
<!-- Foo -->
<g id="node7" class="node"><title>Foo</title>
<polygon fill="none" stroke="black" points="139,-108 136,-112 115,-112 112,-108 85,-108 85,-72 139,-72 139,-108"/>
<text text-anchor="middle" x="112" y="-84.4" font-family="Times,serif" font-size="14.00">Foo</text>
</g>
<!-- include&#45;&gt;Foo -->
<g id="edge5" class="edge"><title>include&#45;&gt;Foo</title>
<path fill="none" stroke="black" d="M112,-143.697C112,-135.983 112,-126.712 112,-118.112"/>
<polygon fill="black" stroke="black" points="115.5,-118.104 112,-108.104 108.5,-118.104 115.5,-118.104"/>
</g>
<!-- dependencies.inc -->
<g id="node8" class="node"><title>dependencies.inc</title>
<polygon fill="none" stroke="goldenrod" stroke-width="2" points="162.008,-36 55.9919,-36 55.9919,-0 168.008,-0 168.008,-30 162.008,-36"/>
<polyline fill="none" stroke="goldenrod" stroke-width="2" points="162.008,-36 162.008,-30 "/>
<polyline fill="none" stroke="goldenrod" stroke-width="2" points="168.008,-30 162.008,-30 "/>
<text text-anchor="middle" x="112" y="-12.4" font-family="Times,serif" font-size="14.00">dependencies.inc</text>
</g>
<!-- Foo&#45;&gt;dependencies.inc -->
<g id="edge6" class="edge"><title>Foo&#45;&gt;dependencies.inc</title>
<path fill="none" stroke="black" d="M112,-71.6966C112,-63.9827 112,-54.7125 112,-46.1124"/>
<polygon fill="black" stroke="black" points="115.5,-46.1043 112,-36.1043 108.5,-46.1044 115.5,-46.1043"/>
</g>
<!-- lib&#45;&gt;libFoo.a -->
<g id="edge8" class="edge"><title>lib&#45;&gt;libFoo.a</title>
<path fill="none" stroke="black" d="M187.247,-143.697C187.357,-135.983 187.49,-126.712 187.613,-118.112"/>
<polygon fill="black" stroke="black" points="191.112,-118.153 187.756,-108.104 184.113,-118.053 191.112,-118.153"/>
</g>
</g>
</svg>
