<?xml version="1.0" encoding="UTF-8" standalone="no"?>
<!DOCTYPE svg PUBLIC "-//W3C//DTD SVG 1.1//EN"
 "http://www.w3.org/Graphics/SVG/1.1/DTD/svg11.dtd">
<!-- Generated by graphviz version 2.34.0 (20131231.1455)
 -->
<!-- Title: optimizer Pages: 1 -->
<svg width="920pt" height="260pt"
 viewBox="0.00 0.00 920.00 260.00" xmlns="http://www.w3.org/2000/svg" xmlns:xlink="http://www.w3.org/1999/xlink">
<g id="graph0" class="graph" transform="scale(1 1) rotate(0) translate(4 256)">
<title>optimizer</title>
<polygon fill="white" stroke="white" points="-4,4 -4,-256 916,-256 916,4 -4,4"/>
<!-- dependencies -->
<g id="node1" class="node"><title>dependencies</title>
<polygon fill="none" stroke="black" points="140.555,-252 137.555,-256 116.555,-256 113.555,-252 49.4452,-252 49.4452,-216 140.555,-216 140.555,-252"/>
<text text-anchor="middle" x="95" y="-228.4" font-family="Times,serif" font-size="14.00">dependencies</text>
</g>
<!-- include -->
<g id="node2" class="node"><title>include</title>
<polygon fill="none" stroke="black" points="85.4046,-180 82.4046,-184 61.4046,-184 58.4046,-180 28.5954,-180 28.5954,-144 85.4046,-144 85.4046,-180"/>
<text text-anchor="middle" x="57" y="-156.4" font-family="Times,serif" font-size="14.00">include</text>
</g>
<!-- dependencies&#45;&gt;include -->
<g id="edge1" class="edge"><title>dependencies&#45;&gt;include</title>
<path fill="none" stroke="black" d="M85.6067,-215.697C81.2351,-207.644 75.9427,-197.894 71.1047,-188.982"/>
<polygon fill="black" stroke="black" points="74.1322,-187.223 66.2852,-180.104 67.9802,-190.563 74.1322,-187.223"/>
</g>
<!-- lib -->
<g id="node5" class="node"><title>lib</title>
<polygon fill="none" stroke="black" points="159,-180 156,-184 135,-184 132,-180 105,-180 105,-144 159,-144 159,-180"/>
<text text-anchor="middle" x="132" y="-156.4" font-family="Times,serif" font-size="14.00">lib</text>
</g>
<!-- dependencies&#45;&gt;lib -->
<g id="edge4" class="edge"><title>dependencies&#45;&gt;lib</title>
<path fill="none" stroke="black" d="M104.146,-215.697C108.403,-207.644 113.556,-197.894 118.266,-188.982"/>
<polygon fill="black" stroke="black" points="121.38,-190.581 122.959,-180.104 115.192,-187.31 121.38,-190.581"/>
</g>
<!-- Foo -->
<g id="node3" class="node"><title>Foo</title>
<polygon fill="none" stroke="black" points="83,-108 80,-112 59,-112 56,-108 29,-108 29,-72 83,-72 83,-108"/>
<text text-anchor="middle" x="56" y="-84.4" font-family="Times,serif" font-size="14.00">Foo</text>
</g>
<!-- include&#45;&gt;Foo -->
<g id="edge2" class="edge"><title>include&#45;&gt;Foo</title>
<path fill="none" stroke="black" d="M56.7528,-143.697C56.6426,-135.983 56.5102,-126.712 56.3873,-118.112"/>
<polygon fill="black" stroke="black" points="59.8869,-118.053 56.2443,-108.104 52.8876,-118.153 59.8869,-118.053"/>
</g>
<!-- dependencies.inc -->
<g id="node4" class="node"><title>dependencies.inc</title>
<polygon fill="none" stroke="goldenrod" stroke-width="2" points="106.008,-36 -0.0080569,-36 -0.0080569,-0 112.008,-0 112.008,-30 106.008,-36"/>
<polyline fill="none" stroke="goldenrod" stroke-width="2" points="106.008,-36 106.008,-30 "/>
<polyline fill="none" stroke="goldenrod" stroke-width="2" points="112.008,-30 106.008,-30 "/>
<text text-anchor="middle" x="56" y="-12.4" font-family="Times,serif" font-size="14.00">dependencies.inc</text>
</g>
<!-- Foo&#45;&gt;dependencies.inc -->
<g id="edge3" class="edge"><title>Foo&#45;&gt;dependencies.inc</title>
<path fill="none" stroke="black" d="M56,-71.6966C56,-63.9827 56,-54.7125 56,-46.1124"/>
<polygon fill="black" stroke="black" points="59.5001,-46.1043 56,-36.1043 52.5001,-46.1044 59.5001,-46.1043"/>
</g>
<!-- libFoo.a -->
<g id="node6" class="node"><title>libFoo.a</title>
<polygon fill="none" stroke="blue" stroke-width="2" points="157.21,-108 100.79,-108 100.79,-72 163.21,-72 163.21,-102 157.21,-108"/>
<polyline fill="none" stroke="blue" stroke-width="2" points="157.21,-108 157.21,-102 "/>
<polyline fill="none" stroke="blue" stroke-width="2" points="163.21,-102 157.21,-102 "/>
<text text-anchor="middle" x="132" y="-84.4" font-family="Times,serif" font-size="14.00">libFoo.a</text>
</g>
<!-- lib&#45;&gt;libFoo.a -->
<g id="edge5" class="edge"><title>lib&#45;&gt;libFoo.a</title>
<path fill="none" stroke="black" d="M132,-143.697C132,-135.983 132,-126.712 132,-118.112"/>
<polygon fill="black" stroke="black" points="135.5,-118.104 132,-108.104 128.5,-118.104 135.5,-118.104"/>
</g>
<!-- unarchive -->
<g id="node7" class="node"><title>unarchive</title>
<polygon fill="none" stroke="black" points="481.394,-252 478.394,-256 457.394,-256 454.394,-252 410.606,-252 410.606,-216 481.394,-216 481.394,-252"/>
<text text-anchor="middle" x="446" y="-228.4" font-family="Times,serif" font-size="14.00">unarchive</text>
</g>
<!-- Foo.d -->
<g id="node8" class="node"><title>Foo.d</title>
<polygon fill="none" stroke="black" points="473,-180 470,-184 449,-184 446,-180 419,-180 419,-144 473,-144 473,-180"/>
<text text-anchor="middle" x="446" y="-156.4" font-family="Times,serif" font-size="14.00">Foo.d</text>
</g>
<!-- unarchive&#45;&gt;Foo.d -->
<g id="edge6" class="edge"><title>unarchive&#45;&gt;Foo.d</title>
<path fill="none" stroke="black" d="M446,-215.697C446,-207.983 446,-198.712 446,-190.112"/>
<polygon fill="black" stroke="black" points="449.5,-190.104 446,-180.104 442.5,-190.104 449.5,-190.104"/>
</g>
<!-- Foo.o -->
<g id="node9" class="node"><title>Foo.o</title>
<polygon fill="none" stroke="black" points="229,-108 181,-108 181,-72 235,-72 235,-102 229,-108"/>
<polyline fill="none" stroke="black" points="229,-108 229,-102 "/>
<polyline fill="none" stroke="black" points="235,-102 229,-102 "/>
<text text-anchor="middle" x="208" y="-84.4" font-family="Times,serif" font-size="14.00">Foo.o</text>
</g>
<!-- Foo.d&#45;&gt;Foo.o -->
<g id="edge7" class="edge"><title>Foo.d&#45;&gt;Foo.o</title>
<path fill="none" stroke="black" d="M418.722,-155.521C381.212,-147.629 311.608,-131.702 244.713,-107.933"/>
<polygon fill="black" stroke="black" points="245.889,-104.637 235.295,-104.527 243.509,-111.22 245.889,-104.637"/>
</g>
<!-- Foo+Bar.o -->
<g id="node10" class="node"><title>Foo+Bar.o</title>
<polygon fill="none" stroke="black" points="322.225,-108 253.775,-108 253.775,-72 328.225,-72 328.225,-102 322.225,-108"/>
<polyline fill="none" stroke="black" points="322.225,-108 322.225,-102 "/>
<polyline fill="none" stroke="black" points="328.225,-102 322.225,-102 "/>
<text text-anchor="middle" x="291" y="-84.4" font-family="Times,serif" font-size="14.00">Foo+Bar.o</text>
</g>
<!-- Foo.d&#45;&gt;Foo+Bar.o -->
<g id="edge8" class="edge"><title>Foo.d&#45;&gt;Foo+Bar.o</title>
<path fill="none" stroke="black" d="M418.646,-148.647C396.276,-138.544 364.139,-124.03 337.708,-112.094"/>
<polygon fill="black" stroke="black" points="338.811,-108.752 328.257,-107.826 335.93,-115.131 338.811,-108.752"/>
</g>
<!-- class_db.csv -->
<g id="node11" class="node"><title>class_db.csv</title>
<polygon fill="none" stroke="seagreen" stroke-width="2" points="427.282,-108 346.718,-108 346.718,-72 433.282,-72 433.282,-102 427.282,-108"/>
<polyline fill="none" stroke="seagreen" stroke-width="2" points="427.282,-108 427.282,-102 "/>
<polyline fill="none" stroke="seagreen" stroke-width="2" points="433.282,-102 427.282,-102 "/>
<text text-anchor="middle" x="390" y="-84.4" font-family="Times,serif" font-size="14.00">class_db.csv</text>
</g>
<!-- Foo.d&#45;&gt;class_db.csv -->
<g id="edge9" class="edge"><title>Foo.d&#45;&gt;class_db.csv</title>
<path fill="none" stroke="black" d="M432.157,-143.697C425.511,-135.389 417.422,-125.277 410.113,-116.141"/>
<polygon fill="black" stroke="black" points="412.664,-113.727 403.683,-108.104 407.197,-118.099 412.664,-113.727"/>
</g>
<!-- method_db.csv -->
<g id="node12" class="node"><title>method_db.csv</title>
<polygon fill="none" stroke="seagreen" stroke-width="2" points="546.366,-108 451.634,-108 451.634,-72 552.366,-72 552.366,-102 546.366,-108"/>
<polyline fill="none" stroke="seagreen" stroke-width="2" points="546.366,-108 546.366,-102 "/>
<polyline fill="none" stroke="seagreen" stroke-width="2" points="552.366,-102 546.366,-102 "/>
<text text-anchor="middle" x="502" y="-84.4" font-family="Times,serif" font-size="14.00">method_db.csv</text>
</g>
<!-- Foo.d&#45;&gt;method_db.csv -->
<g id="edge10" class="edge"><title>Foo.d&#45;&gt;method_db.csv</title>
<path fill="none" stroke="black" d="M459.843,-143.697C466.489,-135.389 474.578,-125.277 481.887,-116.141"/>
<polygon fill="black" stroke="black" points="484.803,-118.099 488.317,-108.104 479.336,-113.727 484.803,-118.099"/>
</g>
<!-- loader&#45;dependencies.inc -->
<g id="node13" class="node"><title>loader&#45;dependencies.inc</title>
<polygon fill="none" stroke="goldenrod" stroke-width="2" points="715.534,-108 570.466,-108 570.466,-72 721.534,-72 721.534,-102 715.534,-108"/>
<polyline fill="none" stroke="goldenrod" stroke-width="2" points="715.534,-108 715.534,-102 "/>
<polyline fill="none" stroke="goldenrod" stroke-width="2" points="721.534,-102 715.534,-102 "/>
<text text-anchor="middle" x="646" y="-84.4" font-family="Times,serif" font-size="14.00">loader&#45;dependencies.inc</text>
</g>
<!-- Foo.d&#45;&gt;loader&#45;dependencies.inc -->
<g id="edge11" class="edge"><title>Foo.d&#45;&gt;loader&#45;dependencies.inc</title>
<path fill="none" stroke="black" d="M473.39,-151.414C502.557,-141.205 549.605,-124.738 587.221,-111.573"/>
<polygon fill="black" stroke="black" points="588.777,-114.736 597.059,-108.129 586.465,-108.129 588.777,-114.736"/>
</g>
<!-- MethodObjCLoader+Foo.m -->
<g id="node14" class="node"><title>MethodObjCLoader+Foo.m</title>
<polygon fill="none" stroke="purple" stroke-width="2" points="906.203,-108 739.797,-108 739.797,-72 912.203,-72 912.203,-102 906.203,-108"/>
<polyline fill="none" stroke="purple" stroke-width="2" points="906.203,-108 906.203,-102 "/>
<polyline fill="none" stroke="purple" stroke-width="2" points="912.203,-102 906.203,-102 "/>
<text text-anchor="middle" x="826" y="-84.4" font-family="Times,serif" font-size="14.00">MethodObjCLoader+Foo.m</text>
</g>
<!-- Foo.d&#45;&gt;MethodObjCLoader+Foo.m -->
<g id="edge12" class="edge"><title>Foo.d&#45;&gt;MethodObjCLoader+Foo.m</title>
<path fill="none" stroke="black" d="M473.024,-156.022C525.706,-146.317 644.431,-124.447 729.646,-108.749"/>
<polygon fill="black" stroke="black" points="730.404,-112.169 739.604,-106.915 729.135,-105.285 730.404,-112.169"/>
</g>
</g>
</svg>
