<svg xmlns="http://www.w3.org/2000/svg" xmlns:xlink="http://www.w3.org/1999/xlink" width="1196" height="260pt" viewBox="0 0 896.5 260"><g id="graph0" class="graph" transform="scale(1 1) rotate(0) translate(4 256)"><title>optimizer</title><polygon fill="#fff" stroke="transparent" points="-4 4 -4 -256 892.5 -256 892.5 4 -4 4"/><g id="node1" class="node"><title>dependencies</title><polygon fill="none" stroke="#000" points="132.5 -252 129.5 -256 108.5 -256 105.5 -252 43.5 -252 43.5 -216 132.5 -216 132.5 -252"/><text x="88" y="-230.3" fill="#000" font-family="Times,serif" font-size="14" text-anchor="middle">dependencies</text></g><g id="node2" class="node"><title>include</title><polygon fill="none" stroke="#000" points="78 -180 75 -184 54 -184 51 -180 22 -180 22 -144 78 -144 78 -180"/><text x="50" y="-158.3" fill="#000" font-family="Times,serif" font-size="14" text-anchor="middle">include</text></g><g id="edge1" class="edge"><title>dependencies-&gt;include</title><path fill="none" stroke="#000" d="M78.411,-215.8314C74.1683,-207.7925 69.0879,-198.1666 64.404,-189.2918"/><polygon fill="#000" stroke="#000" points="67.481 -187.624 59.718 -180.413 61.29 -190.891 67.481 -187.624"/></g><g id="node5" class="node"><title>lib</title><polygon fill="none" stroke="#000" points="151 -180 148 -184 127 -184 124 -180 97 -180 97 -144 151 -144 151 -180"/><text x="124" y="-158.3" fill="#000" font-family="Times,serif" font-size="14" text-anchor="middle">lib</text></g><g id="edge4" class="edge"><title>dependencies-&gt;lib</title><path fill="none" stroke="#000" d="M97.0843,-215.8314C101.0615,-207.8771 105.8155,-198.369 110.2139,-189.5723"/><polygon fill="#000" stroke="#000" points="113.452 -190.923 114.793 -180.413 107.191 -187.792 113.452 -190.923"/></g><g id="node3" class="node"><title>Foo</title><polygon fill="none" stroke="#000" points="76 -108 73 -112 52 -112 49 -108 22 -108 22 -72 76 -72 76 -108"/><text x="49" y="-86.3" fill="#000" font-family="Times,serif" font-size="14" text-anchor="middle">Foo</text></g><g id="edge2" class="edge"><title>include-&gt;Foo</title><path fill="none" stroke="#000" d="M49.7477,-143.8314C49.6407,-136.131 49.5135,-126.9743 49.3947,-118.4166"/><polygon fill="#000" stroke="#000" points="52.894 -118.364 49.256 -108.413 45.895 -118.461 52.894 -118.364"/></g><g id="node4" class="node"><title>objc-loader.inc</title><polygon fill="none" stroke="#daa520" stroke-width="2" points="92 -36 0 -36 0 0 98 0 98 -30 92 -36"/><polyline fill="none" stroke="#daa520" stroke-width="2" points="92 -36 92 -30"/><polyline fill="none" stroke="#daa520" stroke-width="2" points="98 -30 92 -30"/><text x="49" y="-14.3" fill="#000" font-family="Times,serif" font-size="14" text-anchor="middle">objc-loader.inc</text></g><g id="edge3" class="edge"><title>Foo-&gt;objc-loader.inc</title><path fill="none" stroke="#000" d="M49,-71.8314C49,-64.131 49,-54.9743 49,-46.4166"/><polygon fill="#000" stroke="#000" points="52.5 -46.413 49 -36.413 45.5 -46.413 52.5 -46.413"/></g><g id="node6" class="node"><title>libFoo.a</title><polygon fill="none" stroke="#00f" stroke-width="2" points="150 -108 94 -108 94 -72 156 -72 156 -102 150 -108"/><polyline fill="none" stroke="#00f" stroke-width="2" points="150 -108 150 -102"/><polyline fill="none" stroke="#00f" stroke-width="2" points="156 -102 150 -102"/><text x="125" y="-86.3" fill="#000" font-family="Times,serif" font-size="14" text-anchor="middle">libFoo.a</text></g><g id="edge5" class="edge"><title>lib-&gt;libFoo.a</title><path fill="none" stroke="#000" d="M124.2523,-143.8314C124.3593,-136.131 124.4865,-126.9743 124.6053,-118.4166"/><polygon fill="#000" stroke="#000" points="128.105 -118.461 124.744 -108.413 121.106 -118.364 128.105 -118.461"/></g><g id="node7" class="node"><title>unarchive</title><polygon fill="none" stroke="#000" points="473 -252 470 -256 449 -256 446 -252 403 -252 403 -216 473 -216 473 -252"/><text x="438" y="-230.3" fill="#000" font-family="Times,serif" font-size="14" text-anchor="middle">unarchive</text></g><g id="node8" class="node"><title>Foo.d</title><polygon fill="none" stroke="#000" points="465 -180 462 -184 441 -184 438 -180 411 -180 411 -144 465 -144 465 -180"/><text x="438" y="-158.3" fill="#000" font-family="Times,serif" font-size="14" text-anchor="middle">Foo.d</text></g><g id="edge6" class="edge"><title>unarchive-&gt;Foo.d</title><path fill="none" stroke="#000" d="M438,-215.8314C438,-208.131 438,-198.9743 438,-190.4166"/><polygon fill="#000" stroke="#000" points="441.5 -190.413 438 -180.413 434.5 -190.413 441.5 -190.413"/></g><g id="node9" class="node"><title>Foo.o</title><polygon fill="none" stroke="#000" points="222 -108 174 -108 174 -72 228 -72 228 -102 222 -108"/><polyline fill="none" stroke="#000" points="222 -108 222 -102"/><polyline fill="none" stroke="#000" points="228 -102 222 -102"/><text x="201" y="-86.3" fill="#000" font-family="Times,serif" font-size="14" text-anchor="middle">Foo.o</text></g><g id="edge7" class="edge"><title>Foo.d-&gt;Foo.o</title><path fill="none" stroke="#000" d="M410.796,-156.5169C373.4776,-148.6074 304.3399,-132.5667 238.0219,-108.024"/><polygon fill="#000" stroke="#000" points="238.854 -104.597 228.262 -104.341 236.382 -111.146 238.854 -104.597"/></g><g id="node10" class="node"><title>Foo+Bar.o</title><polygon fill="none" stroke="#000" points="316 -108 246 -108 246 -72 322 -72 322 -102 316 -108"/><polyline fill="none" stroke="#000" points="316 -108 316 -102"/><polyline fill="none" stroke="#000" points="322 -102 316 -102"/><text x="284" y="-86.3" fill="#000" font-family="Times,serif" font-size="14" text-anchor="middle">Foo+Bar.o</text></g><g id="edge8" class="edge"><title>Foo.d-&gt;Foo+Bar.o</title><path fill="none" stroke="#000" d="M410.8224,-149.2936C388.9047,-139.0464 357.5489,-124.3865 331.4998,-112.2077"/><polygon fill="#000" stroke="#000" points="332.711 -108.911 322.17 -107.846 329.747 -115.252 332.711 -108.911"/></g><g id="node11" class="node"><title>class_db.csv</title><polygon fill="none" stroke="#2e8b57" stroke-width="2" points="419.5 -108 340.5 -108 340.5 -72 425.5 -72 425.5 -102 419.5 -108"/><polyline fill="none" stroke="#2e8b57" stroke-width="2" points="419.5 -108 419.5 -102"/><polyline fill="none" stroke="#2e8b57" stroke-width="2" points="425.5 -102 419.5 -102"/><text x="383" y="-86.3" fill="#000" font-family="Times,serif" font-size="14" text-anchor="middle">class_db.csv</text></g><g id="edge9" class="edge"><title>Foo.d-&gt;class_db.csv</title><path fill="none" stroke="#000" d="M424.1212,-143.8314C417.7864,-135.5386 410.1616,-125.557 403.2074,-116.4533"/><polygon fill="#000" stroke="#000" points="405.918 -114.235 397.066 -108.413 400.355 -118.485 405.918 -114.235"/></g><g id="node12" class="node"><title>method_db.csv</title><polygon fill="none" stroke="#2e8b57" stroke-width="2" points="538 -108 444 -108 444 -72 544 -72 544 -102 538 -108"/><polyline fill="none" stroke="#2e8b57" stroke-width="2" points="538 -108 538 -102"/><polyline fill="none" stroke="#2e8b57" stroke-width="2" points="544 -102 538 -102"/><text x="494" y="-86.3" fill="#000" font-family="Times,serif" font-size="14" text-anchor="middle">method_db.csv</text></g><g id="edge10" class="edge"><title>Foo.d-&gt;method_db.csv</title><path fill="none" stroke="#000" d="M452.1312,-143.8314C458.5811,-135.5386 466.3445,-125.557 473.4252,-116.4533"/><polygon fill="#000" stroke="#000" points="476.302 -118.456 479.679 -108.413 470.776 -114.158 476.302 -118.456"/></g><g id="node13" class="node"><title>loader-objc-loader.inc</title><polygon fill="none" stroke="#daa520" stroke-width="2" points="693.5 -108 562.5 -108 562.5 -72 699.5 -72 699.5 -102 693.5 -108"/><polyline fill="none" stroke="#daa520" stroke-width="2" points="693.5 -108 693.5 -102"/><polyline fill="none" stroke="#daa520" stroke-width="2" points="699.5 -102 693.5 -102"/><text x="631" y="-86.3" fill="#000" font-family="Times,serif" font-size="14" text-anchor="middle">loader-objc-loader.inc</text></g><g id="edge11" class="edge"><title>Foo.d-&gt;loader-objc-loader.inc</title><path fill="none" stroke="#000" d="M465.2428,-151.8369C493.1903,-141.4109 537.5178,-124.8742 573.3033,-111.5242"/><polygon fill="#000" stroke="#000" points="574.529 -114.803 582.674 -108.028 572.082 -108.244 574.529 -114.803"/></g><g id="node14" class="node"><title>MethodObjCLoader+Foo.m</title><polygon fill="none" stroke="#a020f0" stroke-width="2" points="882.5 -108 717.5 -108 717.5 -72 888.5 -72 888.5 -102 882.5 -108"/><polyline fill="none" stroke="#a020f0" stroke-width="2" points="882.5 -108 882.5 -102"/><polyline fill="none" stroke="#a020f0" stroke-width="2" points="888.5 -102 882.5 -102"/><text x="803" y="-86.3" fill="#000" font-family="Times,serif" font-size="14" text-anchor="middle">MethodObjCLoader+Foo.m</text></g><g id="edge12" class="edge"><title>Foo.d-&gt;MethodObjCLoader+Foo.m</title><path fill="none" stroke="#000" d="M465.1361,-156.6471C515.5986,-146.6929 626.0922,-124.8969 707.0347,-108.9301"/><polygon fill="#000" stroke="#000" points="708.118 -112.284 717.251 -106.915 706.763 -105.416 708.118 -112.284"/></g></g></svg>