<svg xmlns="http://www.w3.org/2000/svg" xmlns:xlink="http://www.w3.org/1999/xlink" width="227pt" height="332pt" viewBox="0 0 226.5 332"><g id="graph0" class="graph" transform="scale(1 1) rotate(0) translate(4 328)"><title>optimizer</title><polygon fill="#fff" stroke="transparent" points="-4 4 -4 -328 222.5 -328 222.5 4 -4 4"/><g id="node1" class="node"><title>libFoo.a</title><polygon fill="none" stroke="#00f" stroke-width="2" points="212.5 -108 156.5 -108 156.5 -72 218.5 -72 218.5 -102 212.5 -108"/><polyline fill="none" stroke="#00f" stroke-width="2" points="212.5 -108 212.5 -102"/><polyline fill="none" stroke="#00f" stroke-width="2" points="218.5 -102 212.5 -102"/><text x="187.5" y="-86.3" fill="#000" font-family="Times,serif" font-size="14" text-anchor="middle">libFoo.a</text></g><g id="node2" class="node"><title>main.m</title><polygon fill="none" stroke="#a020f0" stroke-width="2" points="53 -180 0 -180 0 -144 59 -144 59 -174 53 -180"/><polyline fill="none" stroke="#a020f0" stroke-width="2" points="53 -180 53 -174"/><polyline fill="none" stroke="#a020f0" stroke-width="2" points="59 -174 53 -174"/><text x="29.5" y="-158.3" fill="#000" font-family="Times,serif" font-size="14" text-anchor="middle">main.m</text></g><g id="node3" class="node"><title>myexe</title><polygon fill="none" stroke="#000" points="101.5 -324 98.5 -328 77.5 -328 74.5 -324 47.5 -324 47.5 -288 101.5 -288 101.5 -324"/><text x="74.5" y="-302.3" fill="#000" font-family="Times,serif" font-size="14" text-anchor="middle">myexe</text></g><g id="node4" class="node"><title>src</title><polygon fill="none" stroke="#000" points="56.5 -252 53.5 -256 32.5 -256 29.5 -252 2.5 -252 2.5 -216 56.5 -216 56.5 -252"/><text x="29.5" y="-230.3" fill="#000" font-family="Times,serif" font-size="14" text-anchor="middle">src</text></g><g id="edge1" class="edge"><title>myexe-&gt;src</title><path fill="none" stroke="#000" d="M63.1446,-287.8314C58.0674,-279.7079 51.9773,-269.9637 46.3824,-261.0118"/><polygon fill="#000" stroke="#000" points="49.276 -259.038 41.008 -252.413 43.34 -262.748 49.276 -259.038"/></g><g id="node5" class="node"><title>dependencies</title><polygon fill="none" stroke="#000" points="164 -252 161 -256 140 -256 137 -252 75 -252 75 -216 164 -216 164 -252"/><text x="119.5" y="-230.3" fill="#000" font-family="Times,serif" font-size="14" text-anchor="middle">dependencies</text></g><g id="edge3" class="edge"><title>myexe-&gt;dependencies</title><path fill="none" stroke="#000" d="M85.8554,-287.8314C90.9326,-279.7079 97.0227,-269.9637 102.6176,-261.0118"/><polygon fill="#000" stroke="#000" points="105.66 -262.748 107.992 -252.413 99.724 -259.038 105.66 -262.748"/></g><g id="edge2" class="edge"><title>src-&gt;main.m</title><path fill="none" stroke="#000" d="M29.5,-215.8314C29.5,-208.131 29.5,-198.9743 29.5,-190.4166"/><polygon fill="#000" stroke="#000" points="33 -190.413 29.5 -180.413 26 -190.413 33 -190.413"/></g><g id="node6" class="node"><title>include</title><polygon fill="none" stroke="#000" points="140.5 -180 137.5 -184 116.5 -184 113.5 -180 84.5 -180 84.5 -144 140.5 -144 140.5 -180"/><text x="112.5" y="-158.3" fill="#000" font-family="Times,serif" font-size="14" text-anchor="middle">include</text></g><g id="edge4" class="edge"><title>dependencies-&gt;include</title><path fill="none" stroke="#000" d="M117.7336,-215.8314C116.985,-208.131 116.0947,-198.9743 115.2627,-190.4166"/><polygon fill="#000" stroke="#000" points="118.742 -190.028 114.29 -180.413 111.774 -190.705 118.742 -190.028"/></g><g id="node9" class="node"><title>lib</title><polygon fill="none" stroke="#000" points="213.5 -180 210.5 -184 189.5 -184 186.5 -180 159.5 -180 159.5 -144 213.5 -144 213.5 -180"/><text x="186.5" y="-158.3" fill="#000" font-family="Times,serif" font-size="14" text-anchor="middle">lib</text></g><g id="edge7" class="edge"><title>dependencies-&gt;lib</title><path fill="none" stroke="#000" d="M136.4069,-215.8314C144.2813,-207.3694 153.792,-197.1489 162.4013,-187.8971"/><polygon fill="#000" stroke="#000" points="165.115 -190.118 169.365 -180.413 159.991 -185.35 165.115 -190.118"/></g><g id="node7" class="node"><title>Foo</title><polygon fill="none" stroke="#000" points="138.5 -108 135.5 -112 114.5 -112 111.5 -108 84.5 -108 84.5 -72 138.5 -72 138.5 -108"/><text x="111.5" y="-86.3" fill="#000" font-family="Times,serif" font-size="14" text-anchor="middle">Foo</text></g><g id="edge5" class="edge"><title>include-&gt;Foo</title><path fill="none" stroke="#000" d="M112.2477,-143.8314C112.1407,-136.131 112.0135,-126.9743 111.8947,-118.4166"/><polygon fill="#000" stroke="#000" points="115.394 -118.364 111.756 -108.413 108.395 -118.461 115.394 -118.364"/></g><g id="node8" class="node"><title>dependencies.inc</title><polygon fill="none" stroke="#daa520" stroke-width="2" points="160.5 -36 56.5 -36 56.5 0 166.5 0 166.5 -30 160.5 -36"/><polyline fill="none" stroke="#daa520" stroke-width="2" points="160.5 -36 160.5 -30"/><polyline fill="none" stroke="#daa520" stroke-width="2" points="166.5 -30 160.5 -30"/><text x="111.5" y="-14.3" fill="#000" font-family="Times,serif" font-size="14" text-anchor="middle">dependencies.inc</text></g><g id="edge6" class="edge"><title>Foo-&gt;dependencies.inc</title><path fill="none" stroke="#000" d="M111.5,-71.8314C111.5,-64.131 111.5,-54.9743 111.5,-46.4166"/><polygon fill="#000" stroke="#000" points="115 -46.413 111.5 -36.413 108 -46.413 115 -46.413"/></g><g id="edge8" class="edge"><title>lib-&gt;libFoo.a</title><path fill="none" stroke="#000" d="M186.7523,-143.8314C186.8593,-136.131 186.9865,-126.9743 187.1053,-118.4166"/><polygon fill="#000" stroke="#000" points="190.605 -118.461 187.244 -108.413 183.606 -118.364 190.605 -118.461"/></g></g></svg>