<?xml version="1.0" encoding="UTF-8" standalone="no"?>
<!DOCTYPE svg PUBLIC "-//W3C//DTD SVG 1.1//EN"
 "http://www.w3.org/Graphics/SVG/1.1/DTD/svg11.dtd">
<!-- Generated by graphviz version 2.40.1 (20161225.0304)
 -->
<!-- Title: optimizer Pages: 1 -->
<svg width="897pt" height="260pt"
 viewBox="0.00 0.00 896.50 260.00" xmlns="http://www.w3.org/2000/svg" xmlns:xlink="http://www.w3.org/1999/xlink">
<g id="graph0" class="graph" transform="scale(1 1) rotate(0) translate(4 256)">
<title>optimizer</title>
<polygon fill="#ffffff" stroke="transparent" points="-4,4 -4,-256 892.5,-256 892.5,4 -4,4"/>
<!-- dependencies -->
<g id="node1" class="node">
<title>dependencies</title>
<polygon fill="none" stroke="#000000" points="132.5,-252 129.5,-256 108.5,-256 105.5,-252 43.5,-252 43.5,-216 132.5,-216 132.5,-252"/>
<text text-anchor="middle" x="88" y="-230.3" font-family="Times,serif" font-size="14.00" fill="#000000">dependencies</text>
</g>
<!-- include -->
<g id="node2" class="node">
<title>include</title>
<polygon fill="none" stroke="#000000" points="78,-180 75,-184 54,-184 51,-180 22,-180 22,-144 78,-144 78,-180"/>
<text text-anchor="middle" x="50" y="-158.3" font-family="Times,serif" font-size="14.00" fill="#000000">include</text>
</g>
<!-- dependencies&#45;&gt;include -->
<g id="edge1" class="edge">
<title>dependencies&#45;&gt;include</title>
<path fill="none" stroke="#000000" d="M78.411,-215.8314C74.1683,-207.7925 69.0879,-198.1666 64.404,-189.2918"/>
<polygon fill="#000000" stroke="#000000" points="67.4811,-187.6235 59.7181,-180.4133 61.2904,-190.8908 67.4811,-187.6235"/>
</g>
<!-- lib -->
<g id="node5" class="node">
<title>lib</title>
<polygon fill="none" stroke="#000000" points="151,-180 148,-184 127,-184 124,-180 97,-180 97,-144 151,-144 151,-180"/>
<text text-anchor="middle" x="124" y="-158.3" font-family="Times,serif" font-size="14.00" fill="#000000">lib</text>
</g>
<!-- dependencies&#45;&gt;lib -->
<g id="edge4" class="edge">
<title>dependencies&#45;&gt;lib</title>
<path fill="none" stroke="#000000" d="M97.0843,-215.8314C101.0615,-207.8771 105.8155,-198.369 110.2139,-189.5723"/>
<polygon fill="#000000" stroke="#000000" points="113.4517,-190.9228 114.7934,-180.4133 107.1907,-187.7923 113.4517,-190.9228"/>
</g>
<!-- Foo -->
<g id="node3" class="node">
<title>Foo</title>
<polygon fill="none" stroke="#000000" points="76,-108 73,-112 52,-112 49,-108 22,-108 22,-72 76,-72 76,-108"/>
<text text-anchor="middle" x="49" y="-86.3" font-family="Times,serif" font-size="14.00" fill="#000000">Foo</text>
</g>
<!-- include&#45;&gt;Foo -->
<g id="edge2" class="edge">
<title>include&#45;&gt;Foo</title>
<path fill="none" stroke="#000000" d="M49.7477,-143.8314C49.6407,-136.131 49.5135,-126.9743 49.3947,-118.4166"/>
<polygon fill="#000000" stroke="#000000" points="52.8944,-118.3637 49.2557,-108.4133 45.8951,-118.4609 52.8944,-118.3637"/>
</g>
<!-- objc&#45;loader.inc -->
<g id="node4" class="node">
<title>objc&#45;loader.inc</title>
<polygon fill="none" stroke="#daa520" stroke-width="2" points="92,-36 0,-36 0,0 98,0 98,-30 92,-36"/>
<polyline fill="none" stroke="#daa520" stroke-width="2" points="92,-36 92,-30 "/>
<polyline fill="none" stroke="#daa520" stroke-width="2" points="98,-30 92,-30 "/>
<text text-anchor="middle" x="49" y="-14.3" font-family="Times,serif" font-size="14.00" fill="#000000">objc&#45;loader.inc</text>
</g>
<!-- Foo&#45;&gt;objc&#45;loader.inc -->
<g id="edge3" class="edge">
<title>Foo&#45;&gt;objc&#45;loader.inc</title>
<path fill="none" stroke="#000000" d="M49,-71.8314C49,-64.131 49,-54.9743 49,-46.4166"/>
<polygon fill="#000000" stroke="#000000" points="52.5001,-46.4132 49,-36.4133 45.5001,-46.4133 52.5001,-46.4132"/>
</g>
<!-- libFoo.a -->
<g id="node6" class="node">
<title>libFoo.a</title>
<polygon fill="none" stroke="#0000ff" stroke-width="2" points="150,-108 94,-108 94,-72 156,-72 156,-102 150,-108"/>
<polyline fill="none" stroke="#0000ff" stroke-width="2" points="150,-108 150,-102 "/>
<polyline fill="none" stroke="#0000ff" stroke-width="2" points="156,-102 150,-102 "/>
<text text-anchor="middle" x="125" y="-86.3" font-family="Times,serif" font-size="14.00" fill="#000000">libFoo.a</text>
</g>
<!-- lib&#45;&gt;libFoo.a -->
<g id="edge5" class="edge">
<title>lib&#45;&gt;libFoo.a</title>
<path fill="none" stroke="#000000" d="M124.2523,-143.8314C124.3593,-136.131 124.4865,-126.9743 124.6053,-118.4166"/>
<polygon fill="#000000" stroke="#000000" points="128.1049,-118.4609 124.7443,-108.4133 121.1056,-118.3637 128.1049,-118.4609"/>
</g>
<!-- unarchive -->
<g id="node7" class="node">
<title>unarchive</title>
<polygon fill="none" stroke="#000000" points="473,-252 470,-256 449,-256 446,-252 403,-252 403,-216 473,-216 473,-252"/>
<text text-anchor="middle" x="438" y="-230.3" font-family="Times,serif" font-size="14.00" fill="#000000">unarchive</text>
</g>
<!-- Foo.d -->
<g id="node8" class="node">
<title>Foo.d</title>
<polygon fill="none" stroke="#000000" points="465,-180 462,-184 441,-184 438,-180 411,-180 411,-144 465,-144 465,-180"/>
<text text-anchor="middle" x="438" y="-158.3" font-family="Times,serif" font-size="14.00" fill="#000000">Foo.d</text>
</g>
<!-- unarchive&#45;&gt;Foo.d -->
<g id="edge6" class="edge">
<title>unarchive&#45;&gt;Foo.d</title>
<path fill="none" stroke="#000000" d="M438,-215.8314C438,-208.131 438,-198.9743 438,-190.4166"/>
<polygon fill="#000000" stroke="#000000" points="441.5001,-190.4132 438,-180.4133 434.5001,-190.4133 441.5001,-190.4132"/>
</g>
<!-- Foo.o -->
<g id="node9" class="node">
<title>Foo.o</title>
<polygon fill="none" stroke="#000000" points="222,-108 174,-108 174,-72 228,-72 228,-102 222,-108"/>
<polyline fill="none" stroke="#000000" points="222,-108 222,-102 "/>
<polyline fill="none" stroke="#000000" points="228,-102 222,-102 "/>
<text text-anchor="middle" x="201" y="-86.3" font-family="Times,serif" font-size="14.00" fill="#000000">Foo.o</text>
</g>
<!-- Foo.d&#45;&gt;Foo.o -->
<g id="edge7" class="edge">
<title>Foo.d&#45;&gt;Foo.o</title>
<path fill="none" stroke="#000000" d="M410.796,-156.5169C373.4776,-148.6074 304.3399,-132.5667 238.0219,-108.024"/>
<polygon fill="#000000" stroke="#000000" points="238.8536,-104.597 228.2619,-104.3412 236.3823,-111.1462 238.8536,-104.597"/>
</g>
<!-- Foo+Bar.o -->
<g id="node10" class="node">
<title>Foo+Bar.o</title>
<polygon fill="none" stroke="#000000" points="316,-108 246,-108 246,-72 322,-72 322,-102 316,-108"/>
<polyline fill="none" stroke="#000000" points="316,-108 316,-102 "/>
<polyline fill="none" stroke="#000000" points="322,-102 316,-102 "/>
<text text-anchor="middle" x="284" y="-86.3" font-family="Times,serif" font-size="14.00" fill="#000000">Foo+Bar.o</text>
</g>
<!-- Foo.d&#45;&gt;Foo+Bar.o -->
<g id="edge8" class="edge">
<title>Foo.d&#45;&gt;Foo+Bar.o</title>
<path fill="none" stroke="#000000" d="M410.8224,-149.2936C388.9047,-139.0464 357.5489,-124.3865 331.4998,-112.2077"/>
<polygon fill="#000000" stroke="#000000" points="332.7114,-108.9106 322.1702,-107.8458 329.7466,-115.2517 332.7114,-108.9106"/>
</g>
<!-- class_db.csv -->
<g id="node11" class="node">
<title>class_db.csv</title>
<polygon fill="none" stroke="#2e8b57" stroke-width="2" points="419.5,-108 340.5,-108 340.5,-72 425.5,-72 425.5,-102 419.5,-108"/>
<polyline fill="none" stroke="#2e8b57" stroke-width="2" points="419.5,-108 419.5,-102 "/>
<polyline fill="none" stroke="#2e8b57" stroke-width="2" points="425.5,-102 419.5,-102 "/>
<text text-anchor="middle" x="383" y="-86.3" font-family="Times,serif" font-size="14.00" fill="#000000">class_db.csv</text>
</g>
<!-- Foo.d&#45;&gt;class_db.csv -->
<g id="edge9" class="edge">
<title>Foo.d&#45;&gt;class_db.csv</title>
<path fill="none" stroke="#000000" d="M424.1212,-143.8314C417.7864,-135.5386 410.1616,-125.557 403.2074,-116.4533"/>
<polygon fill="#000000" stroke="#000000" points="405.9175,-114.2353 397.0657,-108.4133 400.3548,-118.4847 405.9175,-114.2353"/>
</g>
<!-- method_db.csv -->
<g id="node12" class="node">
<title>method_db.csv</title>
<polygon fill="none" stroke="#2e8b57" stroke-width="2" points="538,-108 444,-108 444,-72 544,-72 544,-102 538,-108"/>
<polyline fill="none" stroke="#2e8b57" stroke-width="2" points="538,-108 538,-102 "/>
<polyline fill="none" stroke="#2e8b57" stroke-width="2" points="544,-102 538,-102 "/>
<text text-anchor="middle" x="494" y="-86.3" font-family="Times,serif" font-size="14.00" fill="#000000">method_db.csv</text>
</g>
<!-- Foo.d&#45;&gt;method_db.csv -->
<g id="edge10" class="edge">
<title>Foo.d&#45;&gt;method_db.csv</title>
<path fill="none" stroke="#000000" d="M452.1312,-143.8314C458.5811,-135.5386 466.3445,-125.557 473.4252,-116.4533"/>
<polygon fill="#000000" stroke="#000000" points="476.3019,-118.4556 479.6786,-108.4133 470.7764,-114.158 476.3019,-118.4556"/>
</g>
<!-- loader&#45;objc&#45;loader.inc -->
<g id="node13" class="node">
<title>loader&#45;objc&#45;loader.inc</title>
<polygon fill="none" stroke="#daa520" stroke-width="2" points="693.5,-108 562.5,-108 562.5,-72 699.5,-72 699.5,-102 693.5,-108"/>
<polyline fill="none" stroke="#daa520" stroke-width="2" points="693.5,-108 693.5,-102 "/>
<polyline fill="none" stroke="#daa520" stroke-width="2" points="699.5,-102 693.5,-102 "/>
<text text-anchor="middle" x="631" y="-86.3" font-family="Times,serif" font-size="14.00" fill="#000000">loader&#45;objc&#45;loader.inc</text>
</g>
<!-- Foo.d&#45;&gt;loader&#45;objc&#45;loader.inc -->
<g id="edge11" class="edge">
<title>Foo.d&#45;&gt;loader&#45;objc&#45;loader.inc</title>
<path fill="none" stroke="#000000" d="M465.2428,-151.8369C493.1903,-141.4109 537.5178,-124.8742 573.3033,-111.5242"/>
<polygon fill="#000000" stroke="#000000" points="574.5285,-114.8028 582.6744,-108.0282 572.0818,-108.2443 574.5285,-114.8028"/>
</g>
<!-- MethodObjCLoader+Foo.m -->
<g id="node14" class="node">
<title>MethodObjCLoader+Foo.m</title>
<polygon fill="none" stroke="#a020f0" stroke-width="2" points="882.5,-108 717.5,-108 717.5,-72 888.5,-72 888.5,-102 882.5,-108"/>
<polyline fill="none" stroke="#a020f0" stroke-width="2" points="882.5,-108 882.5,-102 "/>
<polyline fill="none" stroke="#a020f0" stroke-width="2" points="888.5,-102 882.5,-102 "/>
<text text-anchor="middle" x="803" y="-86.3" font-family="Times,serif" font-size="14.00" fill="#000000">MethodObjCLoader+Foo.m</text>
</g>
<!-- Foo.d&#45;&gt;MethodObjCLoader+Foo.m -->
<g id="edge12" class="edge">
<title>Foo.d&#45;&gt;MethodObjCLoader+Foo.m</title>
<path fill="none" stroke="#000000" d="M465.1361,-156.6471C515.5986,-146.6929 626.0922,-124.8969 707.0347,-108.9301"/>
<polygon fill="#000000" stroke="#000000" points="708.1177,-112.284 717.2512,-106.9148 706.7629,-105.4164 708.1177,-112.284"/>
</g>
</g>
</svg>
