<?xml version="1.0" encoding="UTF-8" standalone="no"?>
<!DOCTYPE svg PUBLIC "-//W3C//DTD SVG 1.1//EN"
 "http://www.w3.org/Graphics/SVG/1.1/DTD/svg11.dtd">
<!-- Generated by graphviz version 2.34.0 (20131231.1455)
 -->
<!-- Title: optimizer Pages: 1 -->
<svg width="1079pt" height="188pt"
 viewBox="0.00 0.00 1079.00 188.00" xmlns="http://www.w3.org/2000/svg" xmlns:xlink="http://www.w3.org/1999/xlink">
<g id="graph0" class="graph" transform="scale(1 1) rotate(0) translate(4 184)">
<title>optimizer</title>
<polygon fill="white" stroke="white" points="-4,4 -4,-184 1075,-184 1075,4 -4,4"/>
<!-- unarchive -->
<g id="node1" class="node"><title>unarchive</title>
<polygon fill="none" stroke="black" points="262.394,-180 259.394,-184 238.394,-184 235.394,-180 191.606,-180 191.606,-144 262.394,-144 262.394,-180"/>
<text text-anchor="middle" x="227" y="-156.4" font-family="Times,serif" font-size="14.00">unarchive</text>
</g>
<!-- Foo.d -->
<g id="node2" class="node"><title>Foo.d</title>
<polygon fill="none" stroke="black" points="254,-108 251,-112 230,-112 227,-108 200,-108 200,-72 254,-72 254,-108"/>
<text text-anchor="middle" x="227" y="-84.4" font-family="Times,serif" font-size="14.00">Foo.d</text>
</g>
<!-- unarchive&#45;&gt;Foo.d -->
<g id="edge1" class="edge"><title>unarchive&#45;&gt;Foo.d</title>
<path fill="none" stroke="black" d="M227,-143.697C227,-135.983 227,-126.712 227,-118.112"/>
<polygon fill="black" stroke="black" points="230.5,-118.104 227,-108.104 223.5,-118.104 230.5,-118.104"/>
</g>
<!-- class_db.csv -->
<g id="node3" class="node"><title>class_db.csv</title>
<polygon fill="none" stroke="seagreen" stroke-width="2" points="80.2824,-36 -0.282393,-36 -0.282393,-0 86.2824,-0 86.2824,-30 80.2824,-36"/>
<polyline fill="none" stroke="seagreen" stroke-width="2" points="80.2824,-36 80.2824,-30 "/>
<polyline fill="none" stroke="seagreen" stroke-width="2" points="86.2824,-30 80.2824,-30 "/>
<text text-anchor="middle" x="43" y="-12.4" font-family="Times,serif" font-size="14.00">class_db.csv</text>
</g>
<!-- Foo.d&#45;&gt;class_db.csv -->
<g id="edge2" class="edge"><title>Foo.d&#45;&gt;class_db.csv</title>
<path fill="none" stroke="black" d="M199.85,-78.6713C172.646,-68.3217 130.049,-52.1164 96.1075,-39.2039"/>
<polygon fill="black" stroke="black" points="96.9234,-35.7697 86.3324,-35.4852 94.4344,-42.3122 96.9234,-35.7697"/>
</g>
<!-- method_db.csv -->
<g id="node4" class="node"><title>method_db.csv</title>
<polygon fill="none" stroke="seagreen" stroke-width="2" points="199.366,-36 104.634,-36 104.634,-0 205.366,-0 205.366,-30 199.366,-36"/>
<polyline fill="none" stroke="seagreen" stroke-width="2" points="199.366,-36 199.366,-30 "/>
<polyline fill="none" stroke="seagreen" stroke-width="2" points="205.366,-30 199.366,-30 "/>
<text text-anchor="middle" x="155" y="-12.4" font-family="Times,serif" font-size="14.00">method_db.csv</text>
</g>
<!-- Foo.d&#45;&gt;method_db.csv -->
<g id="edge3" class="edge"><title>Foo.d&#45;&gt;method_db.csv</title>
<path fill="none" stroke="black" d="M209.202,-71.6966C200.396,-63.135 189.618,-52.6562 179.999,-43.3045"/>
<polygon fill="black" stroke="black" points="182.203,-40.5657 172.593,-36.1043 177.323,-45.5846 182.203,-40.5657"/>
</g>
<!-- loader&#45;dependencies.inc -->
<g id="node5" class="node"><title>loader&#45;dependencies.inc</title>
<polygon fill="none" stroke="goldenrod" stroke-width="2" points="368.534,-36 223.466,-36 223.466,-0 374.534,-0 374.534,-30 368.534,-36"/>
<polyline fill="none" stroke="goldenrod" stroke-width="2" points="368.534,-36 368.534,-30 "/>
<polyline fill="none" stroke="goldenrod" stroke-width="2" points="374.534,-30 368.534,-30 "/>
<text text-anchor="middle" x="299" y="-12.4" font-family="Times,serif" font-size="14.00">loader&#45;dependencies.inc</text>
</g>
<!-- Foo.d&#45;&gt;loader&#45;dependencies.inc -->
<g id="edge4" class="edge"><title>Foo.d&#45;&gt;loader&#45;dependencies.inc</title>
<path fill="none" stroke="black" d="M244.798,-71.6966C253.604,-63.135 264.382,-52.6562 274.001,-43.3045"/>
<polygon fill="black" stroke="black" points="276.677,-45.5846 281.407,-36.1043 271.797,-40.5657 276.677,-45.5846"/>
</g>
<!-- MulleObjCLoader+Foo.m -->
<g id="node6" class="node"><title>MulleObjCLoader+Foo.m</title>
<polygon fill="none" stroke="black" stroke-width="2" points="549.619,-36 392.381,-36 392.381,-0 555.619,-0 555.619,-30 549.619,-36"/>
<polyline fill="none" stroke="black" stroke-width="2" points="549.619,-36 549.619,-30 "/>
<polyline fill="none" stroke="black" stroke-width="2" points="555.619,-30 549.619,-30 "/>
<text text-anchor="middle" x="474" y="-12.4" font-family="Times,serif" font-size="14.00">MulleObjCLoader+Foo.m</text>
</g>
<!-- Foo.d&#45;&gt;MulleObjCLoader+Foo.m -->
<g id="edge5" class="edge"><title>Foo.d&#45;&gt;MulleObjCLoader+Foo.m</title>
<path fill="none" stroke="black" d="M254.377,-81.2413C290.174,-71.0963 354.169,-52.9602 403.878,-38.8727"/>
<polygon fill="black" stroke="black" points="404.95,-42.2068 413.617,-36.1127 403.041,-35.472 404.95,-42.2068"/>
</g>
<!-- optimize -->
<g id="node7" class="node"><title>optimize</title>
<polygon fill="none" stroke="black" points="734.24,-180 731.24,-184 710.24,-184 707.24,-180 669.76,-180 669.76,-144 734.24,-144 734.24,-180"/>
<text text-anchor="middle" x="702" y="-156.4" font-family="Times,serif" font-size="14.00">optimize</text>
</g>
<!-- class&#45;coverage.csv -->
<g id="node8" class="node"><title>class&#45;coverage.csv</title>
<polygon fill="none" stroke="seagreen" stroke-width="2" points="609.918,-108 496.082,-108 496.082,-72 615.918,-72 615.918,-102 609.918,-108"/>
<polyline fill="none" stroke="seagreen" stroke-width="2" points="609.918,-108 609.918,-102 "/>
<polyline fill="none" stroke="seagreen" stroke-width="2" points="615.918,-102 609.918,-102 "/>
<text text-anchor="middle" x="556" y="-84.4" font-family="Times,serif" font-size="14.00">class&#45;coverage.csv</text>
</g>
<!-- optimize&#45;&gt;class&#45;coverage.csv -->
<g id="edge6" class="edge"><title>optimize&#45;&gt;class&#45;coverage.csv</title>
<path fill="none" stroke="black" d="M669.598,-145.465C649.383,-135.773 623.078,-123.161 600.873,-112.514"/>
<polygon fill="black" stroke="black" points="602.167,-109.253 591.637,-108.086 599.141,-115.566 602.167,-109.253"/>
</g>
<!-- method&#45;coverage.csv -->
<g id="node9" class="node"><title>method&#45;coverage.csv</title>
<polygon fill="none" stroke="seagreen" stroke-width="2" points="763.501,-108 634.499,-108 634.499,-72 769.501,-72 769.501,-102 763.501,-108"/>
<polyline fill="none" stroke="seagreen" stroke-width="2" points="763.501,-108 763.501,-102 "/>
<polyline fill="none" stroke="seagreen" stroke-width="2" points="769.501,-102 763.501,-102 "/>
<text text-anchor="middle" x="702" y="-84.4" font-family="Times,serif" font-size="14.00">method&#45;coverage.csv</text>
</g>
<!-- optimize&#45;&gt;method&#45;coverage.csv -->
<g id="edge7" class="edge"><title>optimize&#45;&gt;method&#45;coverage.csv</title>
<path fill="none" stroke="black" d="M702,-143.697C702,-135.983 702,-126.712 702,-118.112"/>
<polygon fill="black" stroke="black" points="705.5,-118.104 702,-108.104 698.5,-118.104 705.5,-118.104"/>
</g>
<!-- Foo2.d -->
<g id="node10" class="node"><title>Foo2.d</title>
<polygon fill="none" stroke="black" points="842,-108 839,-112 818,-112 815,-108 788,-108 788,-72 842,-72 842,-108"/>
<text text-anchor="middle" x="815" y="-84.4" font-family="Times,serif" font-size="14.00">Foo.d</text>
</g>
<!-- optimize&#45;&gt;Foo2.d -->
<g id="edge8" class="edge"><title>optimize&#45;&gt;Foo2.d</title>
<path fill="none" stroke="black" d="M729.643,-143.876C744.528,-134.655 763.066,-123.172 779.059,-113.265"/>
<polygon fill="black" stroke="black" points="780.985,-116.189 787.642,-107.947 777.298,-110.238 780.985,-116.189"/>
</g>
<!-- class&#45;dependencies.inc -->
<g id="node11" class="node"><title>class&#45;dependencies.inc</title>
<polygon fill="none" stroke="goldenrod" stroke-width="2" points="711.415,-36 574.585,-36 574.585,-0 717.415,-0 717.415,-30 711.415,-36"/>
<polyline fill="none" stroke="goldenrod" stroke-width="2" points="711.415,-36 711.415,-30 "/>
<polyline fill="none" stroke="goldenrod" stroke-width="2" points="717.415,-30 711.415,-30 "/>
<text text-anchor="middle" x="646" y="-12.4" font-family="Times,serif" font-size="14.00">class&#45;dependencies.inc</text>
</g>
<!-- Foo2.d&#45;&gt;class&#45;dependencies.inc -->
<g id="edge9" class="edge"><title>Foo2.d&#45;&gt;class&#45;dependencies.inc</title>
<path fill="none" stroke="black" d="M787.99,-76.4055C784.637,-74.8964 781.247,-73.3968 778,-72 752.266,-60.9296 723.419,-49.2632 699.271,-39.7027"/>
<polygon fill="black" stroke="black" points="700.508,-36.4283 689.921,-36.0131 697.938,-42.9396 700.508,-36.4283"/>
</g>
<!-- method&#45;dependencies.inc -->
<g id="node12" class="node"><title>method&#45;dependencies.inc</title>
<polygon fill="none" stroke="goldenrod" stroke-width="2" points="888,-36 736,-36 736,-0 894,-0 894,-30 888,-36"/>
<polyline fill="none" stroke="goldenrod" stroke-width="2" points="888,-36 888,-30 "/>
<polyline fill="none" stroke="goldenrod" stroke-width="2" points="894,-30 888,-30 "/>
<text text-anchor="middle" x="815" y="-12.4" font-family="Times,serif" font-size="14.00">method&#45;dependencies.inc</text>
</g>
<!-- Foo2.d&#45;&gt;method&#45;dependencies.inc -->
<g id="edge10" class="edge"><title>Foo2.d&#45;&gt;method&#45;dependencies.inc</title>
<path fill="none" stroke="black" d="M815,-71.6966C815,-63.9827 815,-54.7125 815,-46.1124"/>
<polygon fill="black" stroke="black" points="818.5,-46.1043 815,-36.1043 811.5,-46.1044 818.5,-46.1043"/>
</g>
<!-- MulleObjCLoader+Foo.o -->
<g id="node13" class="node"><title>MulleObjCLoader+Foo.o</title>
<polygon fill="none" stroke="blue" stroke-width="2" points="1065.2,-36 912.797,-36 912.797,-0 1071.2,-0 1071.2,-30 1065.2,-36"/>
<polyline fill="none" stroke="blue" stroke-width="2" points="1065.2,-36 1065.2,-30 "/>
<polyline fill="none" stroke="blue" stroke-width="2" points="1071.2,-30 1065.2,-30 "/>
<text text-anchor="middle" x="992" y="-12.4" font-family="Times,serif" font-size="14.00">MulleObjCLoader+Foo.o</text>
</g>
<!-- Foo2.d&#45;&gt;MulleObjCLoader+Foo.o -->
<g id="edge11" class="edge"><title>Foo2.d&#45;&gt;MulleObjCLoader+Foo.o</title>
<path fill="none" stroke="black" d="M842.268,-78.2159C868.018,-68.0326 907.331,-52.4849 939.214,-39.8758"/>
<polygon fill="black" stroke="black" points="940.835,-42.9986 948.847,-36.0662 938.26,-36.4892 940.835,-42.9986"/>
</g>
</g>
</svg>
