<?xml version="1.0" encoding="UTF-8" standalone="no"?>
<!DOCTYPE svg PUBLIC "-//W3C//DTD SVG 1.1//EN"
 "http://www.w3.org/Graphics/SVG/1.1/DTD/svg11.dtd">
<!-- Generated by graphviz version 2.40.1 (20161225.0304)
 -->
<!-- Title: optimizer Pages: 1 -->
<svg width="957pt" height="188pt"
 viewBox="0.00 0.00 956.50 188.00" xmlns="http://www.w3.org/2000/svg" xmlns:xlink="http://www.w3.org/1999/xlink">
<g id="graph0" class="graph" transform="scale(1 1) rotate(0) translate(4 184)">
<title>optimizer</title>
<polygon fill="#ffffff" stroke="transparent" points="-4,4 -4,-184 952.5,-184 952.5,4 -4,4"/>
<!-- unarchive -->
<g id="node1" class="node">
<title>unarchive</title>
<polygon fill="none" stroke="#000000" points="198,-180 195,-184 174,-184 171,-180 128,-180 128,-144 198,-144 198,-180"/>
<text text-anchor="middle" x="163" y="-158.3" font-family="Times,serif" font-size="14.00" fill="#000000">unarchive</text>
</g>
<!-- Foo.d -->
<g id="node2" class="node">
<title>Foo.d</title>
<polygon fill="none" stroke="#000000" points="184,-108 136,-108 136,-72 190,-72 190,-102 184,-108"/>
<polyline fill="none" stroke="#000000" points="184,-108 184,-102 "/>
<polyline fill="none" stroke="#000000" points="190,-102 184,-102 "/>
<text text-anchor="middle" x="163" y="-86.3" font-family="Times,serif" font-size="14.00" fill="#000000">Foo.d</text>
</g>
<!-- unarchive&#45;&gt;Foo.d -->
<g id="edge1" class="edge">
<title>unarchive&#45;&gt;Foo.d</title>
<path fill="none" stroke="#000000" d="M163,-143.8314C163,-136.131 163,-126.9743 163,-118.4166"/>
<polygon fill="#000000" stroke="#000000" points="166.5001,-118.4132 163,-108.4133 159.5001,-118.4133 166.5001,-118.4132"/>
</g>
<!-- Foo.o -->
<g id="node3" class="node">
<title>Foo.o</title>
<polygon fill="none" stroke="#000000" points="48,-36 0,-36 0,0 54,0 54,-30 48,-36"/>
<polyline fill="none" stroke="#000000" points="48,-36 48,-30 "/>
<polyline fill="none" stroke="#000000" points="54,-30 48,-30 "/>
<text text-anchor="middle" x="27" y="-14.3" font-family="Times,serif" font-size="14.00" fill="#000000">Foo.o</text>
</g>
<!-- Foo.d&#45;&gt;Foo.o -->
<g id="edge2" class="edge">
<title>Foo.d&#45;&gt;Foo.o</title>
<path fill="none" stroke="#000000" d="M135.8052,-75.6028C114.9576,-64.5658 85.99,-49.23 63.1853,-37.1569"/>
<polygon fill="#000000" stroke="#000000" points="64.6231,-33.9579 54.1476,-32.3723 61.3479,-40.1445 64.6231,-33.9579"/>
</g>
<!-- Foo+Bar.o -->
<g id="node4" class="node">
<title>Foo+Bar.o</title>
<polygon fill="none" stroke="#000000" points="142,-36 72,-36 72,0 148,0 148,-30 142,-36"/>
<polyline fill="none" stroke="#000000" points="142,-36 142,-30 "/>
<polyline fill="none" stroke="#000000" points="148,-30 142,-30 "/>
<text text-anchor="middle" x="110" y="-14.3" font-family="Times,serif" font-size="14.00" fill="#000000">Foo+Bar.o</text>
</g>
<!-- Foo.d&#45;&gt;Foo+Bar.o -->
<g id="edge3" class="edge">
<title>Foo.d&#45;&gt;Foo+Bar.o</title>
<path fill="none" stroke="#000000" d="M149.6259,-71.8314C143.5838,-63.6232 136.3237,-53.7606 129.6779,-44.7323"/>
<polygon fill="#000000" stroke="#000000" points="132.3011,-42.3918 123.5542,-36.4133 126.6637,-46.5415 132.3011,-42.3918"/>
</g>
<!-- method_db.csv -->
<g id="node5" class="node">
<title>method_db.csv</title>
<polygon fill="none" stroke="#2e8b57" stroke-width="2" points="260,-36 166,-36 166,0 266,0 266,-30 260,-36"/>
<polyline fill="none" stroke="#2e8b57" stroke-width="2" points="260,-36 260,-30 "/>
<polyline fill="none" stroke="#2e8b57" stroke-width="2" points="266,-30 260,-30 "/>
<text text-anchor="middle" x="216" y="-14.3" font-family="Times,serif" font-size="14.00" fill="#000000">method_db.csv</text>
</g>
<!-- Foo.d&#45;&gt;method_db.csv -->
<g id="edge4" class="edge">
<title>Foo.d&#45;&gt;method_db.csv</title>
<path fill="none" stroke="#000000" d="M176.3741,-71.8314C182.4162,-63.6232 189.6763,-53.7606 196.3221,-44.7323"/>
<polygon fill="#000000" stroke="#000000" points="199.3363,-46.5415 202.4458,-36.4133 193.6989,-42.3918 199.3363,-46.5415"/>
</g>
<!-- class_db.csv -->
<g id="node6" class="node">
<title>class_db.csv</title>
<polygon fill="none" stroke="#2e8b57" stroke-width="2" points="363.5,-36 284.5,-36 284.5,0 369.5,0 369.5,-30 363.5,-36"/>
<polyline fill="none" stroke="#2e8b57" stroke-width="2" points="363.5,-36 363.5,-30 "/>
<polyline fill="none" stroke="#2e8b57" stroke-width="2" points="369.5,-30 363.5,-30 "/>
<text text-anchor="middle" x="327" y="-14.3" font-family="Times,serif" font-size="14.00" fill="#000000">class_db.csv</text>
</g>
<!-- Foo.d&#45;&gt;class_db.csv -->
<g id="edge5" class="edge">
<title>Foo.d&#45;&gt;class_db.csv</title>
<path fill="none" stroke="#000000" d="M190.0813,-78.1107C213.4583,-67.8476 247.8563,-52.746 276.3254,-40.2474"/>
<polygon fill="#000000" stroke="#000000" points="277.9789,-43.344 285.7284,-36.1193 275.1649,-36.9345 277.9789,-43.344"/>
</g>
<!-- optimize -->
<g id="node7" class="node">
<title>optimize</title>
<polygon fill="none" stroke="#000000" points="746.5,-180 743.5,-184 722.5,-184 719.5,-180 681.5,-180 681.5,-144 746.5,-144 746.5,-180"/>
<text text-anchor="middle" x="714" y="-158.3" font-family="Times,serif" font-size="14.00" fill="#000000">optimize</text>
</g>
<!-- Foo2.d -->
<g id="node8" class="node">
<title>Foo2.d</title>
<polygon fill="none" stroke="#000000" points="493,-108 490,-112 469,-112 466,-108 439,-108 439,-72 493,-72 493,-108"/>
<text text-anchor="middle" x="466" y="-86.3" font-family="Times,serif" font-size="14.00" fill="#000000">Foo.d</text>
</g>
<!-- optimize&#45;&gt;Foo2.d -->
<g id="edge6" class="edge">
<title>optimize&#45;&gt;Foo2.d</title>
<path fill="none" stroke="#000000" d="M681.379,-155.956C641.0739,-148.0016 570.4621,-132.4767 502.7754,-107.9069"/>
<polygon fill="#000000" stroke="#000000" points="503.8405,-104.5691 493.2473,-104.3798 501.4103,-111.1338 503.8405,-104.5691"/>
</g>
<!-- class&#45;coverage.csv -->
<g id="node10" class="node">
<title>class&#45;coverage.csv</title>
<polygon fill="none" stroke="#2e8b57" stroke-width="2" points="623,-108 511,-108 511,-72 629,-72 629,-102 623,-108"/>
<polyline fill="none" stroke="#2e8b57" stroke-width="2" points="623,-108 623,-102 "/>
<polyline fill="none" stroke="#2e8b57" stroke-width="2" points="629,-102 623,-102 "/>
<text text-anchor="middle" x="570" y="-86.3" font-family="Times,serif" font-size="14.00" fill="#000000">class&#45;coverage.csv</text>
</g>
<!-- optimize&#45;&gt;class&#45;coverage.csv -->
<g id="edge8" class="edge">
<title>optimize&#45;&gt;class&#45;coverage.csv</title>
<path fill="none" stroke="#000000" d="M681.3242,-145.6621C661.72,-135.86 636.5051,-123.2526 615.0314,-112.5157"/>
<polygon fill="#000000" stroke="#000000" points="616.5942,-109.384 606.0847,-108.0423 613.4637,-115.645 616.5942,-109.384"/>
</g>
<!-- method&#45;coverage.csv -->
<g id="node11" class="node">
<title>method&#45;coverage.csv</title>
<polygon fill="none" stroke="#2e8b57" stroke-width="2" points="774.5,-108 647.5,-108 647.5,-72 780.5,-72 780.5,-102 774.5,-108"/>
<polyline fill="none" stroke="#2e8b57" stroke-width="2" points="774.5,-108 774.5,-102 "/>
<polyline fill="none" stroke="#2e8b57" stroke-width="2" points="780.5,-102 774.5,-102 "/>
<text text-anchor="middle" x="714" y="-86.3" font-family="Times,serif" font-size="14.00" fill="#000000">method&#45;coverage.csv</text>
</g>
<!-- optimize&#45;&gt;method&#45;coverage.csv -->
<g id="edge9" class="edge">
<title>optimize&#45;&gt;method&#45;coverage.csv</title>
<path fill="none" stroke="#000000" d="M714,-143.8314C714,-136.131 714,-126.9743 714,-118.4166"/>
<polygon fill="#000000" stroke="#000000" points="717.5001,-118.4132 714,-108.4133 710.5001,-118.4133 717.5001,-118.4132"/>
</g>
<!-- lib_c.a -->
<g id="node12" class="node">
<title>lib_c.a</title>
<polygon fill="none" stroke="#0000ff" stroke-width="2" points="847,-108 799,-108 799,-72 853,-72 853,-102 847,-108"/>
<polyline fill="none" stroke="#0000ff" stroke-width="2" points="847,-108 847,-102 "/>
<polyline fill="none" stroke="#0000ff" stroke-width="2" points="853,-102 847,-102 "/>
<text text-anchor="middle" x="826" y="-86.3" font-family="Times,serif" font-size="14.00" fill="#000000">lib_c.a</text>
</g>
<!-- optimize&#45;&gt;lib_c.a -->
<g id="edge10" class="edge">
<title>optimize&#45;&gt;lib_c.a</title>
<path fill="none" stroke="#000000" d="M742.2623,-143.8314C756.7802,-134.4984 774.6255,-123.0264 790.1068,-113.0742"/>
<polygon fill="#000000" stroke="#000000" points="792.3866,-115.7695 798.9058,-107.4177 788.6013,-109.8812 792.3866,-115.7695"/>
</g>
<!-- lib_ObjC.a -->
<g id="node13" class="node">
<title>lib_ObjC.a</title>
<polygon fill="none" stroke="#0000ff" stroke-width="2" points="942.5,-108 871.5,-108 871.5,-72 948.5,-72 948.5,-102 942.5,-108"/>
<polyline fill="none" stroke="#0000ff" stroke-width="2" points="942.5,-108 942.5,-102 "/>
<polyline fill="none" stroke="#0000ff" stroke-width="2" points="948.5,-102 942.5,-102 "/>
<text text-anchor="middle" x="910" y="-86.3" font-family="Times,serif" font-size="14.00" fill="#000000">lib_ObjC.a</text>
</g>
<!-- optimize&#45;&gt;lib_ObjC.a -->
<g id="edge11" class="edge">
<title>optimize&#45;&gt;lib_ObjC.a</title>
<path fill="none" stroke="#000000" d="M746.657,-150.1792C776.6661,-139.2943 822.367,-122.6612 862,-108 862.0965,-107.9643 862.1931,-107.9285 862.2899,-107.8928"/>
<polygon fill="#000000" stroke="#000000" points="863.3432,-111.2352 871.4989,-104.4723 860.9059,-104.6732 863.3432,-111.2352"/>
</g>
<!-- MulleObjCLoader+Foo.o -->
<g id="node9" class="node">
<title>MulleObjCLoader+Foo.o</title>
<polygon fill="none" stroke="#000000" points="538.5,-36 387.5,-36 387.5,0 544.5,0 544.5,-30 538.5,-36"/>
<polyline fill="none" stroke="#000000" points="538.5,-36 538.5,-30 "/>
<polyline fill="none" stroke="#000000" points="544.5,-30 538.5,-30 "/>
<text text-anchor="middle" x="466" y="-14.3" font-family="Times,serif" font-size="14.00" fill="#000000">MulleObjCLoader+Foo.o</text>
</g>
<!-- Foo2.d&#45;&gt;MulleObjCLoader+Foo.o -->
<g id="edge7" class="edge">
<title>Foo2.d&#45;&gt;MulleObjCLoader+Foo.o</title>
<path fill="none" stroke="#000000" d="M466,-71.8314C466,-64.131 466,-54.9743 466,-46.4166"/>
<polygon fill="#000000" stroke="#000000" points="469.5001,-46.4132 466,-36.4133 462.5001,-46.4133 469.5001,-46.4132"/>
</g>
</g>
</svg>
