<?xml version="1.0" encoding="UTF-8" standalone="no"?>
<!DOCTYPE svg PUBLIC "-//W3C//DTD SVG 1.1//EN"
 "http://www.w3.org/Graphics/SVG/1.1/DTD/svg11.dtd">
<!-- Generated by graphviz version 2.40.1 (20161225.0304)
 -->
<!-- Title: optimizer Pages: 1 -->
<svg width="170pt" height="260pt"
 viewBox="0.00 0.00 170.00 260.00" xmlns="http://www.w3.org/2000/svg" xmlns:xlink="http://www.w3.org/1999/xlink">
<g id="graph0" class="graph" transform="scale(1 1) rotate(0) translate(4 256)">
<title>optimizer</title>
<polygon fill="#ffffff" stroke="transparent" points="-4,4 -4,-256 166,-256 166,4 -4,4"/>
<!-- libFoo.a -->
<g id="node1" class="node">
<title>libFoo.a</title>
<polygon fill="none" stroke="#0000ff" stroke-width="2" points="156,-108 100,-108 100,-72 162,-72 162,-102 156,-108"/>
<polyline fill="none" stroke="#0000ff" stroke-width="2" points="156,-108 156,-102 "/>
<polyline fill="none" stroke="#0000ff" stroke-width="2" points="162,-102 156,-102 "/>
<text text-anchor="middle" x="131" y="-86.3" font-family="Times,serif" font-size="14.00" fill="#000000">libFoo.a</text>
</g>
<!-- dependencies -->
<g id="node2" class="node">
<title>dependencies</title>
<polygon fill="none" stroke="#000000" points="136.5,-252 133.5,-256 112.5,-256 109.5,-252 47.5,-252 47.5,-216 136.5,-216 136.5,-252"/>
<text text-anchor="middle" x="92" y="-230.3" font-family="Times,serif" font-size="14.00" fill="#000000">dependencies</text>
</g>
<!-- include -->
<g id="node3" class="node">
<title>include</title>
<polygon fill="none" stroke="#000000" points="84,-180 81,-184 60,-184 57,-180 28,-180 28,-144 84,-144 84,-180"/>
<text text-anchor="middle" x="56" y="-158.3" font-family="Times,serif" font-size="14.00" fill="#000000">include</text>
</g>
<!-- dependencies&#45;&gt;include -->
<g id="edge1" class="edge">
<title>dependencies&#45;&gt;include</title>
<path fill="none" stroke="#000000" d="M82.9157,-215.8314C78.9385,-207.8771 74.1845,-198.369 69.7861,-189.5723"/>
<polygon fill="#000000" stroke="#000000" points="72.8093,-187.7923 65.2066,-180.4133 66.5483,-190.9228 72.8093,-187.7923"/>
</g>
<!-- lib -->
<g id="node6" class="node">
<title>lib</title>
<polygon fill="none" stroke="#000000" points="157,-180 154,-184 133,-184 130,-180 103,-180 103,-144 157,-144 157,-180"/>
<text text-anchor="middle" x="130" y="-158.3" font-family="Times,serif" font-size="14.00" fill="#000000">lib</text>
</g>
<!-- dependencies&#45;&gt;lib -->
<g id="edge4" class="edge">
<title>dependencies&#45;&gt;lib</title>
<path fill="none" stroke="#000000" d="M101.589,-215.8314C105.8317,-207.7925 110.9121,-198.1666 115.596,-189.2918"/>
<polygon fill="#000000" stroke="#000000" points="118.7096,-190.8908 120.2819,-180.4133 112.5189,-187.6235 118.7096,-190.8908"/>
</g>
<!-- Foo -->
<g id="node4" class="node">
<title>Foo</title>
<polygon fill="none" stroke="#000000" points="82,-108 79,-112 58,-112 55,-108 28,-108 28,-72 82,-72 82,-108"/>
<text text-anchor="middle" x="55" y="-86.3" font-family="Times,serif" font-size="14.00" fill="#000000">Foo</text>
</g>
<!-- include&#45;&gt;Foo -->
<g id="edge2" class="edge">
<title>include&#45;&gt;Foo</title>
<path fill="none" stroke="#000000" d="M55.7477,-143.8314C55.6407,-136.131 55.5135,-126.9743 55.3947,-118.4166"/>
<polygon fill="#000000" stroke="#000000" points="58.8944,-118.3637 55.2557,-108.4133 51.8951,-118.4609 58.8944,-118.3637"/>
</g>
<!-- dependencies.inc -->
<g id="node5" class="node">
<title>dependencies.inc</title>
<polygon fill="none" stroke="#daa520" stroke-width="2" points="104,-36 0,-36 0,0 110,0 110,-30 104,-36"/>
<polyline fill="none" stroke="#daa520" stroke-width="2" points="104,-36 104,-30 "/>
<polyline fill="none" stroke="#daa520" stroke-width="2" points="110,-30 104,-30 "/>
<text text-anchor="middle" x="55" y="-14.3" font-family="Times,serif" font-size="14.00" fill="#000000">dependencies.inc</text>
</g>
<!-- Foo&#45;&gt;dependencies.inc -->
<g id="edge3" class="edge">
<title>Foo&#45;&gt;dependencies.inc</title>
<path fill="none" stroke="#000000" d="M55,-71.8314C55,-64.131 55,-54.9743 55,-46.4166"/>
<polygon fill="#000000" stroke="#000000" points="58.5001,-46.4132 55,-36.4133 51.5001,-46.4133 58.5001,-46.4132"/>
</g>
<!-- lib&#45;&gt;libFoo.a -->
<g id="edge5" class="edge">
<title>lib&#45;&gt;libFoo.a</title>
<path fill="none" stroke="#000000" d="M130.2523,-143.8314C130.3593,-136.131 130.4865,-126.9743 130.6053,-118.4166"/>
<polygon fill="#000000" stroke="#000000" points="134.1049,-118.4609 130.7443,-108.4133 127.1056,-118.3637 134.1049,-118.4609"/>
</g>
</g>
</svg>
