<?xml version="1.0" encoding="UTF-8" standalone="no"?>
<!DOCTYPE svg PUBLIC "-//W3C//DTD SVG 1.1//EN"
 "http://www.w3.org/Graphics/SVG/1.1/DTD/svg11.dtd">
<!-- Generated by graphviz version 2.34.0 (20131231.1455)
 -->
<!-- Title: optimizer Pages: 1 -->
<svg width="281pt" height="116pt"
 viewBox="0.00 0.00 281.00 116.00" xmlns="http://www.w3.org/2000/svg" xmlns:xlink="http://www.w3.org/1999/xlink">
<g id="graph0" class="graph" transform="scale(1 1) rotate(0) translate(4 112)">
<title>optimizer</title>
<polygon fill="white" stroke="white" points="-4,4 -4,-112 277,-112 277,4 -4,4"/>
<!-- coverage -->
<g id="node1" class="node"><title>coverage</title>
<polygon fill="none" stroke="black" points="165.891,-108 162.891,-112 141.891,-112 138.891,-108 100.109,-108 100.109,-72 165.891,-72 165.891,-108"/>
<text text-anchor="middle" x="133" y="-84.4" font-family="Times,serif" font-size="14.00">coverage</text>
</g>
<!-- class&#45;coverage.csv -->
<g id="node2" class="node"><title>class&#45;coverage.csv</title>
<polygon fill="none" stroke="seagreen" stroke-width="2" points="113.918,-36 0.081926,-36 0.081926,-0 119.918,-0 119.918,-30 113.918,-36"/>
<polyline fill="none" stroke="seagreen" stroke-width="2" points="113.918,-36 113.918,-30 "/>
<polyline fill="none" stroke="seagreen" stroke-width="2" points="119.918,-30 113.918,-30 "/>
<text text-anchor="middle" x="60" y="-12.4" font-family="Times,serif" font-size="14.00">class&#45;coverage.csv</text>
</g>
<!-- coverage&#45;&gt;class&#45;coverage.csv -->
<g id="edge1" class="edge"><title>coverage&#45;&gt;class&#45;coverage.csv</title>
<path fill="none" stroke="black" d="M114.955,-71.6966C105.938,-63.0503 94.8821,-52.4486 85.0568,-43.027"/>
<polygon fill="black" stroke="black" points="87.4777,-40.4993 77.8374,-36.1043 82.6328,-45.5518 87.4777,-40.4993"/>
</g>
<!-- method&#45;coverage.csv -->
<g id="node3" class="node"><title>method&#45;coverage.csv</title>
<polygon fill="none" stroke="seagreen" stroke-width="2" points="267.501,-36 138.499,-36 138.499,-0 273.501,-0 273.501,-30 267.501,-36"/>
<polyline fill="none" stroke="seagreen" stroke-width="2" points="267.501,-36 267.501,-30 "/>
<polyline fill="none" stroke="seagreen" stroke-width="2" points="273.501,-30 267.501,-30 "/>
<text text-anchor="middle" x="206" y="-12.4" font-family="Times,serif" font-size="14.00">method&#45;coverage.csv</text>
</g>
<!-- coverage&#45;&gt;method&#45;coverage.csv -->
<g id="edge2" class="edge"><title>coverage&#45;&gt;method&#45;coverage.csv</title>
<path fill="none" stroke="black" d="M151.045,-71.6966C160.062,-63.0503 171.118,-52.4486 180.943,-43.027"/>
<polygon fill="black" stroke="black" points="183.367,-45.5518 188.163,-36.1043 178.522,-40.4993 183.367,-45.5518"/>
</g>
</g>
</svg>
