<?xml version="1.0" encoding="UTF-8" standalone="no"?>
<!DOCTYPE svg PUBLIC "-//W3C//DTD SVG 1.1//EN"
 "http://www.w3.org/Graphics/SVG/1.1/DTD/svg11.dtd">
<!-- Generated by graphviz version 2.34.0 (20131231.1455)
 -->
<!-- Title: optimizer Pages: 1 -->
<svg width="963pt" height="188pt"
 viewBox="0.00 0.00 963.00 188.00" xmlns="http://www.w3.org/2000/svg" xmlns:xlink="http://www.w3.org/1999/xlink">
<g id="graph0" class="graph" transform="scale(1 1) rotate(0) translate(4 184)">
<title>optimizer</title>
<polygon fill="white" stroke="white" points="-4,4 -4,-184 959,-184 959,4 -4,4"/>
<!-- unarchive -->
<g id="node1" class="node"><title>unarchive</title>
<polygon fill="none" stroke="black" points="198.394,-180 195.394,-184 174.394,-184 171.394,-180 127.606,-180 127.606,-144 198.394,-144 198.394,-180"/>
<text text-anchor="middle" x="163" y="-156.4" font-family="Times,serif" font-size="14.00">unarchive</text>
</g>
<!-- Foo.d -->
<g id="node2" class="node"><title>Foo.d</title>
<polygon fill="none" stroke="black" points="184,-108 136,-108 136,-72 190,-72 190,-102 184,-108"/>
<polyline fill="none" stroke="black" points="184,-108 184,-102 "/>
<polyline fill="none" stroke="black" points="190,-102 184,-102 "/>
<text text-anchor="middle" x="163" y="-84.4" font-family="Times,serif" font-size="14.00">Foo.d</text>
</g>
<!-- unarchive&#45;&gt;Foo.d -->
<g id="edge1" class="edge"><title>unarchive&#45;&gt;Foo.d</title>
<path fill="none" stroke="black" d="M163,-143.697C163,-135.983 163,-126.712 163,-118.112"/>
<polygon fill="black" stroke="black" points="166.5,-118.104 163,-108.104 159.5,-118.104 166.5,-118.104"/>
</g>
<!-- Foo.o -->
<g id="node3" class="node"><title>Foo.o</title>
<polygon fill="none" stroke="black" points="48,-36 0,-36 0,-0 54,-0 54,-30 48,-36"/>
<polyline fill="none" stroke="black" points="48,-36 48,-30 "/>
<polyline fill="none" stroke="black" points="54,-30 48,-30 "/>
<text text-anchor="middle" x="27" y="-12.4" font-family="Times,serif" font-size="14.00">Foo.o</text>
</g>
<!-- Foo.d&#45;&gt;Foo.o -->
<g id="edge2" class="edge"><title>Foo.d&#45;&gt;Foo.o</title>
<path fill="none" stroke="black" d="M135.805,-75.0027C114.958,-64.2723 85.99,-49.3625 63.1853,-37.6248"/>
<polygon fill="black" stroke="black" points="64.6408,-34.4376 54.1476,-32.973 61.4372,-40.6615 64.6408,-34.4376"/>
</g>
<!-- Foo+Bar.o -->
<g id="node4" class="node"><title>Foo+Bar.o</title>
<polygon fill="none" stroke="black" points="141.225,-36 72.7747,-36 72.7747,-0 147.225,-0 147.225,-30 141.225,-36"/>
<polyline fill="none" stroke="black" points="141.225,-36 141.225,-30 "/>
<polyline fill="none" stroke="black" points="147.225,-30 141.225,-30 "/>
<text text-anchor="middle" x="110" y="-12.4" font-family="Times,serif" font-size="14.00">Foo+Bar.o</text>
</g>
<!-- Foo.d&#45;&gt;Foo+Bar.o -->
<g id="edge3" class="edge"><title>Foo.d&#45;&gt;Foo+Bar.o</title>
<path fill="none" stroke="black" d="M149.899,-71.6966C143.609,-63.3893 135.953,-53.2771 129.035,-44.1407"/>
<polygon fill="black" stroke="black" points="131.777,-41.9642 122.95,-36.1043 126.196,-46.1897 131.777,-41.9642"/>
</g>
<!-- method_db.csv -->
<g id="node5" class="node"><title>method_db.csv</title>
<polygon fill="none" stroke="seagreen" stroke-width="2" points="260.366,-36 165.634,-36 165.634,-0 266.366,-0 266.366,-30 260.366,-36"/>
<polyline fill="none" stroke="seagreen" stroke-width="2" points="260.366,-36 260.366,-30 "/>
<polyline fill="none" stroke="seagreen" stroke-width="2" points="266.366,-30 260.366,-30 "/>
<text text-anchor="middle" x="216" y="-12.4" font-family="Times,serif" font-size="14.00">method_db.csv</text>
</g>
<!-- Foo.d&#45;&gt;method_db.csv -->
<g id="edge4" class="edge"><title>Foo.d&#45;&gt;method_db.csv</title>
<path fill="none" stroke="black" d="M176.101,-71.6966C182.391,-63.3893 190.047,-53.2771 196.965,-44.1407"/>
<polygon fill="black" stroke="black" points="199.804,-46.1897 203.05,-36.1043 194.223,-41.9642 199.804,-46.1897"/>
</g>
<!-- class_db.csv -->
<g id="node6" class="node"><title>class_db.csv</title>
<polygon fill="none" stroke="seagreen" stroke-width="2" points="365.282,-36 284.718,-36 284.718,-0 371.282,-0 371.282,-30 365.282,-36"/>
<polyline fill="none" stroke="seagreen" stroke-width="2" points="365.282,-36 365.282,-30 "/>
<polyline fill="none" stroke="seagreen" stroke-width="2" points="371.282,-30 365.282,-30 "/>
<text text-anchor="middle" x="328" y="-12.4" font-family="Times,serif" font-size="14.00">class_db.csv</text>
</g>
<!-- Foo.d&#45;&gt;class_db.csv -->
<g id="edge5" class="edge"><title>Foo.d&#45;&gt;class_db.csv</title>
<path fill="none" stroke="black" d="M190.246,-77.4409C214.095,-67.3234 249.344,-52.3692 278.215,-40.1211"/>
<polygon fill="black" stroke="black" points="279.897,-43.2095 287.735,-36.082 277.163,-36.7655 279.897,-43.2095"/>
</g>
<!-- optimize -->
<g id="node7" class="node"><title>optimize</title>
<polygon fill="none" stroke="black" points="752.24,-180 749.24,-184 728.24,-184 725.24,-180 687.76,-180 687.76,-144 752.24,-144 752.24,-180"/>
<text text-anchor="middle" x="720" y="-156.4" font-family="Times,serif" font-size="14.00">optimize</text>
</g>
<!-- Foo2.d -->
<g id="node8" class="node"><title>Foo2.d</title>
<polygon fill="none" stroke="black" points="496,-108 493,-112 472,-112 469,-108 442,-108 442,-72 496,-72 496,-108"/>
<text text-anchor="middle" x="469" y="-84.4" font-family="Times,serif" font-size="14.00">Foo.d</text>
</g>
<!-- optimize&#45;&gt;Foo2.d -->
<g id="edge6" class="edge"><title>optimize&#45;&gt;Foo2.d</title>
<path fill="none" stroke="black" d="M687.722,-155.135C647.057,-147.297 575.055,-131.925 506,-108.003"/>
<polygon fill="black" stroke="black" points="506.874,-104.6 496.279,-104.571 504.544,-111.201 506.874,-104.6"/>
</g>
<!-- class&#45;coverage.csv -->
<g id="node10" class="node"><title>class&#45;coverage.csv</title>
<polygon fill="none" stroke="seagreen" stroke-width="2" points="627.918,-108 514.082,-108 514.082,-72 633.918,-72 633.918,-102 627.918,-108"/>
<polyline fill="none" stroke="seagreen" stroke-width="2" points="627.918,-108 627.918,-102 "/>
<polyline fill="none" stroke="seagreen" stroke-width="2" points="633.918,-102 627.918,-102 "/>
<text text-anchor="middle" x="574" y="-84.4" font-family="Times,serif" font-size="14.00">class&#45;coverage.csv</text>
</g>
<!-- optimize&#45;&gt;class&#45;coverage.csv -->
<g id="edge8" class="edge"><title>optimize&#45;&gt;class&#45;coverage.csv</title>
<path fill="none" stroke="black" d="M687.598,-145.465C667.383,-135.773 641.078,-123.161 618.873,-112.514"/>
<polygon fill="black" stroke="black" points="620.167,-109.253 609.637,-108.086 617.141,-115.566 620.167,-109.253"/>
</g>
<!-- method&#45;coverage.csv -->
<g id="node11" class="node"><title>method&#45;coverage.csv</title>
<polygon fill="none" stroke="seagreen" stroke-width="2" points="781.501,-108 652.499,-108 652.499,-72 787.501,-72 787.501,-102 781.501,-108"/>
<polyline fill="none" stroke="seagreen" stroke-width="2" points="781.501,-108 781.501,-102 "/>
<polyline fill="none" stroke="seagreen" stroke-width="2" points="787.501,-102 781.501,-102 "/>
<text text-anchor="middle" x="720" y="-84.4" font-family="Times,serif" font-size="14.00">method&#45;coverage.csv</text>
</g>
<!-- optimize&#45;&gt;method&#45;coverage.csv -->
<g id="edge9" class="edge"><title>optimize&#45;&gt;method&#45;coverage.csv</title>
<path fill="none" stroke="black" d="M720,-143.697C720,-135.983 720,-126.712 720,-118.112"/>
<polygon fill="black" stroke="black" points="723.5,-118.104 720,-108.104 716.5,-118.104 723.5,-118.104"/>
</g>
<!-- lib_c.a -->
<g id="node12" class="node"><title>lib_c.a</title>
<polygon fill="none" stroke="blue" stroke-width="2" points="854,-108 806,-108 806,-72 860,-72 860,-102 854,-108"/>
<polyline fill="none" stroke="blue" stroke-width="2" points="854,-108 854,-102 "/>
<polyline fill="none" stroke="blue" stroke-width="2" points="860,-102 854,-102 "/>
<text text-anchor="middle" x="833" y="-84.4" font-family="Times,serif" font-size="14.00">lib_c.a</text>
</g>
<!-- optimize&#45;&gt;lib_c.a -->
<g id="edge10" class="edge"><title>optimize&#45;&gt;lib_c.a</title>
<path fill="none" stroke="black" d="M747.643,-143.876C762.528,-134.655 781.066,-123.172 797.059,-113.265"/>
<polygon fill="black" stroke="black" points="798.985,-116.189 805.642,-107.947 795.298,-110.238 798.985,-116.189"/>
</g>
<!-- lib_ObjC.a -->
<g id="node13" class="node"><title>lib_ObjC.a</title>
<polygon fill="none" stroke="blue" stroke-width="2" points="949.374,-108 878.626,-108 878.626,-72 955.374,-72 955.374,-102 949.374,-108"/>
<polyline fill="none" stroke="blue" stroke-width="2" points="949.374,-108 949.374,-102 "/>
<polyline fill="none" stroke="blue" stroke-width="2" points="955.374,-102 949.374,-102 "/>
<text text-anchor="middle" x="917" y="-84.4" font-family="Times,serif" font-size="14.00">lib_ObjC.a</text>
</g>
<!-- optimize&#45;&gt;lib_ObjC.a -->
<g id="edge11" class="edge"><title>optimize&#45;&gt;lib_ObjC.a</title>
<path fill="none" stroke="black" d="M752.531,-149.441C784.097,-138.225 832.391,-121.064 868.494,-108.236"/>
<polygon fill="black" stroke="black" points="870.078,-111.387 878.329,-104.741 867.734,-104.791 870.078,-111.387"/>
</g>
<!-- MulleObjCLoader+Foo.o -->
<g id="node9" class="node"><title>MulleObjCLoader+Foo.o</title>
<polygon fill="none" stroke="black" points="542.203,-36 389.797,-36 389.797,-0 548.203,-0 548.203,-30 542.203,-36"/>
<polyline fill="none" stroke="black" points="542.203,-36 542.203,-30 "/>
<polyline fill="none" stroke="black" points="548.203,-30 542.203,-30 "/>
<text text-anchor="middle" x="469" y="-12.4" font-family="Times,serif" font-size="14.00">MulleObjCLoader+Foo.o</text>
</g>
<!-- Foo2.d&#45;&gt;MulleObjCLoader+Foo.o -->
<g id="edge7" class="edge"><title>Foo2.d&#45;&gt;MulleObjCLoader+Foo.o</title>
<path fill="none" stroke="black" d="M469,-71.6966C469,-63.9827 469,-54.7125 469,-46.1124"/>
<polygon fill="black" stroke="black" points="472.5,-46.1043 469,-36.1043 465.5,-46.1044 472.5,-46.1043"/>
</g>
</g>
</svg>
