<svg xmlns="http://www.w3.org/2000/svg" xmlns:xlink="http://www.w3.org/1999/xlink" width="170pt" height="260pt" viewBox="0 0 170 260"><g id="graph0" class="graph" transform="scale(1 1) rotate(0) translate(4 256)"><title>optimizer</title><polygon fill="#fff" stroke="transparent" points="-4 4 -4 -256 166 -256 166 4 -4 4"/><g id="node1" class="node"><title>libFoo.a</title><polygon fill="none" stroke="#00f" stroke-width="2" points="156 -108 100 -108 100 -72 162 -72 162 -102 156 -108"/><polyline fill="none" stroke="#00f" stroke-width="2" points="156 -108 156 -102"/><polyline fill="none" stroke="#00f" stroke-width="2" points="162 -102 156 -102"/><text x="131" y="-86.3" fill="#000" font-family="Times,serif" font-size="14" text-anchor="middle">libFoo.a</text></g><g id="node2" class="node"><title>dependencies</title><polygon fill="none" stroke="#000" points="136.5 -252 133.5 -256 112.5 -256 109.5 -252 47.5 -252 47.5 -216 136.5 -216 136.5 -252"/><text x="92" y="-230.3" fill="#000" font-family="Times,serif" font-size="14" text-anchor="middle">dependencies</text></g><g id="node3" class="node"><title>include</title><polygon fill="none" stroke="#000" points="84 -180 81 -184 60 -184 57 -180 28 -180 28 -144 84 -144 84 -180"/><text x="56" y="-158.3" fill="#000" font-family="Times,serif" font-size="14" text-anchor="middle">include</text></g><g id="edge1" class="edge"><title>dependencies-&gt;include</title><path fill="none" stroke="#000" d="M82.9157,-215.8314C78.9385,-207.8771 74.1845,-198.369 69.7861,-189.5723"/><polygon fill="#000" stroke="#000" points="72.809 -187.792 65.207 -180.413 66.548 -190.923 72.809 -187.792"/></g><g id="node6" class="node"><title>lib</title><polygon fill="none" stroke="#000" points="157 -180 154 -184 133 -184 130 -180 103 -180 103 -144 157 -144 157 -180"/><text x="130" y="-158.3" fill="#000" font-family="Times,serif" font-size="14" text-anchor="middle">lib</text></g><g id="edge4" class="edge"><title>dependencies-&gt;lib</title><path fill="none" stroke="#000" d="M101.589,-215.8314C105.8317,-207.7925 110.9121,-198.1666 115.596,-189.2918"/><polygon fill="#000" stroke="#000" points="118.71 -190.891 120.282 -180.413 112.519 -187.624 118.71 -190.891"/></g><g id="node4" class="node"><title>Foo</title><polygon fill="none" stroke="#000" points="82 -108 79 -112 58 -112 55 -108 28 -108 28 -72 82 -72 82 -108"/><text x="55" y="-86.3" fill="#000" font-family="Times,serif" font-size="14" text-anchor="middle">Foo</text></g><g id="edge2" class="edge"><title>include-&gt;Foo</title><path fill="none" stroke="#000" d="M55.7477,-143.8314C55.6407,-136.131 55.5135,-126.9743 55.3947,-118.4166"/><polygon fill="#000" stroke="#000" points="58.894 -118.364 55.256 -108.413 51.895 -118.461 58.894 -118.364"/></g><g id="node5" class="node"><title>dependencies.inc</title><polygon fill="none" stroke="#daa520" stroke-width="2" points="104 -36 0 -36 0 0 110 0 110 -30 104 -36"/><polyline fill="none" stroke="#daa520" stroke-width="2" points="104 -36 104 -30"/><polyline fill="none" stroke="#daa520" stroke-width="2" points="110 -30 104 -30"/><text x="55" y="-14.3" fill="#000" font-family="Times,serif" font-size="14" text-anchor="middle">dependencies.inc</text></g><g id="edge3" class="edge"><title>Foo-&gt;dependencies.inc</title><path fill="none" stroke="#000" d="M55,-71.8314C55,-64.131 55,-54.9743 55,-46.4166"/><polygon fill="#000" stroke="#000" points="58.5 -46.413 55 -36.413 51.5 -46.413 58.5 -46.413"/></g><g id="edge5" class="edge"><title>lib-&gt;libFoo.a</title><path fill="none" stroke="#000" d="M130.2523,-143.8314C130.3593,-136.131 130.4865,-126.9743 130.6053,-118.4166"/><polygon fill="#000" stroke="#000" points="134.105 -118.461 130.744 -108.413 127.106 -118.364 134.105 -118.461"/></g></g></svg>