<?xml version="1.0" encoding="UTF-8" standalone="no"?>
<!DOCTYPE svg PUBLIC "-//W3C//DTD SVG 1.1//EN"
 "http://www.w3.org/Graphics/SVG/1.1/DTD/svg11.dtd">
<!-- Generated by graphviz version 2.40.1 (20161225.0304)
 -->
<!-- Title: optimizer Pages: 1 -->
<svg width="764pt" height="188pt"
 viewBox="0.00 0.00 764.00 188.00" xmlns="http://www.w3.org/2000/svg" xmlns:xlink="http://www.w3.org/1999/xlink">
<g id="graph0" class="graph" transform="scale(1 1) rotate(0) translate(4 184)">
<title>optimizer</title>
<polygon fill="#ffffff" stroke="transparent" points="-4,4 -4,-184 760,-184 760,4 -4,4"/>
<!-- src -->
<g id="node1" class="node">
<title>src</title>
<polygon fill="none" stroke="#000000" points="209,-180 206,-184 185,-184 182,-180 155,-180 155,-144 209,-144 209,-180"/>
<text text-anchor="middle" x="182" y="-158.3" font-family="Times,serif" font-size="14.00" fill="#000000">src</text>
</g>
<!-- Foo.m -->
<g id="node2" class="node">
<title>Foo.m</title>
<polygon fill="none" stroke="#a020f0" stroke-width="2" points="48,-108 0,-108 0,-72 54,-72 54,-102 48,-108"/>
<polyline fill="none" stroke="#a020f0" stroke-width="2" points="48,-108 48,-102 "/>
<polyline fill="none" stroke="#a020f0" stroke-width="2" points="54,-102 48,-102 "/>
<text text-anchor="middle" x="27" y="-86.3" font-family="Times,serif" font-size="14.00" fill="#000000">Foo.m</text>
</g>
<!-- src&#45;&gt;Foo.m -->
<g id="edge1" class="edge">
<title>src&#45;&gt;Foo.m</title>
<path fill="none" stroke="#000000" d="M154.927,-150.0632C132.611,-140.1478 99.9447,-125.46 63.4344,-108.1337"/>
<polygon fill="#000000" stroke="#000000" points="64.6063,-104.8152 54.0732,-103.6732 61.5952,-111.1344 64.6063,-104.8152"/>
</g>
<!-- Foo+Bar.m -->
<g id="node3" class="node">
<title>Foo+Bar.m</title>
<polygon fill="none" stroke="#a020f0" stroke-width="2" points="146,-108 72,-108 72,-72 152,-72 152,-102 146,-108"/>
<polyline fill="none" stroke="#a020f0" stroke-width="2" points="146,-108 146,-102 "/>
<polyline fill="none" stroke="#a020f0" stroke-width="2" points="152,-102 146,-102 "/>
<text text-anchor="middle" x="112" y="-86.3" font-family="Times,serif" font-size="14.00" fill="#000000">Foo+Bar.m</text>
</g>
<!-- src&#45;&gt;Foo+Bar.m -->
<g id="edge2" class="edge">
<title>src&#45;&gt;Foo+Bar.m</title>
<path fill="none" stroke="#000000" d="M164.336,-143.8314C156.0268,-135.2848 145.9736,-124.9443 136.9082,-115.6198"/>
<polygon fill="#000000" stroke="#000000" points="139.3821,-113.1435 129.9018,-108.4133 134.3631,-118.023 139.3821,-113.1435"/>
</g>
<!-- MulleObjCLoader+Foo.m -->
<g id="node4" class="node">
<title>MulleObjCLoader+Foo.m</title>
<polygon fill="none" stroke="#a020f0" stroke-width="2" points="325.5,-108 170.5,-108 170.5,-72 331.5,-72 331.5,-102 325.5,-108"/>
<polyline fill="none" stroke="#a020f0" stroke-width="2" points="325.5,-108 325.5,-102 "/>
<polyline fill="none" stroke="#a020f0" stroke-width="2" points="331.5,-102 325.5,-102 "/>
<text text-anchor="middle" x="251" y="-86.3" font-family="Times,serif" font-size="14.00" fill="#000000">MulleObjCLoader+Foo.m</text>
</g>
<!-- src&#45;&gt;MulleObjCLoader+Foo.m -->
<g id="edge3" class="edge">
<title>src&#45;&gt;MulleObjCLoader+Foo.m</title>
<path fill="none" stroke="#000000" d="M199.4116,-143.8314C207.521,-135.3694 217.3156,-125.1489 226.182,-115.8971"/>
<polygon fill="#000000" stroke="#000000" points="228.9618,-118.0549 233.354,-108.4133 223.9079,-113.2115 228.9618,-118.0549"/>
</g>
<!-- dependencies.inc -->
<g id="node5" class="node">
<title>dependencies.inc</title>
<polygon fill="none" stroke="#000000" points="454,-108 350,-108 350,-72 460,-72 460,-102 454,-108"/>
<polyline fill="none" stroke="#000000" points="454,-108 454,-102 "/>
<polyline fill="none" stroke="#000000" points="460,-102 454,-102 "/>
<text text-anchor="middle" x="405" y="-86.3" font-family="Times,serif" font-size="14.00" fill="#000000">dependencies.inc</text>
</g>
<!-- src&#45;&gt;dependencies.inc -->
<g id="edge4" class="edge">
<title>src&#45;&gt;dependencies.inc</title>
<path fill="none" stroke="#000000" d="M209.3442,-153.1714C241.6738,-142.7331 296.571,-125.0085 340.0012,-110.9862"/>
<polygon fill="#000000" stroke="#000000" points="341.2028,-114.2762 349.6436,-107.8729 339.0519,-107.6148 341.2028,-114.2762"/>
</g>
<!-- build -->
<g id="node6" class="node">
<title>build</title>
<polygon fill="none" stroke="#000000" points="592,-180 589,-184 568,-184 565,-180 538,-180 538,-144 592,-144 592,-180"/>
<text text-anchor="middle" x="565" y="-158.3" font-family="Times,serif" font-size="14.00" fill="#000000">build</text>
</g>
<!-- CMakeFiles -->
<g id="node7" class="node">
<title>CMakeFiles</title>
<polygon fill="none" stroke="#000000" points="561.5,-108 558.5,-112 537.5,-112 534.5,-108 478.5,-108 478.5,-72 561.5,-72 561.5,-108"/>
<text text-anchor="middle" x="520" y="-86.3" font-family="Times,serif" font-size="14.00" fill="#000000">CMakeFiles</text>
</g>
<!-- build&#45;&gt;CMakeFiles -->
<g id="edge5" class="edge">
<title>build&#45;&gt;CMakeFiles</title>
<path fill="none" stroke="#000000" d="M553.6446,-143.8314C548.5674,-135.7079 542.4773,-125.9637 536.8824,-117.0118"/>
<polygon fill="#000000" stroke="#000000" points="539.7763,-115.0383 531.5083,-108.4133 533.8403,-118.7483 539.7763,-115.0383"/>
</g>
<!-- libFoo.a -->
<g id="node11" class="node">
<title>libFoo.a</title>
<polygon fill="none" stroke="#0000ff" stroke-width="2" points="636,-108 580,-108 580,-72 642,-72 642,-102 636,-108"/>
<polyline fill="none" stroke="#0000ff" stroke-width="2" points="636,-108 636,-102 "/>
<polyline fill="none" stroke="#0000ff" stroke-width="2" points="642,-102 636,-102 "/>
<text text-anchor="middle" x="611" y="-86.3" font-family="Times,serif" font-size="14.00" fill="#000000">libFoo.a</text>
</g>
<!-- build&#45;&gt;libFoo.a -->
<g id="edge9" class="edge">
<title>build&#45;&gt;libFoo.a</title>
<path fill="none" stroke="#000000" d="M576.6077,-143.8314C581.7978,-135.7079 588.0232,-125.9637 593.7425,-117.0118"/>
<polygon fill="#000000" stroke="#000000" points="596.8015,-118.7246 599.236,-108.4133 590.9026,-114.9559 596.8015,-118.7246"/>
</g>
<!-- Foo.m.o -->
<g id="node8" class="node">
<title>Foo.m.o</title>
<polygon fill="none" stroke="#000000" points="450.5,-36 393.5,-36 393.5,0 456.5,0 456.5,-30 450.5,-36"/>
<polyline fill="none" stroke="#000000" points="450.5,-36 450.5,-30 "/>
<polyline fill="none" stroke="#000000" points="456.5,-30 450.5,-30 "/>
<text text-anchor="middle" x="425" y="-14.3" font-family="Times,serif" font-size="14.00" fill="#000000">Foo.m.o</text>
</g>
<!-- CMakeFiles&#45;&gt;Foo.m.o -->
<g id="edge6" class="edge">
<title>CMakeFiles&#45;&gt;Foo.m.o</title>
<path fill="none" stroke="#000000" d="M496.0275,-71.8314C484.2139,-62.8779 469.8028,-51.9558 457.0565,-42.2955"/>
<polygon fill="#000000" stroke="#000000" points="459.0486,-39.4137 448.9648,-36.1628 454.8205,-44.9925 459.0486,-39.4137"/>
</g>
<!-- Foo+Bar.m.o -->
<g id="node9" class="node">
<title>Foo+Bar.m.o</title>
<polygon fill="none" stroke="#000000" points="559.5,-36 474.5,-36 474.5,0 565.5,0 565.5,-30 559.5,-36"/>
<polyline fill="none" stroke="#000000" points="559.5,-36 559.5,-30 "/>
<polyline fill="none" stroke="#000000" points="565.5,-30 559.5,-30 "/>
<text text-anchor="middle" x="520" y="-14.3" font-family="Times,serif" font-size="14.00" fill="#000000">Foo+Bar.m.o</text>
</g>
<!-- CMakeFiles&#45;&gt;Foo+Bar.m.o -->
<g id="edge7" class="edge">
<title>CMakeFiles&#45;&gt;Foo+Bar.m.o</title>
<path fill="none" stroke="#000000" d="M520,-71.8314C520,-64.131 520,-54.9743 520,-46.4166"/>
<polygon fill="#000000" stroke="#000000" points="523.5001,-46.4132 520,-36.4133 516.5001,-46.4133 523.5001,-46.4132"/>
</g>
<!-- MulleObjCLoader+Foo.m.o -->
<g id="node10" class="node">
<title>MulleObjCLoader+Foo.m.o</title>
<polygon fill="none" stroke="#000000" points="750,-36 584,-36 584,0 756,0 756,-30 750,-36"/>
<polyline fill="none" stroke="#000000" points="750,-36 750,-30 "/>
<polyline fill="none" stroke="#000000" points="756,-30 750,-30 "/>
<text text-anchor="middle" x="670" y="-14.3" font-family="Times,serif" font-size="14.00" fill="#000000">MulleObjCLoader+Foo.m.o</text>
</g>
<!-- CMakeFiles&#45;&gt;MulleObjCLoader+Foo.m.o -->
<g id="edge8" class="edge">
<title>CMakeFiles&#45;&gt;MulleObjCLoader+Foo.m.o</title>
<path fill="none" stroke="#000000" d="M557.8513,-71.8314C577.7346,-62.2874 602.2782,-50.5065 623.3305,-40.4013"/>
<polygon fill="#000000" stroke="#000000" points="624.9202,-43.5207 632.4209,-36.038 621.891,-37.21 624.9202,-43.5207"/>
</g>
<!-- objc&#45;loader.inc -->
<g id="node12" class="node">
<title>objc&#45;loader.inc</title>
<polygon fill="none" stroke="#daa520" stroke-width="2" points="702,-180 610,-180 610,-144 708,-144 708,-174 702,-180"/>
<polyline fill="none" stroke="#daa520" stroke-width="2" points="702,-180 702,-174 "/>
<polyline fill="none" stroke="#daa520" stroke-width="2" points="708,-174 702,-174 "/>
<text text-anchor="middle" x="659" y="-158.3" font-family="Times,serif" font-size="14.00" fill="#000000">objc&#45;loader.inc</text>
</g>
</g>
</svg>
