<?xml version="1.0" encoding="UTF-8" standalone="no"?>
<!DOCTYPE svg PUBLIC "-//W3C//DTD SVG 1.1//EN"
 "http://www.w3.org/Graphics/SVG/1.1/DTD/svg11.dtd">
<!-- Generated by graphviz version 2.34.0 (20131231.1455)
 -->
<!-- Title: optimizer Pages: 1 -->
<svg width="171pt" height="260pt"
 viewBox="0.00 0.00 171.00 260.00" xmlns="http://www.w3.org/2000/svg" xmlns:xlink="http://www.w3.org/1999/xlink">
<g id="graph0" class="graph" transform="scale(1 1) rotate(0) translate(4 256)">
<title>optimizer</title>
<polygon fill="white" stroke="white" points="-4,4 -4,-256 167,-256 167,4 -4,4"/>
<!-- libFoo.a -->
<g id="node1" class="node"><title>libFoo.a</title>
<polygon fill="none" stroke="blue" stroke-width="2" points="157.21,-108 100.79,-108 100.79,-72 163.21,-72 163.21,-102 157.21,-108"/>
<polyline fill="none" stroke="blue" stroke-width="2" points="157.21,-108 157.21,-102 "/>
<polyline fill="none" stroke="blue" stroke-width="2" points="163.21,-102 157.21,-102 "/>
<text text-anchor="middle" x="132" y="-84.4" font-family="Times,serif" font-size="14.00">libFoo.a</text>
</g>
<!-- dependencies -->
<g id="node2" class="node"><title>dependencies</title>
<polygon fill="none" stroke="black" points="139.555,-252 136.555,-256 115.555,-256 112.555,-252 48.4452,-252 48.4452,-216 139.555,-216 139.555,-252"/>
<text text-anchor="middle" x="94" y="-228.4" font-family="Times,serif" font-size="14.00">dependencies</text>
</g>
<!-- include -->
<g id="node3" class="node"><title>include</title>
<polygon fill="none" stroke="black" points="85.4046,-180 82.4046,-184 61.4046,-184 58.4046,-180 28.5954,-180 28.5954,-144 85.4046,-144 85.4046,-180"/>
<text text-anchor="middle" x="57" y="-156.4" font-family="Times,serif" font-size="14.00">include</text>
</g>
<!-- dependencies&#45;&gt;include -->
<g id="edge1" class="edge"><title>dependencies&#45;&gt;include</title>
<path fill="none" stroke="black" d="M84.8539,-215.697C80.5974,-207.644 75.4442,-197.894 70.7336,-188.982"/>
<polygon fill="black" stroke="black" points="73.8083,-187.31 66.0409,-180.104 67.6197,-190.581 73.8083,-187.31"/>
</g>
<!-- lib -->
<g id="node6" class="node"><title>lib</title>
<polygon fill="none" stroke="black" points="158,-180 155,-184 134,-184 131,-180 104,-180 104,-144 158,-144 158,-180"/>
<text text-anchor="middle" x="131" y="-156.4" font-family="Times,serif" font-size="14.00">lib</text>
</g>
<!-- dependencies&#45;&gt;lib -->
<g id="edge4" class="edge"><title>dependencies&#45;&gt;lib</title>
<path fill="none" stroke="black" d="M103.146,-215.697C107.403,-207.644 112.556,-197.894 117.266,-188.982"/>
<polygon fill="black" stroke="black" points="120.38,-190.581 121.959,-180.104 114.192,-187.31 120.38,-190.581"/>
</g>
<!-- Foo -->
<g id="node4" class="node"><title>Foo</title>
<polygon fill="none" stroke="black" points="83,-108 80,-112 59,-112 56,-108 29,-108 29,-72 83,-72 83,-108"/>
<text text-anchor="middle" x="56" y="-84.4" font-family="Times,serif" font-size="14.00">Foo</text>
</g>
<!-- include&#45;&gt;Foo -->
<g id="edge2" class="edge"><title>include&#45;&gt;Foo</title>
<path fill="none" stroke="black" d="M56.7528,-143.697C56.6426,-135.983 56.5102,-126.712 56.3873,-118.112"/>
<polygon fill="black" stroke="black" points="59.8869,-118.053 56.2443,-108.104 52.8876,-118.153 59.8869,-118.053"/>
</g>
<!-- dependencies.inc -->
<g id="node5" class="node"><title>dependencies.inc</title>
<polygon fill="none" stroke="goldenrod" stroke-width="2" points="106.008,-36 -0.0080569,-36 -0.0080569,-0 112.008,-0 112.008,-30 106.008,-36"/>
<polyline fill="none" stroke="goldenrod" stroke-width="2" points="106.008,-36 106.008,-30 "/>
<polyline fill="none" stroke="goldenrod" stroke-width="2" points="112.008,-30 106.008,-30 "/>
<text text-anchor="middle" x="56" y="-12.4" font-family="Times,serif" font-size="14.00">dependencies.inc</text>
</g>
<!-- Foo&#45;&gt;dependencies.inc -->
<g id="edge3" class="edge"><title>Foo&#45;&gt;dependencies.inc</title>
<path fill="none" stroke="black" d="M56,-71.6966C56,-63.9827 56,-54.7125 56,-46.1124"/>
<polygon fill="black" stroke="black" points="59.5001,-46.1043 56,-36.1043 52.5001,-46.1044 59.5001,-46.1043"/>
</g>
<!-- lib&#45;&gt;libFoo.a -->
<g id="edge5" class="edge"><title>lib&#45;&gt;libFoo.a</title>
<path fill="none" stroke="black" d="M131.247,-143.697C131.357,-135.983 131.49,-126.712 131.613,-118.112"/>
<polygon fill="black" stroke="black" points="135.112,-118.153 131.756,-108.104 128.113,-118.053 135.112,-118.153"/>
</g>
</g>
</svg>
