<?xml version="1.0" encoding="UTF-8" standalone="no"?>
<!DOCTYPE svg PUBLIC "-//W3C//DTD SVG 1.1//EN"
 "http://www.w3.org/Graphics/SVG/1.1/DTD/svg11.dtd">
<!-- Generated by graphviz version 2.40.1 (20161225.0304)
 -->
<!-- Title: optimizer Pages: 1 -->
<svg width="278pt" height="116pt"
 viewBox="0.00 0.00 277.50 116.00" xmlns="http://www.w3.org/2000/svg" xmlns:xlink="http://www.w3.org/1999/xlink">
<g id="graph0" class="graph" transform="scale(1 1) rotate(0) translate(4 112)">
<title>optimizer</title>
<polygon fill="#ffffff" stroke="transparent" points="-4,4 -4,-112 273.5,-112 273.5,4 -4,4"/>
<!-- coverage -->
<g id="node1" class="node">
<title>coverage</title>
<polygon fill="none" stroke="#000000" points="163.5,-108 160.5,-112 139.5,-112 136.5,-108 98.5,-108 98.5,-72 163.5,-72 163.5,-108"/>
<text text-anchor="middle" x="131" y="-86.3" font-family="Times,serif" font-size="14.00" fill="#000000">coverage</text>
</g>
<!-- class&#45;coverage.csv -->
<g id="node2" class="node">
<title>class&#45;coverage.csv</title>
<polygon fill="none" stroke="#2e8b57" stroke-width="2" points="112,-36 0,-36 0,0 118,0 118,-30 112,-36"/>
<polyline fill="none" stroke="#2e8b57" stroke-width="2" points="112,-36 112,-30 "/>
<polyline fill="none" stroke="#2e8b57" stroke-width="2" points="118,-30 112,-30 "/>
<text text-anchor="middle" x="59" y="-14.3" font-family="Times,serif" font-size="14.00" fill="#000000">class&#45;coverage.csv</text>
</g>
<!-- coverage&#45;&gt;class&#45;coverage.csv -->
<g id="edge1" class="edge">
<title>coverage&#45;&gt;class&#45;coverage.csv</title>
<path fill="none" stroke="#000000" d="M112.8314,-71.8314C104.2848,-63.2848 93.9443,-52.9443 84.6198,-43.6198"/>
<polygon fill="#000000" stroke="#000000" points="86.9592,-41.0095 77.4133,-36.4133 82.0095,-45.9592 86.9592,-41.0095"/>
</g>
<!-- method&#45;coverage.csv -->
<g id="node3" class="node">
<title>method&#45;coverage.csv</title>
<polygon fill="none" stroke="#2e8b57" stroke-width="2" points="263.5,-36 136.5,-36 136.5,0 269.5,0 269.5,-30 263.5,-36"/>
<polyline fill="none" stroke="#2e8b57" stroke-width="2" points="263.5,-36 263.5,-30 "/>
<polyline fill="none" stroke="#2e8b57" stroke-width="2" points="269.5,-30 263.5,-30 "/>
<text text-anchor="middle" x="203" y="-14.3" font-family="Times,serif" font-size="14.00" fill="#000000">method&#45;coverage.csv</text>
</g>
<!-- coverage&#45;&gt;method&#45;coverage.csv -->
<g id="edge2" class="edge">
<title>coverage&#45;&gt;method&#45;coverage.csv</title>
<path fill="none" stroke="#000000" d="M149.1686,-71.8314C157.7152,-63.2848 168.0557,-52.9443 177.3802,-43.6198"/>
<polygon fill="#000000" stroke="#000000" points="179.9905,-45.9592 184.5867,-36.4133 175.0408,-41.0095 179.9905,-45.9592"/>
</g>
</g>
</svg>
