<svg xmlns="http://www.w3.org/2000/svg" xmlns:xlink="http://www.w3.org/1999/xlink" width="278pt" height="116pt" viewBox="0 0 277.5 116"><g id="graph0" class="graph" transform="scale(1 1) rotate(0) translate(4 112)"><title>optimizer</title><polygon fill="#fff" stroke="transparent" points="-4 4 -4 -112 273.5 -112 273.5 4 -4 4"/><g id="node1" class="node"><title>coverage</title><polygon fill="none" stroke="#000" points="163.5 -108 160.5 -112 139.5 -112 136.5 -108 98.5 -108 98.5 -72 163.5 -72 163.5 -108"/><text x="131" y="-86.3" fill="#000" font-family="Times,serif" font-size="14" text-anchor="middle">coverage</text></g><g id="node2" class="node"><title>class-coverage.csv</title><polygon fill="none" stroke="#2e8b57" stroke-width="2" points="112 -36 0 -36 0 0 118 0 118 -30 112 -36"/><polyline fill="none" stroke="#2e8b57" stroke-width="2" points="112 -36 112 -30"/><polyline fill="none" stroke="#2e8b57" stroke-width="2" points="118 -30 112 -30"/><text x="59" y="-14.3" fill="#000" font-family="Times,serif" font-size="14" text-anchor="middle">class-coverage.csv</text></g><g id="edge1" class="edge"><title>coverage-&gt;class-coverage.csv</title><path fill="none" stroke="#000" d="M112.8314,-71.8314C104.2848,-63.2848 93.9443,-52.9443 84.6198,-43.6198"/><polygon fill="#000" stroke="#000" points="86.959 -41.01 77.413 -36.413 82.01 -45.959 86.959 -41.01"/></g><g id="node3" class="node"><title>method-coverage.csv</title><polygon fill="none" stroke="#2e8b57" stroke-width="2" points="263.5 -36 136.5 -36 136.5 0 269.5 0 269.5 -30 263.5 -36"/><polyline fill="none" stroke="#2e8b57" stroke-width="2" points="263.5 -36 263.5 -30"/><polyline fill="none" stroke="#2e8b57" stroke-width="2" points="269.5 -30 263.5 -30"/><text x="203" y="-14.3" fill="#000" font-family="Times,serif" font-size="14" text-anchor="middle">method-coverage.csv</text></g><g id="edge2" class="edge"><title>coverage-&gt;method-coverage.csv</title><path fill="none" stroke="#000" d="M149.1686,-71.8314C157.7152,-63.2848 168.0557,-52.9443 177.3802,-43.6198"/><polygon fill="#000" stroke="#000" points="179.99 -45.959 184.587 -36.413 175.041 -41.01 179.99 -45.959"/></g></g></svg>