<svg xmlns="http://www.w3.org/2000/svg" xmlns:xlink="http://www.w3.org/1999/xlink" width="817pt" height="260pt" viewBox="0 0 816.5 260"><g id="graph0" class="graph" transform="scale(1 1) rotate(0) translate(4 256)"><title>optimizer</title><polygon fill="#fff" stroke="transparent" points="-4 4 -4 -256 812.5 -256 812.5 4 -4 4"/><g id="node1" class="node"><title>src</title><polygon fill="none" stroke="#000" points="117 -252 114 -256 93 -256 90 -252 63 -252 63 -216 117 -216 117 -252"/><text x="90" y="-230.3" fill="#000" font-family="Times,serif" font-size="14" text-anchor="middle">src</text></g><g id="node2" class="node"><title>Foo.m</title><polygon fill="none" stroke="#000" points="54 -180 51 -184 30 -184 27 -180 0 -180 0 -144 54 -144 54 -180"/><text x="27" y="-158.3" fill="#000" font-family="Times,serif" font-size="14" text-anchor="middle">Foo.m</text></g><g id="edge1" class="edge"><title>src-&gt;Foo.m</title><path fill="none" stroke="#000" d="M74.1024,-215.8314C66.7722,-207.454 57.934,-197.3531 49.9031,-188.1749"/><polygon fill="#000" stroke="#000" points="52.331 -185.634 43.112 -180.413 47.063 -190.244 52.331 -185.634"/></g><g id="node3" class="node"><title>Foo+Bar.m</title><polygon fill="none" stroke="#000" points="152 -180 149 -184 128 -184 125 -180 72 -180 72 -144 152 -144 152 -180"/><text x="112" y="-158.3" fill="#000" font-family="Times,serif" font-size="14" text-anchor="middle">Foo+Bar.m</text></g><g id="edge2" class="edge"><title>src-&gt;Foo+Bar.m</title><path fill="none" stroke="#000" d="M95.5515,-215.8314C97.9303,-208.0463 100.7638,-198.7729 103.4033,-190.1347"/><polygon fill="#000" stroke="#000" points="106.799 -191 106.374 -180.413 100.104 -188.954 106.799 -191"/></g><g id="node4" class="node"><title>dependencies</title><polygon fill="none" stroke="#000" points="265.5 -252 262.5 -256 241.5 -256 238.5 -252 176.5 -252 176.5 -216 265.5 -216 265.5 -252"/><text x="221" y="-230.3" fill="#000" font-family="Times,serif" font-size="14" text-anchor="middle">dependencies</text></g><g id="node5" class="node"><title>include</title><polygon fill="none" stroke="#000" points="228 -180 225 -184 204 -184 201 -180 172 -180 172 -144 228 -144 228 -180"/><text x="200" y="-158.3" fill="#000" font-family="Times,serif" font-size="14" text-anchor="middle">include</text></g><g id="edge3" class="edge"><title>dependencies-&gt;include</title><path fill="none" stroke="#000" d="M215.7008,-215.8314C213.4302,-208.0463 210.7254,-198.7729 208.206,-190.1347"/><polygon fill="#000" stroke="#000" points="211.531 -189.033 205.37 -180.413 204.811 -190.993 211.531 -189.033"/></g><g id="node8" class="node"><title>lib</title><polygon fill="none" stroke="#000" points="301 -180 298 -184 277 -184 274 -180 247 -180 247 -144 301 -144 301 -180"/><text x="274" y="-158.3" fill="#000" font-family="Times,serif" font-size="14" text-anchor="middle">lib</text></g><g id="edge6" class="edge"><title>dependencies-&gt;lib</title><path fill="none" stroke="#000" d="M234.3741,-215.8314C240.4162,-207.6232 247.6763,-197.7606 254.3221,-188.7323"/><polygon fill="#000" stroke="#000" points="257.336 -190.542 260.446 -180.413 251.699 -186.392 257.336 -190.542"/></g><g id="node6" class="node"><title>Foo</title><polygon fill="none" stroke="#000" points="226 -108 223 -112 202 -112 199 -108 172 -108 172 -72 226 -72 226 -108"/><text x="199" y="-86.3" fill="#000" font-family="Times,serif" font-size="14" text-anchor="middle">Foo</text></g><g id="edge4" class="edge"><title>include-&gt;Foo</title><path fill="none" stroke="#000" d="M199.7477,-143.8314C199.6407,-136.131 199.5135,-126.9743 199.3947,-118.4166"/><polygon fill="#000" stroke="#000" points="202.894 -118.364 199.256 -108.413 195.895 -118.461 202.894 -118.364"/></g><g id="node7" class="node"><title>dependencies.inc</title><polygon fill="none" stroke="#000" points="248 -36 144 -36 144 0 254 0 254 -30 248 -36"/><polyline fill="none" stroke="#000" points="248 -36 248 -30"/><polyline fill="none" stroke="#000" points="254 -30 248 -30"/><text x="199" y="-14.3" fill="#000" font-family="Times,serif" font-size="14" text-anchor="middle">dependencies.inc</text></g><g id="edge5" class="edge"><title>Foo-&gt;dependencies.inc</title><path fill="none" stroke="#000" d="M199,-71.8314C199,-64.131 199,-54.9743 199,-46.4166"/><polygon fill="#000" stroke="#000" points="202.5 -46.413 199 -36.413 195.5 -46.413 202.5 -46.413"/></g><g id="node9" class="node"><title>libFoo.a</title><polygon fill="none" stroke="#000" points="300 -108 244 -108 244 -72 306 -72 306 -102 300 -108"/><polyline fill="none" stroke="#000" points="300 -108 300 -102"/><polyline fill="none" stroke="#000" points="306 -102 300 -102"/><text x="275" y="-86.3" fill="#000" font-family="Times,serif" font-size="14" text-anchor="middle">libFoo.a</text></g><g id="edge7" class="edge"><title>lib-&gt;libFoo.a</title><path fill="none" stroke="#000" d="M274.2523,-143.8314C274.3593,-136.131 274.4865,-126.9743 274.6053,-118.4166"/><polygon fill="#000" stroke="#000" points="278.105 -118.461 274.744 -108.413 271.106 -118.364 278.105 -118.461"/></g><g id="node10" class="node"><title>build</title><polygon fill="none" stroke="#000" points="682 -252 679 -256 658 -256 655 -252 628 -252 628 -216 682 -216 682 -252"/><text x="655" y="-230.3" fill="#000" font-family="Times,serif" font-size="14" text-anchor="middle">build</text></g><g id="node11" class="node"><title>Foo.d</title><polygon fill="none" stroke="#000" points="587 -180 584 -184 563 -184 560 -180 533 -180 533 -144 587 -144 587 -180"/><text x="560" y="-158.3" fill="#000" font-family="Times,serif" font-size="14" text-anchor="middle">Foo.d</text></g><g id="edge8" class="edge"><title>build-&gt;Foo.d</title><path fill="none" stroke="#000" d="M631.0275,-215.8314C619.2139,-206.8779 604.8028,-195.9558 592.0565,-186.2955"/><polygon fill="#000" stroke="#000" points="594.049 -183.414 583.965 -180.163 589.821 -188.993 594.049 -183.414"/></g><g id="node17" class="node"><title>method_db.csv</title><polygon fill="none" stroke="#000" points="705 -180 702 -184 681 -184 678 -180 605 -180 605 -144 705 -144 705 -180"/><text x="655" y="-158.3" fill="#000" font-family="Times,serif" font-size="14" text-anchor="middle">method_db.csv</text></g><g id="edge14" class="edge"><title>build-&gt;method_db.csv</title><path fill="none" stroke="#000" d="M655,-215.8314C655,-208.131 655,-198.9743 655,-190.4166"/><polygon fill="#000" stroke="#000" points="658.5 -190.413 655 -180.413 651.5 -190.413 658.5 -190.413"/></g><g id="node18" class="node"><title>class_db.csv</title><polygon fill="none" stroke="#000" points="808.5 -180 805.5 -184 784.5 -184 781.5 -180 723.5 -180 723.5 -144 808.5 -144 808.5 -180"/><text x="766" y="-158.3" fill="#000" font-family="Times,serif" font-size="14" text-anchor="middle">class_db.csv</text></g><g id="edge15" class="edge"><title>build-&gt;class_db.csv</title><path fill="none" stroke="#000" d="M682.1537,-216.3868C696.3179,-207.1992 713.8493,-195.8275 729.2136,-185.8615"/><polygon fill="#000" stroke="#000" points="731.483 -188.561 737.968 -180.183 727.673 -182.689 731.483 -188.561"/></g><g id="node12" class="node"><title>dependencies.db</title><polygon fill="none" stroke="#000" points="425.5 -108 324.5 -108 324.5 -72 431.5 -72 431.5 -102 425.5 -108"/><polyline fill="none" stroke="#000" points="425.5 -108 425.5 -102"/><polyline fill="none" stroke="#000" points="431.5 -102 425.5 -102"/><text x="378" y="-86.3" fill="#000" font-family="Times,serif" font-size="14" text-anchor="middle">dependencies.db</text></g><g id="edge9" class="edge"><title>Foo.d-&gt;dependencies.db</title><path fill="none" stroke="#000" d="M532.7528,-151.2209C506.5789,-140.8664 466.2643,-124.9178 433.3445,-111.8945"/><polygon fill="#000" stroke="#000" points="434.419 -108.556 423.833 -108.132 431.844 -115.065 434.419 -108.556"/></g><g id="node13" class="node"><title>Foo.o</title><polygon fill="none" stroke="#000" points="498 -108 450 -108 450 -72 504 -72 504 -102 498 -108"/><polyline fill="none" stroke="#000" points="498 -108 498 -102"/><polyline fill="none" stroke="#000" points="504 -102 498 -102"/><text x="477" y="-86.3" fill="#000" font-family="Times,serif" font-size="14" text-anchor="middle">Foo.o</text></g><g id="edge10" class="edge"><title>Foo.d-&gt;Foo.o</title><path fill="none" stroke="#000" d="M539.0556,-143.8314C528.9309,-135.0485 516.6223,-124.3712 505.6452,-114.8489"/><polygon fill="#000" stroke="#000" points="507.785 -112.072 497.938 -108.163 503.198 -117.359 507.785 -112.072"/></g><g id="node14" class="node"><title>Foo+Bar.o</title><polygon fill="none" stroke="#000" points="592 -108 522 -108 522 -72 598 -72 598 -102 592 -108"/><polyline fill="none" stroke="#000" points="592 -108 592 -102"/><polyline fill="none" stroke="#000" points="598 -102 592 -102"/><text x="560" y="-86.3" fill="#000" font-family="Times,serif" font-size="14" text-anchor="middle">Foo+Bar.o</text></g><g id="edge11" class="edge"><title>Foo.d-&gt;Foo+Bar.o</title><path fill="none" stroke="#000" d="M560,-143.8314C560,-136.131 560,-126.9743 560,-118.4166"/><polygon fill="#000" stroke="#000" points="563.5 -118.413 560 -108.413 556.5 -118.413 563.5 -118.413"/></g><g id="node15" class="node"><title>class.db</title><polygon fill="none" stroke="#000" points="670 -108 616 -108 616 -72 676 -72 676 -102 670 -108"/><polyline fill="none" stroke="#000" points="670 -108 670 -102"/><polyline fill="none" stroke="#000" points="676 -102 670 -102"/><text x="646" y="-86.3" fill="#000" font-family="Times,serif" font-size="14" text-anchor="middle">class.db</text></g><g id="edge12" class="edge"><title>Foo.d-&gt;class.db</title><path fill="none" stroke="#000" d="M581.7014,-143.8314C592.1921,-135.0485 604.9455,-124.3712 616.3194,-114.8489"/><polygon fill="#000" stroke="#000" points="618.885 -117.266 624.306 -108.163 614.391 -111.899 618.885 -117.266"/></g><g id="node16" class="node"><title>method.db</title><polygon fill="none" stroke="#000" points="763.5 -108 694.5 -108 694.5 -72 769.5 -72 769.5 -102 763.5 -108"/><polyline fill="none" stroke="#000" points="763.5 -108 763.5 -102"/><polyline fill="none" stroke="#000" points="769.5 -102 763.5 -102"/><text x="732" y="-86.3" fill="#000" font-family="Times,serif" font-size="14" text-anchor="middle">method.db</text></g><g id="edge13" class="edge"><title>Foo.d-&gt;method.db</title><path fill="none" stroke="#000" d="M587.0078,-148.1854C590.0242,-146.7354 593.0661,-145.3131 596,-144 612.4616,-136.6327 652.4982,-120.8267 684.8953,-108.2088"/><polygon fill="#000" stroke="#000" points="686.184 -111.463 694.236 -104.577 683.647 -104.939 686.184 -111.463"/></g></g></svg>