<?xml version="1.0" encoding="UTF-8" standalone="no"?>
<!DOCTYPE svg PUBLIC "-//W3C//DTD SVG 1.1//EN"
 "http://www.w3.org/Graphics/SVG/1.1/DTD/svg11.dtd">
<!-- Generated by graphviz version 2.40.1 (20161225.0304)
 -->
<!-- Title: optimizer Pages: 1 -->
<svg width="227pt" height="332pt"
 viewBox="0.00 0.00 226.50 332.00" xmlns="http://www.w3.org/2000/svg" xmlns:xlink="http://www.w3.org/1999/xlink">
<g id="graph0" class="graph" transform="scale(1 1) rotate(0) translate(4 328)">
<title>optimizer</title>
<polygon fill="#ffffff" stroke="transparent" points="-4,4 -4,-328 222.5,-328 222.5,4 -4,4"/>
<!-- libFoo.a -->
<g id="node1" class="node">
<title>libFoo.a</title>
<polygon fill="none" stroke="#0000ff" stroke-width="2" points="212.5,-108 156.5,-108 156.5,-72 218.5,-72 218.5,-102 212.5,-108"/>
<polyline fill="none" stroke="#0000ff" stroke-width="2" points="212.5,-108 212.5,-102 "/>
<polyline fill="none" stroke="#0000ff" stroke-width="2" points="218.5,-102 212.5,-102 "/>
<text text-anchor="middle" x="187.5" y="-86.3" font-family="Times,serif" font-size="14.00" fill="#000000">libFoo.a</text>
</g>
<!-- main.m -->
<g id="node2" class="node">
<title>main.m</title>
<polygon fill="none" stroke="#a020f0" stroke-width="2" points="53,-180 0,-180 0,-144 59,-144 59,-174 53,-180"/>
<polyline fill="none" stroke="#a020f0" stroke-width="2" points="53,-180 53,-174 "/>
<polyline fill="none" stroke="#a020f0" stroke-width="2" points="59,-174 53,-174 "/>
<text text-anchor="middle" x="29.5" y="-158.3" font-family="Times,serif" font-size="14.00" fill="#000000">main.m</text>
</g>
<!-- myexe -->
<g id="node3" class="node">
<title>myexe</title>
<polygon fill="none" stroke="#000000" points="101.5,-324 98.5,-328 77.5,-328 74.5,-324 47.5,-324 47.5,-288 101.5,-288 101.5,-324"/>
<text text-anchor="middle" x="74.5" y="-302.3" font-family="Times,serif" font-size="14.00" fill="#000000">myexe</text>
</g>
<!-- src -->
<g id="node4" class="node">
<title>src</title>
<polygon fill="none" stroke="#000000" points="56.5,-252 53.5,-256 32.5,-256 29.5,-252 2.5,-252 2.5,-216 56.5,-216 56.5,-252"/>
<text text-anchor="middle" x="29.5" y="-230.3" font-family="Times,serif" font-size="14.00" fill="#000000">src</text>
</g>
<!-- myexe&#45;&gt;src -->
<g id="edge1" class="edge">
<title>myexe&#45;&gt;src</title>
<path fill="none" stroke="#000000" d="M63.1446,-287.8314C58.0674,-279.7079 51.9773,-269.9637 46.3824,-261.0118"/>
<polygon fill="#000000" stroke="#000000" points="49.2763,-259.0383 41.0083,-252.4133 43.3403,-262.7483 49.2763,-259.0383"/>
</g>
<!-- dependencies -->
<g id="node5" class="node">
<title>dependencies</title>
<polygon fill="none" stroke="#000000" points="164,-252 161,-256 140,-256 137,-252 75,-252 75,-216 164,-216 164,-252"/>
<text text-anchor="middle" x="119.5" y="-230.3" font-family="Times,serif" font-size="14.00" fill="#000000">dependencies</text>
</g>
<!-- myexe&#45;&gt;dependencies -->
<g id="edge3" class="edge">
<title>myexe&#45;&gt;dependencies</title>
<path fill="none" stroke="#000000" d="M85.8554,-287.8314C90.9326,-279.7079 97.0227,-269.9637 102.6176,-261.0118"/>
<polygon fill="#000000" stroke="#000000" points="105.6597,-262.7483 107.9917,-252.4133 99.7237,-259.0383 105.6597,-262.7483"/>
</g>
<!-- src&#45;&gt;main.m -->
<g id="edge2" class="edge">
<title>src&#45;&gt;main.m</title>
<path fill="none" stroke="#000000" d="M29.5,-215.8314C29.5,-208.131 29.5,-198.9743 29.5,-190.4166"/>
<polygon fill="#000000" stroke="#000000" points="33.0001,-190.4132 29.5,-180.4133 26.0001,-190.4133 33.0001,-190.4132"/>
</g>
<!-- include -->
<g id="node6" class="node">
<title>include</title>
<polygon fill="none" stroke="#000000" points="140.5,-180 137.5,-184 116.5,-184 113.5,-180 84.5,-180 84.5,-144 140.5,-144 140.5,-180"/>
<text text-anchor="middle" x="112.5" y="-158.3" font-family="Times,serif" font-size="14.00" fill="#000000">include</text>
</g>
<!-- dependencies&#45;&gt;include -->
<g id="edge4" class="edge">
<title>dependencies&#45;&gt;include</title>
<path fill="none" stroke="#000000" d="M117.7336,-215.8314C116.985,-208.131 116.0947,-198.9743 115.2627,-190.4166"/>
<polygon fill="#000000" stroke="#000000" points="118.7415,-190.0276 114.2902,-180.4133 111.7744,-190.7051 118.7415,-190.0276"/>
</g>
<!-- lib -->
<g id="node9" class="node">
<title>lib</title>
<polygon fill="none" stroke="#000000" points="213.5,-180 210.5,-184 189.5,-184 186.5,-180 159.5,-180 159.5,-144 213.5,-144 213.5,-180"/>
<text text-anchor="middle" x="186.5" y="-158.3" font-family="Times,serif" font-size="14.00" fill="#000000">lib</text>
</g>
<!-- dependencies&#45;&gt;lib -->
<g id="edge7" class="edge">
<title>dependencies&#45;&gt;lib</title>
<path fill="none" stroke="#000000" d="M136.4069,-215.8314C144.2813,-207.3694 153.792,-197.1489 162.4013,-187.8971"/>
<polygon fill="#000000" stroke="#000000" points="165.1153,-190.1183 169.3654,-180.4133 159.9908,-185.3497 165.1153,-190.1183"/>
</g>
<!-- Foo -->
<g id="node7" class="node">
<title>Foo</title>
<polygon fill="none" stroke="#000000" points="138.5,-108 135.5,-112 114.5,-112 111.5,-108 84.5,-108 84.5,-72 138.5,-72 138.5,-108"/>
<text text-anchor="middle" x="111.5" y="-86.3" font-family="Times,serif" font-size="14.00" fill="#000000">Foo</text>
</g>
<!-- include&#45;&gt;Foo -->
<g id="edge5" class="edge">
<title>include&#45;&gt;Foo</title>
<path fill="none" stroke="#000000" d="M112.2477,-143.8314C112.1407,-136.131 112.0135,-126.9743 111.8947,-118.4166"/>
<polygon fill="#000000" stroke="#000000" points="115.3944,-118.3637 111.7557,-108.4133 108.3951,-118.4609 115.3944,-118.3637"/>
</g>
<!-- dependencies.inc -->
<g id="node8" class="node">
<title>dependencies.inc</title>
<polygon fill="none" stroke="#daa520" stroke-width="2" points="160.5,-36 56.5,-36 56.5,0 166.5,0 166.5,-30 160.5,-36"/>
<polyline fill="none" stroke="#daa520" stroke-width="2" points="160.5,-36 160.5,-30 "/>
<polyline fill="none" stroke="#daa520" stroke-width="2" points="166.5,-30 160.5,-30 "/>
<text text-anchor="middle" x="111.5" y="-14.3" font-family="Times,serif" font-size="14.00" fill="#000000">dependencies.inc</text>
</g>
<!-- Foo&#45;&gt;dependencies.inc -->
<g id="edge6" class="edge">
<title>Foo&#45;&gt;dependencies.inc</title>
<path fill="none" stroke="#000000" d="M111.5,-71.8314C111.5,-64.131 111.5,-54.9743 111.5,-46.4166"/>
<polygon fill="#000000" stroke="#000000" points="115.0001,-46.4132 111.5,-36.4133 108.0001,-46.4133 115.0001,-46.4132"/>
</g>
<!-- lib&#45;&gt;libFoo.a -->
<g id="edge8" class="edge">
<title>lib&#45;&gt;libFoo.a</title>
<path fill="none" stroke="#000000" d="M186.7523,-143.8314C186.8593,-136.131 186.9865,-126.9743 187.1053,-118.4166"/>
<polygon fill="#000000" stroke="#000000" points="190.6049,-118.4609 187.2443,-108.4133 183.6056,-118.3637 190.6049,-118.4609"/>
</g>
</g>
</svg>
