<svg xmlns="http://www.w3.org/2000/svg" xmlns:xlink="http://www.w3.org/1999/xlink" width="1276" height="188pt" viewBox="0 0 956.5 188"><g id="graph0" class="graph" transform="scale(1 1) rotate(0) translate(4 184)"><title>optimizer</title><polygon fill="#fff" stroke="transparent" points="-4 4 -4 -184 952.5 -184 952.5 4 -4 4"/><g id="node1" class="node"><title>unarchive</title><polygon fill="none" stroke="#000" points="198 -180 195 -184 174 -184 171 -180 128 -180 128 -144 198 -144 198 -180"/><text x="163" y="-158.3" fill="#000" font-family="Times,serif" font-size="14" text-anchor="middle">unarchive</text></g><g id="node2" class="node"><title>Foo.d</title><polygon fill="none" stroke="#000" points="184 -108 136 -108 136 -72 190 -72 190 -102 184 -108"/><polyline fill="none" stroke="#000" points="184 -108 184 -102"/><polyline fill="none" stroke="#000" points="190 -102 184 -102"/><text x="163" y="-86.3" fill="#000" font-family="Times,serif" font-size="14" text-anchor="middle">Foo.d</text></g><g id="edge1" class="edge"><title>unarchive-&gt;Foo.d</title><path fill="none" stroke="#000" d="M163,-143.8314C163,-136.131 163,-126.9743 163,-118.4166"/><polygon fill="#000" stroke="#000" points="166.5 -118.413 163 -108.413 159.5 -118.413 166.5 -118.413"/></g><g id="node3" class="node"><title>Foo.o</title><polygon fill="none" stroke="#000" points="48 -36 0 -36 0 0 54 0 54 -30 48 -36"/><polyline fill="none" stroke="#000" points="48 -36 48 -30"/><polyline fill="none" stroke="#000" points="54 -30 48 -30"/><text x="27" y="-14.3" fill="#000" font-family="Times,serif" font-size="14" text-anchor="middle">Foo.o</text></g><g id="edge2" class="edge"><title>Foo.d-&gt;Foo.o</title><path fill="none" stroke="#000" d="M135.8052,-75.6028C114.9576,-64.5658 85.99,-49.23 63.1853,-37.1569"/><polygon fill="#000" stroke="#000" points="64.623 -33.958 54.148 -32.372 61.348 -40.145 64.623 -33.958"/></g><g id="node4" class="node"><title>Foo+Bar.o</title><polygon fill="none" stroke="#000" points="142 -36 72 -36 72 0 148 0 148 -30 142 -36"/><polyline fill="none" stroke="#000" points="142 -36 142 -30"/><polyline fill="none" stroke="#000" points="148 -30 142 -30"/><text x="110" y="-14.3" fill="#000" font-family="Times,serif" font-size="14" text-anchor="middle">Foo+Bar.o</text></g><g id="edge3" class="edge"><title>Foo.d-&gt;Foo+Bar.o</title><path fill="none" stroke="#000" d="M149.6259,-71.8314C143.5838,-63.6232 136.3237,-53.7606 129.6779,-44.7323"/><polygon fill="#000" stroke="#000" points="132.301 -42.392 123.554 -36.413 126.664 -46.541 132.301 -42.392"/></g><g id="node5" class="node"><title>method_db.csv</title><polygon fill="none" stroke="#2e8b57" stroke-width="2" points="260 -36 166 -36 166 0 266 0 266 -30 260 -36"/><polyline fill="none" stroke="#2e8b57" stroke-width="2" points="260 -36 260 -30"/><polyline fill="none" stroke="#2e8b57" stroke-width="2" points="266 -30 260 -30"/><text x="216" y="-14.3" fill="#000" font-family="Times,serif" font-size="14" text-anchor="middle">method_db.csv</text></g><g id="edge4" class="edge"><title>Foo.d-&gt;method_db.csv</title><path fill="none" stroke="#000" d="M176.3741,-71.8314C182.4162,-63.6232 189.6763,-53.7606 196.3221,-44.7323"/><polygon fill="#000" stroke="#000" points="199.336 -46.541 202.446 -36.413 193.699 -42.392 199.336 -46.541"/></g><g id="node6" class="node"><title>class_db.csv</title><polygon fill="none" stroke="#2e8b57" stroke-width="2" points="363.5 -36 284.5 -36 284.5 0 369.5 0 369.5 -30 363.5 -36"/><polyline fill="none" stroke="#2e8b57" stroke-width="2" points="363.5 -36 363.5 -30"/><polyline fill="none" stroke="#2e8b57" stroke-width="2" points="369.5 -30 363.5 -30"/><text x="327" y="-14.3" fill="#000" font-family="Times,serif" font-size="14" text-anchor="middle">class_db.csv</text></g><g id="edge5" class="edge"><title>Foo.d-&gt;class_db.csv</title><path fill="none" stroke="#000" d="M190.0813,-78.1107C213.4583,-67.8476 247.8563,-52.746 276.3254,-40.2474"/><polygon fill="#000" stroke="#000" points="277.979 -43.344 285.728 -36.119 275.165 -36.934 277.979 -43.344"/></g><g id="node7" class="node"><title>optimize</title><polygon fill="none" stroke="#000" points="746.5 -180 743.5 -184 722.5 -184 719.5 -180 681.5 -180 681.5 -144 746.5 -144 746.5 -180"/><text x="714" y="-158.3" fill="#000" font-family="Times,serif" font-size="14" text-anchor="middle">optimize</text></g><g id="node8" class="node"><title>Foo2.d</title><polygon fill="none" stroke="#000" points="493 -108 490 -112 469 -112 466 -108 439 -108 439 -72 493 -72 493 -108"/><text x="466" y="-86.3" fill="#000" font-family="Times,serif" font-size="14" text-anchor="middle">Foo.d</text></g><g id="edge6" class="edge"><title>optimize-&gt;Foo2.d</title><path fill="none" stroke="#000" d="M681.379,-155.956C641.0739,-148.0016 570.4621,-132.4767 502.7754,-107.9069"/><polygon fill="#000" stroke="#000" points="503.841 -104.569 493.247 -104.38 501.41 -111.134 503.841 -104.569"/></g><g id="node10" class="node"><title>class-coverage.csv</title><polygon fill="none" stroke="#2e8b57" stroke-width="2" points="623 -108 511 -108 511 -72 629 -72 629 -102 623 -108"/><polyline fill="none" stroke="#2e8b57" stroke-width="2" points="623 -108 623 -102"/><polyline fill="none" stroke="#2e8b57" stroke-width="2" points="629 -102 623 -102"/><text x="570" y="-86.3" fill="#000" font-family="Times,serif" font-size="14" text-anchor="middle">class-coverage.csv</text></g><g id="edge8" class="edge"><title>optimize-&gt;class-coverage.csv</title><path fill="none" stroke="#000" d="M681.3242,-145.6621C661.72,-135.86 636.5051,-123.2526 615.0314,-112.5157"/><polygon fill="#000" stroke="#000" points="616.594 -109.384 606.085 -108.042 613.464 -115.645 616.594 -109.384"/></g><g id="node11" class="node"><title>method-coverage.csv</title><polygon fill="none" stroke="#2e8b57" stroke-width="2" points="774.5 -108 647.5 -108 647.5 -72 780.5 -72 780.5 -102 774.5 -108"/><polyline fill="none" stroke="#2e8b57" stroke-width="2" points="774.5 -108 774.5 -102"/><polyline fill="none" stroke="#2e8b57" stroke-width="2" points="780.5 -102 774.5 -102"/><text x="714" y="-86.3" fill="#000" font-family="Times,serif" font-size="14" text-anchor="middle">method-coverage.csv</text></g><g id="edge9" class="edge"><title>optimize-&gt;method-coverage.csv</title><path fill="none" stroke="#000" d="M714,-143.8314C714,-136.131 714,-126.9743 714,-118.4166"/><polygon fill="#000" stroke="#000" points="717.5 -118.413 714 -108.413 710.5 -118.413 717.5 -118.413"/></g><g id="node12" class="node"><title>lib_c.a</title><polygon fill="none" stroke="#00f" stroke-width="2" points="847 -108 799 -108 799 -72 853 -72 853 -102 847 -108"/><polyline fill="none" stroke="#00f" stroke-width="2" points="847 -108 847 -102"/><polyline fill="none" stroke="#00f" stroke-width="2" points="853 -102 847 -102"/><text x="826" y="-86.3" fill="#000" font-family="Times,serif" font-size="14" text-anchor="middle">lib_c.a</text></g><g id="edge10" class="edge"><title>optimize-&gt;lib_c.a</title><path fill="none" stroke="#000" d="M742.2623,-143.8314C756.7802,-134.4984 774.6255,-123.0264 790.1068,-113.0742"/><polygon fill="#000" stroke="#000" points="792.387 -115.769 798.906 -107.418 788.601 -109.881 792.387 -115.769"/></g><g id="node13" class="node"><title>lib_ObjC.a</title><polygon fill="none" stroke="#00f" stroke-width="2" points="942.5 -108 871.5 -108 871.5 -72 948.5 -72 948.5 -102 942.5 -108"/><polyline fill="none" stroke="#00f" stroke-width="2" points="942.5 -108 942.5 -102"/><polyline fill="none" stroke="#00f" stroke-width="2" points="948.5 -102 942.5 -102"/><text x="910" y="-86.3" fill="#000" font-family="Times,serif" font-size="14" text-anchor="middle">lib_ObjC.a</text></g><g id="edge11" class="edge"><title>optimize-&gt;lib_ObjC.a</title><path fill="none" stroke="#000" d="M746.657,-150.1792C776.6661,-139.2943 822.367,-122.6612 862,-108 862.0965,-107.9643 862.1931,-107.9285 862.2899,-107.8928"/><polygon fill="#000" stroke="#000" points="863.343 -111.235 871.499 -104.472 860.906 -104.673 863.343 -111.235"/></g><g id="node9" class="node"><title>MulleObjCLoader+Foo.o</title><polygon fill="none" stroke="#000" points="538.5 -36 387.5 -36 387.5 0 544.5 0 544.5 -30 538.5 -36"/><polyline fill="none" stroke="#000" points="538.5 -36 538.5 -30"/><polyline fill="none" stroke="#000" points="544.5 -30 538.5 -30"/><text x="466" y="-14.3" fill="#000" font-family="Times,serif" font-size="14" text-anchor="middle">MulleObjCLoader+Foo.o</text></g><g id="edge7" class="edge"><title>Foo2.d-&gt;MulleObjCLoader+Foo.o</title><path fill="none" stroke="#000" d="M466,-71.8314C466,-64.131 466,-54.9743 466,-46.4166"/><polygon fill="#000" stroke="#000" points="469.5 -46.413 466 -36.413 462.5 -46.413 469.5 -46.413"/></g></g></svg>