<svg xmlns="http://www.w3.org/2000/svg" xmlns:xlink="http://www.w3.org/1999/xlink" width="992pt" height="188pt" viewBox="0 0 992 188"><g id="graph0" class="graph" transform="scale(1 1) rotate(0) translate(4 184)"><title>optimizer</title><polygon fill="#fff" stroke="transparent" points="-4 4 -4 -184 988 -184 988 4 -4 4"/><g id="node1" class="node"><title>unarchive</title><polygon fill="none" stroke="#000" points="247.5 -180 244.5 -184 223.5 -184 220.5 -180 177.5 -180 177.5 -144 247.5 -144 247.5 -180"/><text x="212.5" y="-158.3" fill="#000" font-family="Times,serif" font-size="14" text-anchor="middle">unarchive</text></g><g id="node2" class="node"><title>Foo.d</title><polygon fill="none" stroke="#000" points="239.5 -108 236.5 -112 215.5 -112 212.5 -108 185.5 -108 185.5 -72 239.5 -72 239.5 -108"/><text x="212.5" y="-86.3" fill="#000" font-family="Times,serif" font-size="14" text-anchor="middle">Foo.d</text></g><g id="edge1" class="edge"><title>unarchive-&gt;Foo.d</title><path fill="none" stroke="#000" d="M212.5,-143.8314C212.5,-136.131 212.5,-126.9743 212.5,-118.4166"/><polygon fill="#000" stroke="#000" points="216 -118.413 212.5 -108.413 209 -118.413 216 -118.413"/></g><g id="node3" class="node"><title>class_db.csv</title><polygon fill="none" stroke="#2e8b57" stroke-width="2" points="79 -36 0 -36 0 0 85 0 85 -30 79 -36"/><polyline fill="none" stroke="#2e8b57" stroke-width="2" points="79 -36 79 -30"/><polyline fill="none" stroke="#2e8b57" stroke-width="2" points="85 -30 79 -30"/><text x="42.5" y="-14.3" fill="#000" font-family="Times,serif" font-size="14" text-anchor="middle">class_db.csv</text></g><g id="edge2" class="edge"><title>Foo.d-&gt;class_db.csv</title><path fill="none" stroke="#000" d="M185.1866,-78.432C160.7953,-68.1016 124.4048,-52.6891 94.4797,-40.0149"/><polygon fill="#000" stroke="#000" points="95.588 -36.683 85.014 -36.006 92.858 -43.129 95.588 -36.683"/></g><g id="node4" class="node"><title>method_db.csv</title><polygon fill="none" stroke="#2e8b57" stroke-width="2" points="197.5 -36 103.5 -36 103.5 0 203.5 0 203.5 -30 197.5 -36"/><polyline fill="none" stroke="#2e8b57" stroke-width="2" points="197.5 -36 197.5 -30"/><polyline fill="none" stroke="#2e8b57" stroke-width="2" points="203.5 -30 197.5 -30"/><text x="153.5" y="-14.3" fill="#000" font-family="Times,serif" font-size="14" text-anchor="middle">method_db.csv</text></g><g id="edge3" class="edge"><title>Foo.d-&gt;method_db.csv</title><path fill="none" stroke="#000" d="M197.6118,-71.8314C190.747,-63.454 182.4699,-53.3531 174.9489,-44.1749"/><polygon fill="#000" stroke="#000" points="177.634 -41.93 168.589 -36.413 172.22 -46.367 177.634 -41.93"/></g><g id="node5" class="node"><title>objc-loader.inc</title><polygon fill="none" stroke="#daa520" stroke-width="2" points="313.5 -36 221.5 -36 221.5 0 319.5 0 319.5 -30 313.5 -36"/><polyline fill="none" stroke="#daa520" stroke-width="2" points="313.5 -36 313.5 -30"/><polyline fill="none" stroke="#daa520" stroke-width="2" points="319.5 -30 313.5 -30"/><text x="270.5" y="-14.3" fill="#000" font-family="Times,serif" font-size="14" text-anchor="middle">objc-loader.inc</text></g><g id="edge4" class="edge"><title>Foo.d-&gt;objc-loader.inc</title><path fill="none" stroke="#000" d="M227.1358,-71.8314C233.8161,-63.5386 241.8568,-53.557 249.1904,-44.4533"/><polygon fill="#000" stroke="#000" points="252.119 -46.397 255.667 -36.413 246.668 -42.005 252.119 -46.397"/></g><g id="node6" class="node"><title>MulleObjCLoader+Foo.m</title><polygon fill="none" stroke="#000" stroke-width="2" points="493 -36 338 -36 338 0 499 0 499 -30 493 -36"/><polyline fill="none" stroke="#000" stroke-width="2" points="493 -36 493 -30"/><polyline fill="none" stroke="#000" stroke-width="2" points="499 -30 493 -30"/><text x="418.5" y="-14.3" fill="#000" font-family="Times,serif" font-size="14" text-anchor="middle">MulleObjCLoader+Foo.m</text></g><g id="edge5" class="edge"><title>Foo.d-&gt;MulleObjCLoader+Foo.m</title><path fill="none" stroke="#000" d="M239.8552,-80.439C269.6192,-70.036 318.1654,-53.0684 357.1437,-39.4449"/><polygon fill="#000" stroke="#000" points="358.545 -42.663 366.83 -36.059 356.235 -36.055 358.545 -42.663"/></g><g id="node7" class="node"><title>optimize</title><polygon fill="none" stroke="#000" points="657 -180 654 -184 633 -184 630 -180 592 -180 592 -144 657 -144 657 -180"/><text x="624.5" y="-158.3" fill="#000" font-family="Times,serif" font-size="14" text-anchor="middle">optimize</text></g><g id="node8" class="node"><title>class-coverage.csv</title><polygon fill="none" stroke="#2e8b57" stroke-width="2" points="533.5 -108 421.5 -108 421.5 -72 539.5 -72 539.5 -102 533.5 -108"/><polyline fill="none" stroke="#2e8b57" stroke-width="2" points="533.5 -108 533.5 -102"/><polyline fill="none" stroke="#2e8b57" stroke-width="2" points="539.5 -102 533.5 -102"/><text x="480.5" y="-86.3" fill="#000" font-family="Times,serif" font-size="14" text-anchor="middle">class-coverage.csv</text></g><g id="edge6" class="edge"><title>optimize-&gt;class-coverage.csv</title><path fill="none" stroke="#000" d="M591.8242,-145.6621C572.22,-135.86 547.0051,-123.2526 525.5314,-112.5157"/><polygon fill="#000" stroke="#000" points="527.094 -109.384 516.585 -108.042 523.964 -115.645 527.094 -109.384"/></g><g id="node9" class="node"><title>method-coverage.csv</title><polygon fill="none" stroke="#2e8b57" stroke-width="2" points="685 -108 558 -108 558 -72 691 -72 691 -102 685 -108"/><polyline fill="none" stroke="#2e8b57" stroke-width="2" points="685 -108 685 -102"/><polyline fill="none" stroke="#2e8b57" stroke-width="2" points="691 -102 685 -102"/><text x="624.5" y="-86.3" fill="#000" font-family="Times,serif" font-size="14" text-anchor="middle">method-coverage.csv</text></g><g id="edge7" class="edge"><title>optimize-&gt;method-coverage.csv</title><path fill="none" stroke="#000" d="M624.5,-143.8314C624.5,-136.131 624.5,-126.9743 624.5,-118.4166"/><polygon fill="#000" stroke="#000" points="628 -118.413 624.5 -108.413 621 -118.413 628 -118.413"/></g><g id="node10" class="node"><title>Foo2.d</title><polygon fill="none" stroke="#000" points="763.5 -108 760.5 -112 739.5 -112 736.5 -108 709.5 -108 709.5 -72 763.5 -72 763.5 -108"/><text x="736.5" y="-86.3" fill="#000" font-family="Times,serif" font-size="14" text-anchor="middle">Foo.d</text></g><g id="edge8" class="edge"><title>optimize-&gt;Foo2.d</title><path fill="none" stroke="#000" d="M652.7623,-143.8314C667.2802,-134.4984 685.1255,-123.0264 700.6068,-113.0742"/><polygon fill="#000" stroke="#000" points="702.887 -115.769 709.406 -107.418 699.101 -109.881 702.887 -115.769"/></g><g id="node11" class="node"><title>class-objc-loader.inc</title><polygon fill="none" stroke="#daa520" stroke-width="2" points="640 -36 517 -36 517 0 646 0 646 -30 640 -36"/><polyline fill="none" stroke="#daa520" stroke-width="2" points="640 -36 640 -30"/><polyline fill="none" stroke="#daa520" stroke-width="2" points="646 -30 640 -30"/><text x="581.5" y="-14.3" fill="#000" font-family="Times,serif" font-size="14" text-anchor="middle">class-objc-loader.inc</text></g><g id="edge9" class="edge"><title>Foo2.d-&gt;class-objc-loader.inc</title><path fill="none" stroke="#000" d="M709.4575,-76.7531C706.1097,-75.1401 702.73,-73.5245 699.5,-72 676.9604,-61.3618 651.8652,-49.8337 630.6324,-40.1714"/><polygon fill="#000" stroke="#000" points="632.033 -36.964 621.481 -36.013 629.137 -43.337 632.033 -36.964"/></g><g id="node12" class="node"><title>method-objc-loader.inc</title><polygon fill="none" stroke="#daa520" stroke-width="2" points="802.5 -36 664.5 -36 664.5 0 808.5 0 808.5 -30 802.5 -36"/><polyline fill="none" stroke="#daa520" stroke-width="2" points="802.5 -36 802.5 -30"/><polyline fill="none" stroke="#daa520" stroke-width="2" points="808.5 -30 802.5 -30"/><text x="736.5" y="-14.3" fill="#000" font-family="Times,serif" font-size="14" text-anchor="middle">method-objc-loader.inc</text></g><g id="edge10" class="edge"><title>Foo2.d-&gt;method-objc-loader.inc</title><path fill="none" stroke="#000" d="M736.5,-71.8314C736.5,-64.131 736.5,-54.9743 736.5,-46.4166"/><polygon fill="#000" stroke="#000" points="740 -46.413 736.5 -36.413 733 -46.413 740 -46.413"/></g><g id="node13" class="node"><title>MulleObjCLoader+Foo.o</title><polygon fill="none" stroke="#00f" stroke-width="2" points="978 -36 827 -36 827 0 984 0 984 -30 978 -36"/><polyline fill="none" stroke="#00f" stroke-width="2" points="978 -36 978 -30"/><polyline fill="none" stroke="#00f" stroke-width="2" points="984 -30 978 -30"/><text x="905.5" y="-14.3" fill="#000" font-family="Times,serif" font-size="14" text-anchor="middle">MulleObjCLoader+Foo.o</text></g><g id="edge11" class="edge"><title>Foo2.d-&gt;MulleObjCLoader+Foo.o</title><path fill="none" stroke="#000" d="M763.6528,-78.432C787.9005,-68.1016 824.077,-52.6891 853.826,-40.0149"/><polygon fill="#000" stroke="#000" points="855.408 -43.146 863.236 -36.006 852.664 -36.706 855.408 -43.146"/></g></g></svg>