<?xml version="1.0" encoding="UTF-8" standalone="no"?>
<!DOCTYPE svg PUBLIC "-//W3C//DTD SVG 1.1//EN"
 "http://www.w3.org/Graphics/SVG/1.1/DTD/svg11.dtd">
<!-- Generated by graphviz version 2.34.0 (20131231.1455)
 -->
<!-- Title: optimizer Pages: 1 -->
<svg width="820pt" height="260pt"
 viewBox="0.00 0.00 820.00 260.00" xmlns="http://www.w3.org/2000/svg" xmlns:xlink="http://www.w3.org/1999/xlink">
<g id="graph0" class="graph" transform="scale(1 1) rotate(0) translate(4 256)">
<title>optimizer</title>
<polygon fill="white" stroke="white" points="-4,4 -4,-256 816,-256 816,4 -4,4"/>
<!-- src -->
<g id="node1" class="node"><title>src</title>
<polygon fill="none" stroke="black" points="117,-252 114,-256 93,-256 90,-252 63,-252 63,-216 117,-216 117,-252"/>
<text text-anchor="middle" x="90" y="-228.4" font-family="Times,serif" font-size="14.00">src</text>
</g>
<!-- Foo.m -->
<g id="node2" class="node"><title>Foo.m</title>
<polygon fill="none" stroke="black" points="54,-180 51,-184 30,-184 27,-180 0,-180 0,-144 54,-144 54,-180"/>
<text text-anchor="middle" x="27" y="-156.4" font-family="Times,serif" font-size="14.00">Foo.m</text>
</g>
<!-- src&#45;&gt;Foo.m -->
<g id="edge1" class="edge"><title>src&#45;&gt;Foo.m</title>
<path fill="none" stroke="black" d="M74.427,-215.697C66.7978,-207.22 57.4772,-196.864 49.1243,-187.583"/>
<polygon fill="black" stroke="black" points="51.6851,-185.196 42.3939,-180.104 46.482,-189.879 51.6851,-185.196"/>
</g>
<!-- Foo+Bar.m -->
<g id="node3" class="node"><title>Foo+Bar.m</title>
<polygon fill="none" stroke="black" points="151.143,-180 148.143,-184 127.143,-184 124.143,-180 72.8566,-180 72.8566,-144 151.143,-144 151.143,-180"/>
<text text-anchor="middle" x="112" y="-156.4" font-family="Times,serif" font-size="14.00">Foo+Bar.m</text>
</g>
<!-- src&#45;&gt;Foo+Bar.m -->
<g id="edge2" class="edge"><title>src&#45;&gt;Foo+Bar.m</title>
<path fill="none" stroke="black" d="M95.4382,-215.697C97.8892,-207.898 100.84,-198.509 103.568,-189.829"/>
<polygon fill="black" stroke="black" points="106.965,-190.694 106.624,-180.104 100.287,-188.595 106.965,-190.694"/>
</g>
<!-- dependencies -->
<g id="node4" class="node"><title>dependencies</title>
<polygon fill="none" stroke="black" points="267.555,-252 264.555,-256 243.555,-256 240.555,-252 176.445,-252 176.445,-216 267.555,-216 267.555,-252"/>
<text text-anchor="middle" x="222" y="-228.4" font-family="Times,serif" font-size="14.00">dependencies</text>
</g>
<!-- include -->
<g id="node5" class="node"><title>include</title>
<polygon fill="none" stroke="black" points="228.405,-180 225.405,-184 204.405,-184 201.405,-180 171.595,-180 171.595,-144 228.405,-144 228.405,-180"/>
<text text-anchor="middle" x="200" y="-156.4" font-family="Times,serif" font-size="14.00">include</text>
</g>
<!-- dependencies&#45;&gt;include -->
<g id="edge3" class="edge"><title>dependencies&#45;&gt;include</title>
<path fill="none" stroke="black" d="M216.562,-215.697C214.111,-207.898 211.16,-198.509 208.432,-189.829"/>
<polygon fill="black" stroke="black" points="211.713,-188.595 205.376,-180.104 205.035,-190.694 211.713,-188.595"/>
</g>
<!-- lib -->
<g id="node8" class="node"><title>lib</title>
<polygon fill="none" stroke="black" points="302,-180 299,-184 278,-184 275,-180 248,-180 248,-144 302,-144 302,-180"/>
<text text-anchor="middle" x="275" y="-156.4" font-family="Times,serif" font-size="14.00">lib</text>
</g>
<!-- dependencies&#45;&gt;lib -->
<g id="edge6" class="edge"><title>dependencies&#45;&gt;lib</title>
<path fill="none" stroke="black" d="M235.101,-215.697C241.391,-207.389 249.047,-197.277 255.965,-188.141"/>
<polygon fill="black" stroke="black" points="258.804,-190.19 262.05,-180.104 253.223,-185.964 258.804,-190.19"/>
</g>
<!-- Foo -->
<g id="node6" class="node"><title>Foo</title>
<polygon fill="none" stroke="black" points="226,-108 223,-112 202,-112 199,-108 172,-108 172,-72 226,-72 226,-108"/>
<text text-anchor="middle" x="199" y="-84.4" font-family="Times,serif" font-size="14.00">Foo</text>
</g>
<!-- include&#45;&gt;Foo -->
<g id="edge4" class="edge"><title>include&#45;&gt;Foo</title>
<path fill="none" stroke="black" d="M199.753,-143.697C199.643,-135.983 199.51,-126.712 199.387,-118.112"/>
<polygon fill="black" stroke="black" points="202.887,-118.053 199.244,-108.104 195.888,-118.153 202.887,-118.053"/>
</g>
<!-- dependencies.inc -->
<g id="node7" class="node"><title>dependencies.inc</title>
<polygon fill="none" stroke="black" points="249.008,-36 142.992,-36 142.992,-0 255.008,-0 255.008,-30 249.008,-36"/>
<polyline fill="none" stroke="black" points="249.008,-36 249.008,-30 "/>
<polyline fill="none" stroke="black" points="255.008,-30 249.008,-30 "/>
<text text-anchor="middle" x="199" y="-12.4" font-family="Times,serif" font-size="14.00">dependencies.inc</text>
</g>
<!-- Foo&#45;&gt;dependencies.inc -->
<g id="edge5" class="edge"><title>Foo&#45;&gt;dependencies.inc</title>
<path fill="none" stroke="black" d="M199,-71.6966C199,-63.9827 199,-54.7125 199,-46.1124"/>
<polygon fill="black" stroke="black" points="202.5,-46.1043 199,-36.1043 195.5,-46.1044 202.5,-46.1043"/>
</g>
<!-- libFoo.a -->
<g id="node9" class="node"><title>libFoo.a</title>
<polygon fill="none" stroke="black" points="300.21,-108 243.79,-108 243.79,-72 306.21,-72 306.21,-102 300.21,-108"/>
<polyline fill="none" stroke="black" points="300.21,-108 300.21,-102 "/>
<polyline fill="none" stroke="black" points="306.21,-102 300.21,-102 "/>
<text text-anchor="middle" x="275" y="-84.4" font-family="Times,serif" font-size="14.00">libFoo.a</text>
</g>
<!-- lib&#45;&gt;libFoo.a -->
<g id="edge7" class="edge"><title>lib&#45;&gt;libFoo.a</title>
<path fill="none" stroke="black" d="M275,-143.697C275,-135.983 275,-126.712 275,-118.112"/>
<polygon fill="black" stroke="black" points="278.5,-118.104 275,-108.104 271.5,-118.104 278.5,-118.104"/>
</g>
<!-- build -->
<g id="node10" class="node"><title>build</title>
<polygon fill="none" stroke="black" points="684,-252 681,-256 660,-256 657,-252 630,-252 630,-216 684,-216 684,-252"/>
<text text-anchor="middle" x="657" y="-228.4" font-family="Times,serif" font-size="14.00">build</text>
</g>
<!-- Foo.d -->
<g id="node11" class="node"><title>Foo.d</title>
<polygon fill="none" stroke="black" points="588,-180 585,-184 564,-184 561,-180 534,-180 534,-144 588,-144 588,-180"/>
<text text-anchor="middle" x="561" y="-156.4" font-family="Times,serif" font-size="14.00">Foo.d</text>
</g>
<!-- build&#45;&gt;Foo.d -->
<g id="edge8" class="edge"><title>build&#45;&gt;Foo.d</title>
<path fill="none" stroke="black" d="M633.27,-215.697C621.063,-206.796 606.015,-195.823 592.816,-186.199"/>
<polygon fill="black" stroke="black" points="594.6,-183.168 584.457,-180.104 590.475,-188.824 594.6,-183.168"/>
</g>
<!-- method_db.csv -->
<g id="node17" class="node"><title>method_db.csv</title>
<polygon fill="none" stroke="black" points="707.366,-180 704.366,-184 683.366,-184 680.366,-180 606.634,-180 606.634,-144 707.366,-144 707.366,-180"/>
<text text-anchor="middle" x="657" y="-156.4" font-family="Times,serif" font-size="14.00">method_db.csv</text>
</g>
<!-- build&#45;&gt;method_db.csv -->
<g id="edge14" class="edge"><title>build&#45;&gt;method_db.csv</title>
<path fill="none" stroke="black" d="M657,-215.697C657,-207.983 657,-198.712 657,-190.112"/>
<polygon fill="black" stroke="black" points="660.5,-190.104 657,-180.104 653.5,-190.104 660.5,-190.104"/>
</g>
<!-- class_db.csv -->
<g id="node18" class="node"><title>class_db.csv</title>
<polygon fill="none" stroke="black" points="812.282,-180 809.282,-184 788.282,-184 785.282,-180 725.718,-180 725.718,-144 812.282,-144 812.282,-180"/>
<text text-anchor="middle" x="769" y="-156.4" font-family="Times,serif" font-size="14.00">class_db.csv</text>
</g>
<!-- build&#45;&gt;class_db.csv -->
<g id="edge15" class="edge"><title>build&#45;&gt;class_db.csv</title>
<path fill="none" stroke="black" d="M684.112,-216.055C698.861,-206.837 717.29,-195.319 733.206,-185.371"/>
<polygon fill="black" stroke="black" points="735.124,-188.3 741.749,-180.032 731.414,-182.364 735.124,-188.3"/>
</g>
<!-- dependencies.db -->
<g id="node12" class="node"><title>dependencies.db</title>
<polygon fill="none" stroke="black" points="427.181,-108 324.819,-108 324.819,-72 433.181,-72 433.181,-102 427.181,-108"/>
<polyline fill="none" stroke="black" points="427.181,-108 427.181,-102 "/>
<polyline fill="none" stroke="black" points="433.181,-102 427.181,-102 "/>
<text text-anchor="middle" x="379" y="-84.4" font-family="Times,serif" font-size="14.00">dependencies.db</text>
</g>
<!-- Foo.d&#45;&gt;dependencies.db -->
<g id="edge9" class="edge"><title>Foo.d&#45;&gt;dependencies.db</title>
<path fill="none" stroke="black" d="M533.753,-150.52C507.218,-140.315 466.15,-124.519 432.987,-111.764"/>
<polygon fill="black" stroke="black" points="434.008,-108.407 423.419,-108.084 431.496,-114.941 434.008,-108.407"/>
</g>
<!-- Foo.o -->
<g id="node13" class="node"><title>Foo.o</title>
<polygon fill="none" stroke="black" points="499,-108 451,-108 451,-72 505,-72 505,-102 499,-108"/>
<polyline fill="none" stroke="black" points="499,-108 499,-102 "/>
<polyline fill="none" stroke="black" points="505,-102 499,-102 "/>
<text text-anchor="middle" x="478" y="-84.4" font-family="Times,serif" font-size="14.00">Foo.o</text>
</g>
<!-- Foo.d&#45;&gt;Foo.o -->
<g id="edge10" class="edge"><title>Foo.d&#45;&gt;Foo.o</title>
<path fill="none" stroke="black" d="M540.483,-143.697C530.131,-134.965 517.414,-124.24 506.161,-114.75"/>
<polygon fill="black" stroke="black" points="508.182,-111.876 498.281,-108.104 503.669,-117.227 508.182,-111.876"/>
</g>
<!-- Foo+Bar.o -->
<g id="node14" class="node"><title>Foo+Bar.o</title>
<polygon fill="none" stroke="black" points="592.225,-108 523.775,-108 523.775,-72 598.225,-72 598.225,-102 592.225,-108"/>
<polyline fill="none" stroke="black" points="592.225,-108 592.225,-102 "/>
<polyline fill="none" stroke="black" points="598.225,-102 592.225,-102 "/>
<text text-anchor="middle" x="561" y="-84.4" font-family="Times,serif" font-size="14.00">Foo+Bar.o</text>
</g>
<!-- Foo.d&#45;&gt;Foo+Bar.o -->
<g id="edge11" class="edge"><title>Foo.d&#45;&gt;Foo+Bar.o</title>
<path fill="none" stroke="black" d="M561,-143.697C561,-135.983 561,-126.712 561,-118.112"/>
<polygon fill="black" stroke="black" points="564.5,-118.104 561,-108.104 557.5,-118.104 564.5,-118.104"/>
</g>
<!-- class.db -->
<g id="node15" class="node"><title>class.db</title>
<polygon fill="none" stroke="black" points="671.037,-108 616.963,-108 616.963,-72 677.037,-72 677.037,-102 671.037,-108"/>
<polyline fill="none" stroke="black" points="671.037,-108 671.037,-102 "/>
<polyline fill="none" stroke="black" points="677.037,-102 671.037,-102 "/>
<text text-anchor="middle" x="647" y="-84.4" font-family="Times,serif" font-size="14.00">class.db</text>
</g>
<!-- Foo.d&#45;&gt;class.db -->
<g id="edge12" class="edge"><title>Foo.d&#45;&gt;class.db</title>
<path fill="none" stroke="black" d="M582.258,-143.697C593.089,-134.881 606.418,-124.032 618.16,-114.474"/>
<polygon fill="black" stroke="black" points="620.44,-117.132 625.986,-108.104 616.021,-111.703 620.44,-117.132"/>
</g>
<!-- method.db -->
<g id="node16" class="node"><title>method.db</title>
<polygon fill="none" stroke="black" points="764.619,-108 695.381,-108 695.381,-72 770.619,-72 770.619,-102 764.619,-108"/>
<polyline fill="none" stroke="black" points="764.619,-108 764.619,-102 "/>
<polyline fill="none" stroke="black" points="770.619,-102 764.619,-102 "/>
<text text-anchor="middle" x="733" y="-84.4" font-family="Times,serif" font-size="14.00">method.db</text>
</g>
<!-- Foo.d&#45;&gt;method.db -->
<g id="edge13" class="edge"><title>Foo.d&#45;&gt;method.db</title>
<path fill="none" stroke="black" d="M588.035,-147.987C591.046,-146.611 594.08,-145.257 597,-144 626.334,-131.376 659.745,-118.337 686.11,-108.351"/>
<polygon fill="black" stroke="black" points="687.362,-111.62 695.485,-104.817 684.893,-105.07 687.362,-111.62"/>
</g>
</g>
</svg>
