<svg xmlns="http://www.w3.org/2000/svg" xmlns:xlink="http://www.w3.org/1999/xlink" width="398pt" height="116pt" viewBox="0 0 398 116"><g id="graph0" class="graph" transform="scale(1 1) rotate(0) translate(4 112)"><title>sourcetree</title><polygon fill="#fff" stroke="transparent" points="-4 4 -4 -112 394 -112 394 4 -4 4"/><g id="node1" class="node"><title>mulle-objc-list</title><polygon fill="#ff0" stroke="#000" points="228.5 -108 111.5 -108 111.5 -72 228.5 -72 228.5 -108"/><text x="170" y="-86.3" font-family="Times,serif" font-size="14" text-anchor="middle">mulle-objc-list</text></g><g id="node2" class="node"><title>mulle-atexit</title><g id="a_node2"><a xlink:href="https://github.com/mulle-core/mulle-atexit" xlink:title="mulle-atexit"><polygon fill="#d3d3d3" stroke="#000" points="102 -36 0 -36 0 0 102 0 102 -36"/><text x="51" y="-14.3" font-family="Times,serif" font-size="14" text-anchor="middle">mulle-atexit</text></a></g></g><g id="edge1" class="edge"><title>mulle-objc-list-&gt;mulle-atexit</title><path fill="none" stroke="#000" d="M140.89,-71.88C125.33,-62.72 105.98,-51.34 89.22,-41.48"/><polygon fill="#000" stroke="#000" points="90.62 -38.24 80.22 -36.19 87.07 -44.28 90.62 -38.24"/></g><g id="node3" class="node"><title>mulle-atinit</title><g id="a_node3"><a xlink:href="https://github.com/mulle-core/mulle-atinit" xlink:title="mulle-atinit"><polygon fill="#d3d3d3" stroke="#000" points="219.5 -36 120.5 -36 120.5 0 219.5 0 219.5 -36"/><text x="170" y="-14.3" font-family="Times,serif" font-size="14" text-anchor="middle">mulle-atinit</text></a></g></g><g id="edge2" class="edge"><title>mulle-objc-list-&gt;mulle-atinit</title><path fill="none" stroke="#000" d="M170,-71.7C170,-63.98 170,-54.71 170,-46.11"/><polygon fill="#000" stroke="#000" points="173.5 -46.1 170 -36.1 166.5 -46.1 173.5 -46.1"/></g><g id="node4" class="node"><title>mulle-objc-runtime</title><g id="a_node4"><a xlink:href="https://github.com/mulle-objc/mulle-objc-runtime" xlink:title="mulle-objc-runtime"><polygon fill="#d3d3d3" stroke="#000" points="390 -36 238 -36 238 0 390 0 390 -36"/><text x="314" y="-14.3" font-family="Times,serif" font-size="14" text-anchor="middle">mulle-objc-runtime</text></a></g></g><g id="edge3" class="edge"><title>mulle-objc-list-&gt;mulle-objc-runtime</title><path fill="none" stroke="#000" d="M205.23,-71.88C224.58,-62.47 248.77,-50.71 269.43,-40.67"/><polygon fill="#000" stroke="#000" points="271.17 -43.71 278.64 -36.19 268.11 -37.41 271.17 -43.71"/></g></g></svg>