<?xml version="1.0" encoding="UTF-8" standalone="no"?>
<!DOCTYPE svg PUBLIC "-//W3C//DTD SVG 1.1//EN"
 "http://www.w3.org/Graphics/SVG/1.1/DTD/svg11.dtd">
<!-- Generated by graphviz version 2.43.0 (0)
 -->
<!-- Title: sourcetree Pages: 1 -->
<svg width="3298pt" height="260pt"
 viewBox="0.00 0.00 3297.50 260.00" xmlns="http://www.w3.org/2000/svg" xmlns:xlink="http://www.w3.org/1999/xlink">
<g id="graph0" class="graph" transform="scale(1 1) rotate(0) translate(4 256)">
<title>sourcetree</title>
<polygon fill="white" stroke="transparent" points="-4,4 -4,-256 3293.5,-256 3293.5,4 -4,4"/>
<!-- mulle&#45;objc&#45;list -->
<g id="node1" class="node">
<title>mulle&#45;objc&#45;list</title>
<polygon fill="yellow" stroke="black" points="1549,-252 1432,-252 1432,-216 1549,-216 1549,-252"/>
<text text-anchor="middle" x="1490.5" y="-230.3" font-family="Times,serif" font-size="14.00">mulle&#45;objc&#45;list</text>
</g>
<!-- mulle&#45;atexit -->
<g id="node5" class="node">
<title>mulle&#45;atexit</title>
<g id="a_node5"><a xlink:href="https://github.com/mulle-core/mulle-atexit" xlink:title="mulle&#45;atexit">
<polygon fill="lightgrey" stroke="black" points="1422.5,-180 1320.5,-180 1320.5,-144 1422.5,-144 1422.5,-180"/>
<text text-anchor="middle" x="1371.5" y="-158.3" font-family="Times,serif" font-size="14.00">mulle&#45;atexit</text>
</a>
</g>
</g>
<!-- mulle&#45;objc&#45;list&#45;&gt;mulle&#45;atexit -->
<g id="edge28" class="edge">
<title>mulle&#45;objc&#45;list&#45;&gt;mulle&#45;atexit</title>
<path fill="none" stroke="black" d="M1461.39,-215.88C1445.83,-206.72 1426.48,-195.34 1409.72,-185.48"/>
<polygon fill="black" stroke="black" points="1411.12,-182.24 1400.72,-180.19 1407.57,-188.28 1411.12,-182.24"/>
</g>
<!-- mulle&#45;atinit -->
<g id="node6" class="node">
<title>mulle&#45;atinit</title>
<g id="a_node6"><a xlink:href="https://github.com/mulle-core/mulle-atinit" xlink:title="mulle&#45;atinit">
<polygon fill="lightgrey" stroke="black" points="1540,-180 1441,-180 1441,-144 1540,-144 1540,-180"/>
<text text-anchor="middle" x="1490.5" y="-158.3" font-family="Times,serif" font-size="14.00">mulle&#45;atinit</text>
</a>
</g>
</g>
<!-- mulle&#45;objc&#45;list&#45;&gt;mulle&#45;atinit -->
<g id="edge29" class="edge">
<title>mulle&#45;objc&#45;list&#45;&gt;mulle&#45;atinit</title>
<path fill="none" stroke="black" d="M1490.5,-215.7C1490.5,-207.98 1490.5,-198.71 1490.5,-190.11"/>
<polygon fill="black" stroke="black" points="1494,-190.1 1490.5,-180.1 1487,-190.1 1494,-190.1"/>
</g>
<!-- mulle&#45;objc&#45;runtime -->
<g id="node32" class="node">
<title>mulle&#45;objc&#45;runtime</title>
<g id="a_node32"><a xlink:href="https://github.com/mulle-objc/mulle-objc-runtime" xlink:title="mulle&#45;objc&#45;runtime">
<polygon fill="lightgrey" stroke="black" points="1710.5,-180 1558.5,-180 1558.5,-144 1710.5,-144 1710.5,-180"/>
<text text-anchor="middle" x="1634.5" y="-158.3" font-family="Times,serif" font-size="14.00">mulle&#45;objc&#45;runtime</text>
</a>
</g>
</g>
<!-- mulle&#45;objc&#45;list&#45;&gt;mulle&#45;objc&#45;runtime -->
<g id="edge30" class="edge">
<title>mulle&#45;objc&#45;list&#45;&gt;mulle&#45;objc&#45;runtime</title>
<path fill="none" stroke="black" d="M1525.73,-215.88C1545.08,-206.47 1569.27,-194.71 1589.93,-184.67"/>
<polygon fill="black" stroke="black" points="1591.67,-187.71 1599.14,-180.19 1588.61,-181.41 1591.67,-187.71"/>
</g>
<!-- mintomic -->
<g id="node2" class="node">
<title>mintomic</title>
<g id="a_node2"><a xlink:href="https://github.com/mulle-concurrent/mintomic" xlink:title="mintomic">
<polygon fill="lightgrey" stroke="black" points="83,-36 0,-36 0,0 83,0 83,-36"/>
<text text-anchor="middle" x="41.5" y="-14.3" font-family="Times,serif" font-size="14.00">mintomic</text>
</a>
</g>
</g>
<!-- mulle&#45;aba -->
<g id="node3" class="node">
<title>mulle&#45;aba</title>
<g id="a_node3"><a xlink:href="https://github.com/mulle-concurrent/mulle-aba@*" xlink:title="mulle&#45;aba">
<polygon fill="lightgrey" stroke="black" points="187.5,-36 101.5,-36 101.5,0 187.5,0 187.5,-36"/>
<text text-anchor="middle" x="144.5" y="-14.3" font-family="Times,serif" font-size="14.00">mulle&#45;aba</text>
</a>
</g>
</g>
<!-- mulle&#45;allocator -->
<g id="node4" class="node">
<title>mulle&#45;allocator</title>
<g id="a_node4"><a xlink:href="https://github.com/mulle-c/mulle-allocator@*" xlink:title="mulle&#45;allocator">
<polygon fill="lightgrey" stroke="black" points="329,-36 206,-36 206,0 329,0 329,-36"/>
<text text-anchor="middle" x="267.5" y="-14.3" font-family="Times,serif" font-size="14.00">mulle&#45;allocator</text>
</a>
</g>
</g>
<!-- mulle&#45;buffer -->
<g id="node7" class="node">
<title>mulle&#45;buffer</title>
<g id="a_node7"><a xlink:href="https://github.com/mulle-c/mulle-buffer@*" xlink:title="mulle&#45;buffer">
<polygon fill="lightgrey" stroke="black" points="451.5,-36 347.5,-36 347.5,0 451.5,0 451.5,-36"/>
<text text-anchor="middle" x="399.5" y="-14.3" font-family="Times,serif" font-size="14.00">mulle&#45;buffer</text>
</a>
</g>
</g>
<!-- mulle&#45;c11 -->
<g id="node8" class="node">
<title>mulle&#45;c11</title>
<g id="a_node8"><a xlink:href="https://github.com/mulle-c/mulle-c11@*" xlink:title="mulle&#45;c11">
<polygon fill="lightgrey" stroke="black" points="555.5,-36 469.5,-36 469.5,0 555.5,0 555.5,-36"/>
<text text-anchor="middle" x="512.5" y="-14.3" font-family="Times,serif" font-size="14.00">mulle&#45;c11</text>
</a>
</g>
</g>
<!-- mulle&#45;concurrent -->
<g id="node9" class="node">
<title>mulle&#45;concurrent</title>
<g id="a_node9"><a xlink:href="https://github.com/mulle-concurrent/mulle-concurrent@*" xlink:title="mulle&#45;concurrent">
<polygon fill="lightgrey" stroke="black" points="713,-36 574,-36 574,0 713,0 713,-36"/>
<text text-anchor="middle" x="643.5" y="-14.3" font-family="Times,serif" font-size="14.00">mulle&#45;concurrent</text>
</a>
</g>
</g>
<!-- mulle&#45;container -->
<g id="node10" class="node">
<title>mulle&#45;container</title>
<g id="a_node10"><a xlink:href="https://github.com/mulle-c/mulle-container@*" xlink:title="mulle&#45;container">
<polygon fill="lightgrey" stroke="black" points="859.5,-36 731.5,-36 731.5,0 859.5,0 859.5,-36"/>
<text text-anchor="middle" x="795.5" y="-14.3" font-family="Times,serif" font-size="14.00">mulle&#45;container</text>
</a>
</g>
</g>
<!-- mulle&#45;core -->
<g id="node11" class="node">
<title>mulle&#45;core</title>
<g id="a_node11"><a xlink:href="https://github.com/mulle-core/mulle-core" xlink:title="mulle&#45;core">
<polygon fill="lightgrey" stroke="black" points="1680.5,-108 1588.5,-108 1588.5,-72 1680.5,-72 1680.5,-108"/>
<text text-anchor="middle" x="1634.5" y="-86.3" font-family="Times,serif" font-size="14.00">mulle&#45;core</text>
</a>
</g>
</g>
<!-- mulle&#45;core&#45;&gt;mintomic -->
<g id="edge1" class="edge">
<title>mulle&#45;core&#45;&gt;mintomic</title>
<path fill="none" stroke="black" d="M1588.21,-89.2C1366.5,-89.86 411.24,-89.62 93.4,-35.76"/>
<polygon fill="black" stroke="black" points="93.73,-32.26 83.28,-33.98 92.52,-39.16 93.73,-32.26"/>
</g>
<!-- mulle&#45;core&#45;&gt;mulle&#45;aba -->
<g id="edge2" class="edge">
<title>mulle&#45;core&#45;&gt;mulle&#45;aba</title>
<path fill="none" stroke="black" d="M1588.16,-89.03C1375.85,-88.88 494.04,-85.38 197.96,-35.89"/>
<polygon fill="black" stroke="black" points="198.13,-32.37 187.68,-34.12 196.94,-39.27 198.13,-32.37"/>
</g>
<!-- mulle&#45;core&#45;&gt;mulle&#45;allocator -->
<g id="edge3" class="edge">
<title>mulle&#45;core&#45;&gt;mulle&#45;allocator</title>
<path fill="none" stroke="black" d="M1588.18,-88.31C1389.48,-85.17 607.54,-70.91 339.41,-35.91"/>
<polygon fill="black" stroke="black" points="339.7,-32.42 329.32,-34.55 338.76,-39.35 339.7,-32.42"/>
</g>
<!-- mulle&#45;core&#45;&gt;mulle&#45;buffer -->
<g id="edge4" class="edge">
<title>mulle&#45;core&#45;&gt;mulle&#45;buffer</title>
<path fill="none" stroke="black" d="M1588.44,-88.31C1402.21,-85.33 703.8,-72.04 461.72,-35.92"/>
<polygon fill="black" stroke="black" points="461.99,-32.42 451.57,-34.35 460.92,-39.34 461.99,-32.42"/>
</g>
<!-- mulle&#45;core&#45;&gt;mulle&#45;c11 -->
<g id="edge5" class="edge">
<title>mulle&#45;core&#45;&gt;mulle&#45;c11</title>
<path fill="none" stroke="black" d="M1588.3,-88.35C1412.63,-85.61 785.48,-73.52 565.84,-35.88"/>
<polygon fill="black" stroke="black" points="566.15,-32.38 555.69,-34.07 564.92,-39.28 566.15,-32.38"/>
</g>
<!-- mulle&#45;core&#45;&gt;mulle&#45;concurrent -->
<g id="edge6" class="edge">
<title>mulle&#45;core&#45;&gt;mulle&#45;concurrent</title>
<path fill="none" stroke="black" d="M1588.23,-88.82C1455.16,-87.77 1059.96,-80.91 723.13,-35.95"/>
<polygon fill="black" stroke="black" points="723.56,-32.47 713.18,-34.6 722.63,-39.41 723.56,-32.47"/>
</g>
<!-- mulle&#45;core&#45;&gt;mulle&#45;container -->
<g id="edge7" class="edge">
<title>mulle&#45;core&#45;&gt;mulle&#45;container</title>
<path fill="none" stroke="black" d="M1588.46,-88.37C1470.44,-86.22 1147.42,-76.88 870.14,-36.11"/>
<polygon fill="black" stroke="black" points="870.29,-32.59 859.88,-34.58 869.26,-39.51 870.29,-32.59"/>
</g>
<!-- mulle&#45;data -->
<g id="node12" class="node">
<title>mulle&#45;data</title>
<g id="a_node12"><a xlink:href="https://github.com/mulle-c/mulle-data@*" xlink:title="mulle&#45;data">
<polygon fill="lightgrey" stroke="black" points="969.5,-36 877.5,-36 877.5,0 969.5,0 969.5,-36"/>
<text text-anchor="middle" x="923.5" y="-14.3" font-family="Times,serif" font-size="14.00">mulle&#45;data</text>
</a>
</g>
</g>
<!-- mulle&#45;core&#45;&gt;mulle&#45;data -->
<g id="edge8" class="edge">
<title>mulle&#45;core&#45;&gt;mulle&#45;data</title>
<path fill="none" stroke="black" d="M1588.3,-88.73C1482.02,-87.37 1212.09,-79.69 979.52,-35.94"/>
<polygon fill="black" stroke="black" points="980.01,-32.47 969.53,-34.03 978.69,-39.34 980.01,-32.47"/>
</g>
<!-- mulle&#45;dlfcn -->
<g id="node13" class="node">
<title>mulle&#45;dlfcn</title>
<g id="a_node13"><a xlink:href="https://github.com/mulle-core/mulle-dlfcn@*" xlink:title="mulle&#45;dlfcn">
<polygon fill="lightgrey" stroke="black" points="1083.5,-36 987.5,-36 987.5,0 1083.5,0 1083.5,-36"/>
<text text-anchor="middle" x="1035.5" y="-14.3" font-family="Times,serif" font-size="14.00">mulle&#45;dlfcn</text>
</a>
</g>
</g>
<!-- mulle&#45;core&#45;&gt;mulle&#45;dlfcn -->
<g id="edge9" class="edge">
<title>mulle&#45;core&#45;&gt;mulle&#45;dlfcn</title>
<path fill="none" stroke="black" d="M1588.39,-87.48C1495.98,-83.79 1281.59,-72 1093.6,-35.99"/>
<polygon fill="black" stroke="black" points="1094.02,-32.51 1083.54,-34.04 1092.69,-39.38 1094.02,-32.51"/>
</g>
<!-- mulle&#45;fifo -->
<g id="node14" class="node">
<title>mulle&#45;fifo</title>
<g id="a_node14"><a xlink:href="https://github.com/mulle-concurrent/mulle-fifo@*" xlink:title="mulle&#45;fifo">
<polygon fill="lightgrey" stroke="black" points="1185,-36 1102,-36 1102,0 1185,0 1185,-36"/>
<text text-anchor="middle" x="1143.5" y="-14.3" font-family="Times,serif" font-size="14.00">mulle&#45;fifo</text>
</a>
</g>
</g>
<!-- mulle&#45;core&#45;&gt;mulle&#45;fifo -->
<g id="edge10" class="edge">
<title>mulle&#45;core&#45;&gt;mulle&#45;fifo</title>
<path fill="none" stroke="black" d="M1588.25,-86.61C1509.16,-81.85 1342.92,-68.84 1195.21,-36.14"/>
<polygon fill="black" stroke="black" points="1195.58,-32.63 1185.06,-33.85 1194.04,-39.46 1195.58,-32.63"/>
</g>
<!-- mulle&#45;fprintf -->
<g id="node15" class="node">
<title>mulle&#45;fprintf</title>
<g id="a_node15"><a xlink:href="https://github.com/mulle-core/mulle-fprintf@*" xlink:title="mulle&#45;fprintf">
<polygon fill="lightgrey" stroke="black" points="1310,-36 1203,-36 1203,0 1310,0 1310,-36"/>
<text text-anchor="middle" x="1256.5" y="-14.3" font-family="Times,serif" font-size="14.00">mulle&#45;fprintf</text>
</a>
</g>
</g>
<!-- mulle&#45;core&#45;&gt;mulle&#45;fprintf -->
<g id="edge11" class="edge">
<title>mulle&#45;core&#45;&gt;mulle&#45;fprintf</title>
<path fill="none" stroke="black" d="M1588.43,-82.77C1528.64,-74.35 1420.93,-58.07 1320.22,-36.27"/>
<polygon fill="black" stroke="black" points="1320.7,-32.8 1310.19,-34.08 1319.21,-39.64 1320.7,-32.8"/>
</g>
<!-- mulle&#45;http -->
<g id="node16" class="node">
<title>mulle&#45;http</title>
<g id="a_node16"><a xlink:href="https://github.com/mulle-c/mulle-http@*" xlink:title="mulle&#45;http">
<polygon fill="lightgrey" stroke="black" points="1419,-36 1328,-36 1328,0 1419,0 1419,-36"/>
<text text-anchor="middle" x="1373.5" y="-14.3" font-family="Times,serif" font-size="14.00">mulle&#45;http</text>
</a>
</g>
</g>
<!-- mulle&#45;core&#45;&gt;mulle&#45;http -->
<g id="edge12" class="edge">
<title>mulle&#45;core&#45;&gt;mulle&#45;http</title>
<path fill="none" stroke="black" d="M1588.1,-77.74C1548.37,-67.94 1489.41,-53.04 1428.81,-36.02"/>
<polygon fill="black" stroke="black" points="1429.64,-32.62 1419.07,-33.27 1427.74,-39.36 1429.64,-32.62"/>
</g>
<!-- mulle&#45;linkedlist -->
<g id="node17" class="node">
<title>mulle&#45;linkedlist</title>
<g id="a_node17"><a xlink:href="https://github.com/mulle-concurrent/mulle-linkedlist@*" xlink:title="mulle&#45;linkedlist">
<polygon fill="lightgrey" stroke="black" points="1564,-36 1437,-36 1437,0 1564,0 1564,-36"/>
<text text-anchor="middle" x="1500.5" y="-14.3" font-family="Times,serif" font-size="14.00">mulle&#45;linkedlist</text>
</a>
</g>
</g>
<!-- mulle&#45;core&#45;&gt;mulle&#45;linkedlist -->
<g id="edge13" class="edge">
<title>mulle&#45;core&#45;&gt;mulle&#45;linkedlist</title>
<path fill="none" stroke="black" d="M1601.72,-71.88C1583.87,-62.55 1561.6,-50.92 1542.5,-40.94"/>
<polygon fill="black" stroke="black" points="1543.89,-37.72 1533.41,-36.19 1540.65,-43.92 1543.89,-37.72"/>
</g>
<!-- mulle&#45;mmap -->
<g id="node18" class="node">
<title>mulle&#45;mmap</title>
<g id="a_node18"><a xlink:href="https://github.com/mulle-core/mulle-mmap@*" xlink:title="mulle&#45;mmap">
<polygon fill="lightgrey" stroke="black" points="1687,-36 1582,-36 1582,0 1687,0 1687,-36"/>
<text text-anchor="middle" x="1634.5" y="-14.3" font-family="Times,serif" font-size="14.00">mulle&#45;mmap</text>
</a>
</g>
</g>
<!-- mulle&#45;core&#45;&gt;mulle&#45;mmap -->
<g id="edge14" class="edge">
<title>mulle&#45;core&#45;&gt;mulle&#45;mmap</title>
<path fill="none" stroke="black" d="M1634.5,-71.7C1634.5,-63.98 1634.5,-54.71 1634.5,-46.11"/>
<polygon fill="black" stroke="black" points="1638,-46.1 1634.5,-36.1 1631,-46.1 1638,-46.1"/>
</g>
<!-- mulle&#45;multififo -->
<g id="node19" class="node">
<title>mulle&#45;multififo</title>
<g id="a_node19"><a xlink:href="https://github.com/mulle-concurrent/mulle-multififo@*" xlink:title="mulle&#45;multififo">
<polygon fill="lightgrey" stroke="black" points="1826,-36 1705,-36 1705,0 1826,0 1826,-36"/>
<text text-anchor="middle" x="1765.5" y="-14.3" font-family="Times,serif" font-size="14.00">mulle&#45;multififo</text>
</a>
</g>
</g>
<!-- mulle&#45;core&#45;&gt;mulle&#45;multififo -->
<g id="edge15" class="edge">
<title>mulle&#45;core&#45;&gt;mulle&#45;multififo</title>
<path fill="none" stroke="black" d="M1666.55,-71.88C1683.99,-62.55 1705.77,-50.92 1724.44,-40.94"/>
<polygon fill="black" stroke="black" points="1726.16,-43.99 1733.33,-36.19 1722.86,-37.82 1726.16,-43.99"/>
</g>
<!-- mulle&#45;rbtree -->
<g id="node20" class="node">
<title>mulle&#45;rbtree</title>
<g id="a_node20"><a xlink:href="https://github.com/mulle-c/mulle-rbtree@*" xlink:title="mulle&#45;rbtree">
<polygon fill="lightgrey" stroke="black" points="1950.5,-36 1844.5,-36 1844.5,0 1950.5,0 1950.5,-36"/>
<text text-anchor="middle" x="1897.5" y="-14.3" font-family="Times,serif" font-size="14.00">mulle&#45;rbtree</text>
</a>
</g>
</g>
<!-- mulle&#45;core&#45;&gt;mulle&#45;rbtree -->
<g id="edge16" class="edge">
<title>mulle&#45;core&#45;&gt;mulle&#45;rbtree</title>
<path fill="none" stroke="black" d="M1680.84,-76.92C1719.45,-66.82 1776.16,-51.92 1834.63,-36.22"/>
<polygon fill="black" stroke="black" points="1835.66,-39.57 1844.41,-33.59 1833.84,-32.81 1835.66,-39.57"/>
</g>
<!-- mulle&#45;regex -->
<g id="node21" class="node">
<title>mulle&#45;regex</title>
<g id="a_node21"><a xlink:href="https://github.com/mulle-c/mulle-regex" xlink:title="mulle&#45;regex">
<polygon fill="lightgrey" stroke="black" points="2070,-36 1969,-36 1969,0 2070,0 2070,-36"/>
<text text-anchor="middle" x="2019.5" y="-14.3" font-family="Times,serif" font-size="14.00">mulle&#45;regex</text>
</a>
</g>
</g>
<!-- mulle&#45;core&#45;&gt;mulle&#45;regex -->
<g id="edge17" class="edge">
<title>mulle&#45;core&#45;&gt;mulle&#45;regex</title>
<path fill="none" stroke="black" d="M1680.56,-83.18C1741.92,-75.05 1853.96,-58.92 1959.05,-35.96"/>
<polygon fill="black" stroke="black" points="1959.86,-39.36 1968.86,-33.79 1958.35,-32.53 1959.86,-39.36"/>
</g>
<!-- mulle&#45;slug -->
<g id="node22" class="node">
<title>mulle&#45;slug</title>
<g id="a_node22"><a xlink:href="https://github.com/mulle-c/mulle-slug@*" xlink:title="mulle&#45;slug">
<polygon fill="lightgrey" stroke="black" points="2179,-36 2088,-36 2088,0 2179,0 2179,-36"/>
<text text-anchor="middle" x="2133.5" y="-14.3" font-family="Times,serif" font-size="14.00">mulle&#45;slug</text>
</a>
</g>
</g>
<!-- mulle&#45;core&#45;&gt;mulle&#45;slug -->
<g id="edge18" class="edge">
<title>mulle&#45;core&#45;&gt;mulle&#45;slug</title>
<path fill="none" stroke="black" d="M1680.77,-86.34C1760.41,-81.14 1928.5,-67.47 2078.16,-36.08"/>
<polygon fill="black" stroke="black" points="2078.94,-39.49 2087.99,-33.98 2077.49,-32.64 2078.94,-39.49"/>
</g>
<!-- mulle&#45;sprintf -->
<g id="node23" class="node">
<title>mulle&#45;sprintf</title>
<g id="a_node23"><a xlink:href="https://github.com/mulle-core/mulle-sprintf@*" xlink:title="mulle&#45;sprintf">
<polygon fill="lightgrey" stroke="black" points="2306,-36 2197,-36 2197,0 2306,0 2306,-36"/>
<text text-anchor="middle" x="2251.5" y="-14.3" font-family="Times,serif" font-size="14.00">mulle&#45;sprintf</text>
</a>
</g>
</g>
<!-- mulle&#45;core&#45;&gt;mulle&#45;sprintf -->
<g id="edge19" class="edge">
<title>mulle&#45;core&#45;&gt;mulle&#45;sprintf</title>
<path fill="none" stroke="black" d="M1680.82,-87.2C1774.78,-82.99 1994.49,-70.25 2186.98,-36.11"/>
<polygon fill="black" stroke="black" points="2187.77,-39.52 2196.99,-34.31 2186.53,-32.63 2187.77,-39.52"/>
</g>
<!-- mulle&#45;stacktrace -->
<g id="node24" class="node">
<title>mulle&#45;stacktrace</title>
<g id="a_node24"><a xlink:href="https://github.com/mulle-core/mulle-stacktrace@*" xlink:title="mulle&#45;stacktrace">
<polygon fill="lightgrey" stroke="black" points="2459,-36 2324,-36 2324,0 2459,0 2459,-36"/>
<text text-anchor="middle" x="2391.5" y="-14.3" font-family="Times,serif" font-size="14.00">mulle&#45;stacktrace</text>
</a>
</g>
</g>
<!-- mulle&#45;core&#45;&gt;mulle&#45;stacktrace -->
<g id="edge20" class="edge">
<title>mulle&#45;core&#45;&gt;mulle&#45;stacktrace</title>
<path fill="none" stroke="black" d="M1680.59,-87.68C1789.34,-84.07 2070.48,-71.91 2313.55,-36.18"/>
<polygon fill="black" stroke="black" points="2314.26,-39.61 2323.64,-34.68 2313.23,-32.69 2314.26,-39.61"/>
</g>
<!-- mulle&#45;storage -->
<g id="node25" class="node">
<title>mulle&#45;storage</title>
<g id="a_node25"><a xlink:href="https://github.com/mulle-c/mulle-storage@*" xlink:title="mulle&#45;storage">
<polygon fill="lightgrey" stroke="black" points="2592,-36 2477,-36 2477,0 2592,0 2592,-36"/>
<text text-anchor="middle" x="2534.5" y="-14.3" font-family="Times,serif" font-size="14.00">mulle&#45;storage</text>
</a>
</g>
</g>
<!-- mulle&#45;core&#45;&gt;mulle&#45;storage -->
<g id="edge21" class="edge">
<title>mulle&#45;core&#45;&gt;mulle&#45;storage</title>
<path fill="none" stroke="black" d="M1680.95,-89.11C1806.5,-88.75 2163.06,-83.42 2466.37,-36.18"/>
<polygon fill="black" stroke="black" points="2467.35,-39.57 2476.68,-34.55 2466.26,-32.65 2467.35,-39.57"/>
</g>
<!-- mulle&#45;thread -->
<g id="node26" class="node">
<title>mulle&#45;thread</title>
<g id="a_node26"><a xlink:href="https://github.com/mulle-concurrent/mulle-thread@*" xlink:title="mulle&#45;thread">
<polygon fill="lightgrey" stroke="black" points="2718.5,-36 2610.5,-36 2610.5,0 2718.5,0 2718.5,-36"/>
<text text-anchor="middle" x="2664.5" y="-14.3" font-family="Times,serif" font-size="14.00">mulle&#45;thread</text>
</a>
</g>
</g>
<!-- mulle&#45;core&#45;&gt;mulle&#45;thread -->
<g id="edge22" class="edge">
<title>mulle&#45;core&#45;&gt;mulle&#45;thread</title>
<path fill="none" stroke="black" d="M1680.71,-87.75C1845.01,-83.1 2401.3,-65.62 2600.31,-35.94"/>
<polygon fill="black" stroke="black" points="2601.01,-39.37 2610.36,-34.38 2599.94,-32.45 2601.01,-39.37"/>
</g>
<!-- mulle&#45;time -->
<g id="node27" class="node">
<title>mulle&#45;time</title>
<g id="a_node27"><a xlink:href="https://github.com/mulle-core/mulle-time@*" xlink:title="mulle&#45;time">
<polygon fill="lightgrey" stroke="black" points="2830,-36 2737,-36 2737,0 2830,0 2830,-36"/>
<text text-anchor="middle" x="2783.5" y="-14.3" font-family="Times,serif" font-size="14.00">mulle&#45;time</text>
</a>
</g>
</g>
<!-- mulle&#45;core&#45;&gt;mulle&#45;time -->
<g id="edge23" class="edge">
<title>mulle&#45;core&#45;&gt;mulle&#45;time</title>
<path fill="none" stroke="black" d="M1680.74,-88.27C1858.89,-85.24 2501.61,-72.11 2726.87,-35.76"/>
<polygon fill="black" stroke="black" points="2727.67,-39.17 2736.96,-34.07 2726.52,-32.27 2727.67,-39.17"/>
</g>
<!-- mulle&#45;unicode -->
<g id="node28" class="node">
<title>mulle&#45;unicode</title>
<g id="a_node28"><a xlink:href="https://github.com/mulle-c/mulle-unicode@*" xlink:title="mulle&#45;unicode">
<polygon fill="lightgrey" stroke="black" points="2964.5,-36 2848.5,-36 2848.5,0 2964.5,0 2964.5,-36"/>
<text text-anchor="middle" x="2906.5" y="-14.3" font-family="Times,serif" font-size="14.00">mulle&#45;unicode</text>
</a>
</g>
</g>
<!-- mulle&#45;core&#45;&gt;mulle&#45;unicode -->
<g id="edge24" class="edge">
<title>mulle&#45;core&#45;&gt;mulle&#45;unicode</title>
<path fill="none" stroke="black" d="M1680.78,-88.23C1870.44,-84.88 2589.63,-70.25 2838.12,-35.98"/>
<polygon fill="black" stroke="black" points="2838.77,-39.42 2848.18,-34.55 2837.78,-32.49 2838.77,-39.42"/>
</g>
<!-- mulle&#45;url -->
<g id="node29" class="node">
<title>mulle&#45;url</title>
<g id="a_node29"><a xlink:href="https://github.com/mulle-c/mulle-url@*" xlink:title="mulle&#45;url">
<polygon fill="lightgrey" stroke="black" points="3064,-36 2983,-36 2983,0 3064,0 3064,-36"/>
<text text-anchor="middle" x="3023.5" y="-14.3" font-family="Times,serif" font-size="14.00">mulle&#45;url</text>
</a>
</g>
</g>
<!-- mulle&#45;core&#45;&gt;mulle&#45;url -->
<g id="edge25" class="edge">
<title>mulle&#45;core&#45;&gt;mulle&#45;url</title>
<path fill="none" stroke="black" d="M1680.71,-88.95C1883.63,-88.47 2697.4,-83.65 2972.86,-35.69"/>
<polygon fill="black" stroke="black" points="2973.61,-39.12 2982.83,-33.9 2972.36,-32.23 2973.61,-39.12"/>
</g>
<!-- mulle&#45;utf -->
<g id="node30" class="node">
<title>mulle&#45;utf</title>
<g id="a_node30"><a xlink:href="https://github.com/mulle-c/mulle-utf@*" xlink:title="mulle&#45;utf">
<polygon fill="lightgrey" stroke="black" points="3163,-36 3082,-36 3082,0 3163,0 3163,-36"/>
<text text-anchor="middle" x="3122.5" y="-14.3" font-family="Times,serif" font-size="14.00">mulle&#45;utf</text>
</a>
</g>
</g>
<!-- mulle&#45;core&#45;&gt;mulle&#45;utf -->
<g id="edge26" class="edge">
<title>mulle&#45;core&#45;&gt;mulle&#45;utf</title>
<path fill="none" stroke="black" d="M1680.53,-89.14C1892.45,-89.49 2776.02,-87.88 3071.58,-35.99"/>
<polygon fill="black" stroke="black" points="3072.63,-39.35 3081.84,-34.12 3071.37,-32.47 3072.63,-39.35"/>
</g>
<!-- mulle&#45;vararg -->
<g id="node31" class="node">
<title>mulle&#45;vararg</title>
<g id="a_node31"><a xlink:href="https://github.com/mulle-c/mulle-vararg@*" xlink:title="mulle&#45;vararg">
<polygon fill="lightgrey" stroke="black" points="3289.5,-36 3181.5,-36 3181.5,0 3289.5,0 3289.5,-36"/>
<text text-anchor="middle" x="3235.5" y="-14.3" font-family="Times,serif" font-size="14.00">mulle&#45;vararg</text>
</a>
</g>
</g>
<!-- mulle&#45;core&#45;&gt;mulle&#45;vararg -->
<g id="edge27" class="edge">
<title>mulle&#45;core&#45;&gt;mulle&#45;vararg</title>
<path fill="none" stroke="black" d="M1680.61,-88.83C1901.47,-87.82 2853.19,-80.97 3171.24,-35.93"/>
<polygon fill="black" stroke="black" points="3171.98,-39.36 3181.37,-34.45 3170.97,-32.43 3171.98,-39.36"/>
</g>
<!-- mulle&#45;objc&#45;runtime&#45;&gt;mulle&#45;core -->
<g id="edge31" class="edge">
<title>mulle&#45;objc&#45;runtime&#45;&gt;mulle&#45;core</title>
<path fill="none" stroke="black" d="M1634.5,-143.7C1634.5,-135.98 1634.5,-126.71 1634.5,-118.11"/>
<polygon fill="black" stroke="black" points="1638,-118.1 1634.5,-108.1 1631,-118.1 1638,-118.1"/>
</g>
</g>
</svg>
