<?xml version="1.0" encoding="UTF-8" standalone="no"?>
<!DOCTYPE svg PUBLIC "-//W3C//DTD SVG 1.1//EN"
 "http://www.w3.org/Graphics/SVG/1.1/DTD/svg11.dtd">
<!-- Generated by graphviz version 2.43.0 (0)
 -->
<!-- Title: sourcetree Pages: 1 -->
<svg width="398pt" height="116pt"
 viewBox="0.00 0.00 398.00 116.00" xmlns="http://www.w3.org/2000/svg" xmlns:xlink="http://www.w3.org/1999/xlink">
<g id="graph0" class="graph" transform="scale(1 1) rotate(0) translate(4 112)">
<title>sourcetree</title>
<polygon fill="white" stroke="transparent" points="-4,4 -4,-112 394,-112 394,4 -4,4"/>
<!-- mulle&#45;objc&#45;list -->
<g id="node1" class="node">
<title>mulle&#45;objc&#45;list</title>
<polygon fill="yellow" stroke="black" points="228.5,-108 111.5,-108 111.5,-72 228.5,-72 228.5,-108"/>
<text text-anchor="middle" x="170" y="-86.3" font-family="Times,serif" font-size="14.00">mulle&#45;objc&#45;list</text>
</g>
<!-- mulle&#45;atexit -->
<g id="node2" class="node">
<title>mulle&#45;atexit</title>
<g id="a_node2"><a xlink:href="https://github.com/mulle-core/mulle-atexit" xlink:title="mulle&#45;atexit">
<polygon fill="lightgrey" stroke="black" points="102,-36 0,-36 0,0 102,0 102,-36"/>
<text text-anchor="middle" x="51" y="-14.3" font-family="Times,serif" font-size="14.00">mulle&#45;atexit</text>
</a>
</g>
</g>
<!-- mulle&#45;objc&#45;list&#45;&gt;mulle&#45;atexit -->
<g id="edge1" class="edge">
<title>mulle&#45;objc&#45;list&#45;&gt;mulle&#45;atexit</title>
<path fill="none" stroke="black" d="M140.89,-71.88C125.33,-62.72 105.98,-51.34 89.22,-41.48"/>
<polygon fill="black" stroke="black" points="90.62,-38.24 80.22,-36.19 87.07,-44.28 90.62,-38.24"/>
</g>
<!-- mulle&#45;atinit -->
<g id="node3" class="node">
<title>mulle&#45;atinit</title>
<g id="a_node3"><a xlink:href="https://github.com/mulle-core/mulle-atinit" xlink:title="mulle&#45;atinit">
<polygon fill="lightgrey" stroke="black" points="219.5,-36 120.5,-36 120.5,0 219.5,0 219.5,-36"/>
<text text-anchor="middle" x="170" y="-14.3" font-family="Times,serif" font-size="14.00">mulle&#45;atinit</text>
</a>
</g>
</g>
<!-- mulle&#45;objc&#45;list&#45;&gt;mulle&#45;atinit -->
<g id="edge2" class="edge">
<title>mulle&#45;objc&#45;list&#45;&gt;mulle&#45;atinit</title>
<path fill="none" stroke="black" d="M170,-71.7C170,-63.98 170,-54.71 170,-46.11"/>
<polygon fill="black" stroke="black" points="173.5,-46.1 170,-36.1 166.5,-46.1 173.5,-46.1"/>
</g>
<!-- mulle&#45;objc&#45;runtime -->
<g id="node4" class="node">
<title>mulle&#45;objc&#45;runtime</title>
<g id="a_node4"><a xlink:href="https://github.com/mulle-objc/mulle-objc-runtime" xlink:title="mulle&#45;objc&#45;runtime">
<polygon fill="lightgrey" stroke="black" points="390,-36 238,-36 238,0 390,0 390,-36"/>
<text text-anchor="middle" x="314" y="-14.3" font-family="Times,serif" font-size="14.00">mulle&#45;objc&#45;runtime</text>
</a>
</g>
</g>
<!-- mulle&#45;objc&#45;list&#45;&gt;mulle&#45;objc&#45;runtime -->
<g id="edge3" class="edge">
<title>mulle&#45;objc&#45;list&#45;&gt;mulle&#45;objc&#45;runtime</title>
<path fill="none" stroke="black" d="M205.23,-71.88C224.58,-62.47 248.77,-50.71 269.43,-40.67"/>
<polygon fill="black" stroke="black" points="271.17,-43.71 278.64,-36.19 268.11,-37.41 271.17,-43.71"/>
</g>
</g>
</svg>
