<?xml version="1.0" encoding="UTF-8" standalone="no"?>
<!DOCTYPE svg PUBLIC "-//W3C//DTD SVG 1.1//EN"
 "http://www.w3.org/Graphics/SVG/1.1/DTD/svg11.dtd">
<!-- Generated by graphviz version 2.43.0 (0)
 -->
<!-- Title: sourcetree Pages: 1 -->
<svg width="670pt" height="116pt"
 viewBox="0.00 0.00 670.00 116.00" xmlns="http://www.w3.org/2000/svg" xmlns:xlink="http://www.w3.org/1999/xlink">
<g id="graph0" class="graph" transform="scale(1 1) rotate(0) translate(4 112)">
<title>sourcetree</title>
<polygon fill="white" stroke="transparent" points="-4,4 -4,-112 666,-112 666,4 -4,4"/>
<!-- mulle&#45;objc&#45;list -->
<g id="node1" class="node">
<title>mulle&#45;objc&#45;list</title>
<polygon fill="yellow" stroke="black" points="344.5,-108 227.5,-108 227.5,-72 344.5,-72 344.5,-108"/>
<text text-anchor="middle" x="286" y="-86.3" font-family="Times,serif" font-size="14.00">mulle&#45;objc&#45;list</text>
</g>
<!-- mulle&#45;atexit -->
<g id="node2" class="node">
<title>mulle&#45;atexit</title>
<polygon fill="lightgrey" stroke="black" points="102,-36 0,-36 0,0 102,0 102,-36"/>
<text text-anchor="middle" x="51" y="-14.3" font-family="Times,serif" font-size="14.00">mulle&#45;atexit</text>
</g>
<!-- mulle&#45;objc&#45;list&#45;&gt;mulle&#45;atexit -->
<g id="edge1" class="edge">
<title>mulle&#45;objc&#45;list&#45;&gt;mulle&#45;atexit</title>
<path fill="none" stroke="black" d="M228.81,-71.97C193.42,-61.42 148.01,-47.9 111.94,-37.15"/>
<polygon fill="black" stroke="black" points="112.61,-33.7 102.03,-34.2 110.62,-40.41 112.61,-33.7"/>
</g>
<!-- mulle&#45;atinit -->
<g id="node3" class="node">
<title>mulle&#45;atinit</title>
<polygon fill="lightgrey" stroke="black" points="219.5,-36 120.5,-36 120.5,0 219.5,0 219.5,-36"/>
<text text-anchor="middle" x="170" y="-14.3" font-family="Times,serif" font-size="14.00">mulle&#45;atinit</text>
</g>
<!-- mulle&#45;objc&#45;list&#45;&gt;mulle&#45;atinit -->
<g id="edge2" class="edge">
<title>mulle&#45;objc&#45;list&#45;&gt;mulle&#45;atinit</title>
<path fill="none" stroke="black" d="M257.62,-71.88C242.46,-62.72 223.59,-51.34 207.26,-41.48"/>
<polygon fill="black" stroke="black" points="208.86,-38.36 198.49,-36.19 205.24,-44.35 208.86,-38.36"/>
</g>
<!-- mulle&#45;dlfcn -->
<g id="node4" class="node">
<title>mulle&#45;dlfcn</title>
<polygon fill="lightgrey" stroke="black" points="334,-36 238,-36 238,0 334,0 334,-36"/>
<text text-anchor="middle" x="286" y="-14.3" font-family="Times,serif" font-size="14.00">mulle&#45;dlfcn</text>
</g>
<!-- mulle&#45;objc&#45;list&#45;&gt;mulle&#45;dlfcn -->
<g id="edge3" class="edge">
<title>mulle&#45;objc&#45;list&#45;&gt;mulle&#45;dlfcn</title>
<path fill="none" stroke="black" d="M286,-71.7C286,-63.98 286,-54.71 286,-46.11"/>
<polygon fill="black" stroke="black" points="289.5,-46.1 286,-36.1 282.5,-46.1 289.5,-46.1"/>
</g>
<!-- mulle&#45;objc&#45;debug -->
<g id="node5" class="node">
<title>mulle&#45;objc&#45;debug</title>
<polygon fill="lightgrey" stroke="black" points="491.5,-36 352.5,-36 352.5,0 491.5,0 491.5,-36"/>
<text text-anchor="middle" x="422" y="-14.3" font-family="Times,serif" font-size="14.00">mulle&#45;objc&#45;debug</text>
</g>
<!-- mulle&#45;objc&#45;list&#45;&gt;mulle&#45;objc&#45;debug -->
<g id="edge4" class="edge">
<title>mulle&#45;objc&#45;list&#45;&gt;mulle&#45;objc&#45;debug</title>
<path fill="none" stroke="black" d="M319.27,-71.88C337.46,-62.51 360.19,-50.81 379.64,-40.8"/>
<polygon fill="black" stroke="black" points="381.31,-43.88 388.6,-36.19 378.11,-37.65 381.31,-43.88"/>
</g>
<!-- mulle&#45;objc&#45;runtime -->
<g id="node6" class="node">
<title>mulle&#45;objc&#45;runtime</title>
<polygon fill="lightgrey" stroke="black" points="662,-36 510,-36 510,0 662,0 662,-36"/>
<text text-anchor="middle" x="586" y="-14.3" font-family="Times,serif" font-size="14.00">mulle&#45;objc&#45;runtime</text>
</g>
<!-- mulle&#45;objc&#45;list&#45;&gt;mulle&#45;objc&#45;runtime -->
<g id="edge5" class="edge">
<title>mulle&#45;objc&#45;list&#45;&gt;mulle&#45;objc&#45;runtime</title>
<path fill="none" stroke="black" d="M344.56,-75.34C389.72,-64.8 452.76,-50.09 503.1,-38.34"/>
<polygon fill="black" stroke="black" points="504.05,-41.72 512.99,-36.04 502.46,-34.9 504.05,-41.72"/>
</g>
</g>
</svg>
