<svg xmlns="http://www.w3.org/2000/svg" xmlns:xlink="http://www.w3.org/1999/xlink" width="4265pt" height="260pt" viewBox="0 0 4265 260"><g id="graph0" class="graph" transform="scale(1 1) rotate(0) translate(4 256)"><title>sourcetree</title><polygon fill="#fff" stroke="transparent" points="-4 4 -4 -256 4261 -256 4261 4 -4 4"/><g id="node1" class="node"><title>mulle-objc-list</title><polygon fill="#ff0" stroke="#000" points="1572.5 -252 1455.5 -252 1455.5 -216 1572.5 -216 1572.5 -252"/><text x="1514" y="-230.3" font-family="Times,serif" font-size="14" text-anchor="middle">mulle-objc-list</text></g><g id="node38" class="node"><title>mulle-objc-runtime</title><g id="a_node38"><a xlink:href="https://github.com/mulle-objc/mulle-objc-runtime" xlink:title="mulle-objc-runtime"><polygon fill="#d3d3d3" stroke="#000" points="1590 -180 1438 -180 1438 -144 1590 -144 1590 -180"/><text x="1514" y="-158.3" font-family="Times,serif" font-size="14" text-anchor="middle">mulle-objc-runtime</text></a></g></g><g id="edge38" class="edge"><title>mulle-objc-list-&gt;mulle-objc-runtime</title><path fill="none" stroke="#000" d="M1514,-215.7C1514,-207.98 1514,-198.71 1514,-190.11"/><polygon fill="#000" stroke="#000" points="1517.5 -190.1 1514 -180.1 1510.5 -190.1 1517.5 -190.1"/></g><g id="node2" class="node"><title>dlfcn-win32</title><g id="a_node2"><a xlink:href="https://github.com/mulle-core/dlfcn-win32" xlink:title="dlfcn-win32"><polygon fill="#d3d3d3" stroke="#000" points="100 -36 0 -36 0 0 100 0 100 -36"/><text x="50" y="-14.3" font-family="Times,serif" font-size="14" text-anchor="middle">dlfcn-win32</text></a></g></g><g id="node3" class="node"><title>libbacktrace</title><g id="a_node3"><a xlink:href="https://github.com/mulle-core/libbacktrace" xlink:title="libbacktrace"><polygon fill="#d3d3d3" stroke="#000" points="222 -36 118 -36 118 0 222 0 222 -36"/><text x="170" y="-14.3" font-family="Times,serif" font-size="14" text-anchor="middle">libbacktrace</text></a></g></g><g id="node4" class="node"><title>mintomic</title><g id="a_node4"><a xlink:href="https://github.com/mulle-concurrent/mintomic" xlink:title="mintomic"><polygon fill="#d3d3d3" stroke="#000" points="4152.5 -36 4069.5 -36 4069.5 0 4152.5 0 4152.5 -36"/><text x="4111" y="-14.3" font-family="Times,serif" font-size="14" text-anchor="middle">mintomic</text></a></g></g><g id="node5" class="node"><title>mulle-aba</title><g id="a_node5"><a xlink:href="https://github.com/mulle-concurrent/mulle-aba@*" xlink:title="mulle-aba"><polygon fill="#d3d3d3" stroke="#000" points="4257 -36 4171 -36 4171 0 4257 0 4257 -36"/><text x="4214" y="-14.3" font-family="Times,serif" font-size="14" text-anchor="middle">mulle-aba</text></a></g></g><g id="node6" class="node"><title>mulle-allocator</title><g id="a_node6"><a xlink:href="https://github.com/mulle-c/mulle-allocator@*" xlink:title="mulle-allocator"><polygon fill="#d3d3d3" stroke="#000" points="868.5 -36 745.5 -36 745.5 0 868.5 0 868.5 -36"/><text x="807" y="-14.3" font-family="Times,serif" font-size="14" text-anchor="middle">mulle-allocator</text></a></g></g><g id="node7" class="node"><title>mulle-atexit</title><g id="a_node7"><a xlink:href="https://github.com/mulle-core/mulle-atexit@*" xlink:title="mulle-atexit"><polygon fill="#d3d3d3" stroke="#000" points="342 -36 240 -36 240 0 342 0 342 -36"/><text x="291" y="-14.3" font-family="Times,serif" font-size="14" text-anchor="middle">mulle-atexit</text></a></g></g><g id="node8" class="node"><title>mulle-atinit</title><g id="a_node8"><a xlink:href="https://github.com/mulle-core/mulle-atinit@*" xlink:title="mulle-atinit"><polygon fill="#d3d3d3" stroke="#000" points="459.5 -36 360.5 -36 360.5 0 459.5 0 459.5 -36"/><text x="410" y="-14.3" font-family="Times,serif" font-size="14" text-anchor="middle">mulle-atinit</text></a></g></g><g id="node9" class="node"><title>mulle-buffer</title><g id="a_node9"><a xlink:href="https://github.com/mulle-c/mulle-buffer@*" xlink:title="mulle-buffer"><polygon fill="#d3d3d3" stroke="#000" points="1221 -36 1117 -36 1117 0 1221 0 1221 -36"/><text x="1169" y="-14.3" font-family="Times,serif" font-size="14" text-anchor="middle">mulle-buffer</text></a></g></g><g id="node10" class="node"><title>mulle-c11</title><g id="a_node10"><a xlink:href="https://github.com/mulle-c/mulle-c11@*" xlink:title="mulle-c11"><polygon fill="#d3d3d3" stroke="#000" points="973 -36 887 -36 887 0 973 0 973 -36"/><text x="930" y="-14.3" font-family="Times,serif" font-size="14" text-anchor="middle">mulle-c11</text></a></g></g><g id="node11" class="node"><title>mulle-concurrent</title><g id="a_node11"><a xlink:href="https://github.com/mulle-concurrent/mulle-concurrent@*" xlink:title="mulle-concurrent"><polygon fill="#d3d3d3" stroke="#000" points="1378.5 -36 1239.5 -36 1239.5 0 1378.5 0 1378.5 -36"/><text x="1309" y="-14.3" font-family="Times,serif" font-size="14" text-anchor="middle">mulle-concurrent</text></a></g></g><g id="node12" class="node"><title>mulle-container-debug</title><g id="a_node12"><a xlink:href="https://github.com/mulle-c/mulle-container-debug@*" xlink:title="mulle-container-debug"><polygon fill="#d3d3d3" stroke="#000" points="1573.5 -36 1396.5 -36 1396.5 0 1573.5 0 1573.5 -36"/><text x="1485" y="-14.3" font-family="Times,serif" font-size="14" text-anchor="middle">mulle-container-debug</text></a></g></g><g id="node13" class="node"><title>mulle-container</title><g id="a_node13"><a xlink:href="https://github.com/mulle-c/mulle-container@*" xlink:title="mulle-container"><polygon fill="#d3d3d3" stroke="#000" points="1720 -36 1592 -36 1592 0 1720 0 1720 -36"/><text x="1656" y="-14.3" font-family="Times,serif" font-size="14" text-anchor="middle">mulle-container</text></a></g></g><g id="node14" class="node"><title>mulle-core-all-load</title><g id="a_node14"><a xlink:href="https://github.com/mulle-core/mulle-core-all-load" xlink:title="mulle-core-all-load"><polygon fill="#d3d3d3" stroke="#000" points="667 -108 519 -108 519 -72 667 -72 667 -108"/><text x="593" y="-86.3" font-family="Times,serif" font-size="14" text-anchor="middle">mulle-core-all-load</text></a></g></g><g id="edge1" class="edge"><title>mulle-core-all-load-&gt;dlfcn-win32</title><path fill="none" stroke="#000" d="M518.6,-84.83C425.12,-78.69 259.77,-64.92 109.92,-35.99"/><polygon fill="#000" stroke="#000" points="110.55 -32.55 100.07 -34.06 109.21 -39.42 110.55 -32.55"/></g><g id="edge2" class="edge"><title>mulle-core-all-load-&gt;libbacktrace</title><path fill="none" stroke="#000" d="M518.68,-80.91C447.45,-72.52 336.83,-57.83 232.24,-36.12"/><polygon fill="#000" stroke="#000" points="232.64 -32.63 222.14 -34 231.2 -39.48 232.64 -32.63"/></g><g id="edge3" class="edge"><title>mulle-core-all-load-&gt;mulle-allocator</title><path fill="none" stroke="#000" d="M645.08,-71.97C675.24,-62.1 713.39,-49.62 745.08,-39.25"/><polygon fill="#000" stroke="#000" points="746.27 -42.55 754.69 -36.11 744.1 -35.89 746.27 -42.55"/></g><g id="edge4" class="edge"><title>mulle-core-all-load-&gt;mulle-atexit</title><path fill="none" stroke="#000" d="M518.86,-73.97C473.26,-64.45 413.45,-51.45 351.9,-36.15"/><polygon fill="#000" stroke="#000" points="352.56 -32.71 342.01 -33.68 350.86 -39.5 352.56 -32.71"/></g><g id="edge5" class="edge"><title>mulle-core-all-load-&gt;mulle-atinit</title><path fill="none" stroke="#000" d="M548.23,-71.88C522.88,-62.18 490.99,-49.98 464.23,-39.74"/><polygon fill="#000" stroke="#000" points="465.21 -36.37 454.62 -36.07 462.71 -42.91 465.21 -36.37"/></g><g id="edge6" class="edge"><title>mulle-core-all-load-&gt;mulle-c11</title><path fill="none" stroke="#000" d="M667.11,-77.79C724.74,-68.45 806.49,-53.81 877,-36 877.1,-35.97 877.2,-35.95 877.3,-35.92"/><polygon fill="#000" stroke="#000" points="878.01 -39.36 886.74 -33.36 876.18 -32.6 878.01 -39.36"/></g><g id="node15" class="node"><title>mulle-dlfcn</title><g id="a_node15"><a xlink:href="https://github.com/mulle-core/mulle-dlfcn@*" xlink:title="mulle-dlfcn"><polygon fill="#d3d3d3" stroke="#000" points="574 -36 478 -36 478 0 574 0 574 -36"/><text x="526" y="-14.3" font-family="Times,serif" font-size="14" text-anchor="middle">mulle-dlfcn</text></a></g></g><g id="edge7" class="edge"><title>mulle-core-all-load-&gt;mulle-dlfcn</title><path fill="none" stroke="#000" d="M576.44,-71.7C568.32,-63.22 558.41,-52.86 549.53,-43.58"/><polygon fill="#000" stroke="#000" points="551.81 -40.91 542.37 -36.1 546.76 -45.75 551.81 -40.91"/></g><g id="node16" class="node"><title>mulle-stacktrace</title><g id="a_node16"><a xlink:href="https://github.com/mulle-core/mulle-stacktrace@*" xlink:title="mulle-stacktrace"><polygon fill="#d3d3d3" stroke="#000" points="727.5 -36 592.5 -36 592.5 0 727.5 0 727.5 -36"/><text x="660" y="-14.3" font-family="Times,serif" font-size="14" text-anchor="middle">mulle-stacktrace</text></a></g></g><g id="edge8" class="edge"><title>mulle-core-all-load-&gt;mulle-stacktrace</title><path fill="none" stroke="#000" d="M609.56,-71.7C617.68,-63.22 627.59,-52.86 636.47,-43.58"/><polygon fill="#000" stroke="#000" points="639.24 -45.75 643.63 -36.1 634.19 -40.91 639.24 -45.75"/></g><g id="node17" class="node"><title>mulle-thread</title><g id="a_node17"><a xlink:href="https://github.com/mulle-concurrent/mulle-thread@*" xlink:title="mulle-thread"><polygon fill="#d3d3d3" stroke="#000" points="1099 -36 991 -36 991 0 1099 0 1099 -36"/><text x="1045" y="-14.3" font-family="Times,serif" font-size="14" text-anchor="middle">mulle-thread</text></a></g></g><g id="edge9" class="edge"><title>mulle-core-all-load-&gt;mulle-thread</title><path fill="none" stroke="#000" d="M667.32,-81.74C743.73,-73.62 866.26,-58.82 980.81,-36.1"/><polygon fill="#000" stroke="#000" points="981.69 -39.5 990.81 -34.1 980.32 -32.63 981.69 -39.5"/></g><g id="node18" class="node"><title>mulle-core</title><g id="a_node18"><a xlink:href="https://github.com/mulle-core/mulle-core" xlink:title="mulle-core"><polygon fill="#d3d3d3" stroke="#000" points="2549 -108 2457 -108 2457 -72 2549 -72 2549 -108"/><text x="2503" y="-86.3" font-family="Times,serif" font-size="14" text-anchor="middle">mulle-core</text></a></g></g><g id="edge10" class="edge"><title>mulle-core-&gt;mintomic</title><path fill="none" stroke="#000" d="M2549.37,-89.21C2772.53,-89.97 3737.97,-90.11 4059,-35.77"/><polygon fill="#000" stroke="#000" points="4059.98 -39.16 4069.22 -33.98 4058.77 -32.26 4059.98 -39.16"/></g><g id="edge11" class="edge"><title>mulle-core-&gt;mulle-aba</title><path fill="none" stroke="#000" d="M2549.26,-89.29C2781.14,-90.48 3819.14,-92.6 4160.92,-35.83"/><polygon fill="#000" stroke="#000" points="4161.56 -39.27 4170.82 -34.13 4160.38 -32.37 4161.56 -39.27"/></g><g id="edge12" class="edge"><title>mulle-core-&gt;mulle-allocator</title><path fill="none" stroke="#000" d="M2456.63,-88.75C2227.72,-87.35 1216.2,-78.87 879.08,-35.93"/><polygon fill="#000" stroke="#000" points="879.19 -32.41 868.82 -34.58 878.28 -39.35 879.19 -32.41"/></g><g id="edge13" class="edge"><title>mulle-core-&gt;mulle-buffer</title><path fill="none" stroke="#000" d="M2456.8,-88.5C2260.51,-86.16 1494.06,-74.77 1231.33,-35.93"/><polygon fill="#000" stroke="#000" points="1231.48 -32.42 1221.07 -34.36 1230.42 -39.33 1231.48 -32.42"/></g><g id="edge14" class="edge"><title>mulle-core-&gt;mulle-c11</title><path fill="none" stroke="#000" d="M2456.98,-89.13C2237.63,-89.51 1296.36,-88.1 983.16,-35.84"/><polygon fill="#000" stroke="#000" points="983.63 -32.37 973.18 -34.12 982.44 -39.27 983.63 -32.37"/></g><g id="edge15" class="edge"><title>mulle-core-&gt;mulle-concurrent</title><path fill="none" stroke="#000" d="M2456.78,-89.56C2304.88,-90.82 1807.36,-90.33 1388.82,-36.11"/><polygon fill="#000" stroke="#000" points="1389.01 -32.61 1378.64 -34.78 1388.1 -39.55 1389.01 -32.61"/></g><g id="edge17" class="edge"><title>mulle-core-&gt;mulle-container-debug</title><path fill="none" stroke="#000" d="M2456.89,-88.2C2323.34,-85.5 1924.66,-74.65 1583.68,-35.99"/><polygon fill="#000" stroke="#000" points="1583.94 -32.5 1573.61 -34.84 1583.15 -39.45 1583.94 -32.5"/></g><g id="edge16" class="edge"><title>mulle-core-&gt;mulle-container</title><path fill="none" stroke="#000" d="M2456.92,-88.42C2337.97,-86.37 2010.86,-77.24 1730.34,-36.06"/><polygon fill="#000" stroke="#000" points="1730.78 -32.59 1720.38 -34.58 1729.76 -39.51 1730.78 -32.59"/></g><g id="edge32" class="edge"><title>mulle-core-&gt;mulle-thread</title><path fill="none" stroke="#000" d="M2456.7,-88.64C2248.51,-86.83 1397.1,-77.07 1109.13,-35.92"/><polygon fill="#000" stroke="#000" points="1109.53 -32.44 1099.13 -34.44 1108.51 -39.36 1109.53 -32.44"/></g><g id="node19" class="node"><title>mulle-data</title><g id="a_node19"><a xlink:href="https://github.com/mulle-c/mulle-data@*" xlink:title="mulle-data"><polygon fill="#d3d3d3" stroke="#000" points="1830 -36 1738 -36 1738 0 1830 0 1830 -36"/><text x="1784" y="-14.3" font-family="Times,serif" font-size="14" text-anchor="middle">mulle-data</text></a></g></g><g id="edge18" class="edge"><title>mulle-core-&gt;mulle-data</title><path fill="none" stroke="#000" d="M2456.65,-88.79C2349.35,-87.56 2075.74,-80.16 1840.15,-35.96"/><polygon fill="#000" stroke="#000" points="1840.5 -32.46 1830.03 -34.03 1839.2 -39.34 1840.5 -32.46"/></g><g id="node20" class="node"><title>mulle-dtostr</title><g id="a_node20"><a xlink:href="https://github.com/mulle-core/mulle-dtostr@*" xlink:title="mulle-dtostr"><polygon fill="#d3d3d3" stroke="#000" points="1952 -36 1848 -36 1848 0 1952 0 1952 -36"/><text x="1900" y="-14.3" font-family="Times,serif" font-size="14" text-anchor="middle">mulle-dtostr</text></a></g></g><g id="edge19" class="edge"><title>mulle-core-&gt;mulle-dtostr</title><path fill="none" stroke="#000" d="M2456.94,-87.2C2364.62,-83.02 2150.4,-70.39 1962.18,-36.03"/><polygon fill="#000" stroke="#000" points="1962.57 -32.54 1952.1 -34.16 1961.3 -39.43 1962.57 -32.54"/></g><g id="node21" class="node"><title>mulle-fifo</title><g id="a_node21"><a xlink:href="https://github.com/mulle-concurrent/mulle-fifo@*" xlink:title="mulle-fifo"><polygon fill="#d3d3d3" stroke="#000" points="2053.5 -36 1970.5 -36 1970.5 0 2053.5 0 2053.5 -36"/><text x="2012" y="-14.3" font-family="Times,serif" font-size="14" text-anchor="middle">mulle-fifo</text></a></g></g><g id="edge20" class="edge"><title>mulle-core-&gt;mulle-fifo</title><path fill="none" stroke="#000" d="M2456.75,-86.61C2377.66,-81.85 2211.42,-68.84 2063.71,-36.14"/><polygon fill="#000" stroke="#000" points="2064.08 -32.63 2053.56 -33.85 2062.54 -39.46 2064.08 -32.63"/></g><g id="node22" class="node"><title>mulle-fprintf</title><g id="a_node22"><a xlink:href="https://github.com/mulle-core/mulle-fprintf@*" xlink:title="mulle-fprintf"><polygon fill="#d3d3d3" stroke="#000" points="2178.5 -36 2071.5 -36 2071.5 0 2178.5 0 2178.5 -36"/><text x="2125" y="-14.3" font-family="Times,serif" font-size="14" text-anchor="middle">mulle-fprintf</text></a></g></g><g id="edge21" class="edge"><title>mulle-core-&gt;mulle-fprintf</title><path fill="none" stroke="#000" d="M2456.93,-82.77C2397.14,-74.35 2289.43,-58.07 2188.72,-36.27"/><polygon fill="#000" stroke="#000" points="2189.2 -32.8 2178.69 -34.08 2187.71 -39.64 2189.2 -32.8"/></g><g id="node23" class="node"><title>mulle-http</title><g id="a_node23"><a xlink:href="https://github.com/mulle-c/mulle-http@*" xlink:title="mulle-http"><polygon fill="#d3d3d3" stroke="#000" points="2287.5 -36 2196.5 -36 2196.5 0 2287.5 0 2287.5 -36"/><text x="2242" y="-14.3" font-family="Times,serif" font-size="14" text-anchor="middle">mulle-http</text></a></g></g><g id="edge22" class="edge"><title>mulle-core-&gt;mulle-http</title><path fill="none" stroke="#000" d="M2456.77,-77.93C2416.82,-68.19 2357.36,-53.28 2297.26,-36.29"/><polygon fill="#000" stroke="#000" points="2298.19 -32.92 2287.61 -33.55 2296.27 -39.65 2298.19 -32.92"/></g><g id="node24" class="node"><title>mulle-linkedlist</title><g id="a_node24"><a xlink:href="https://github.com/mulle-concurrent/mulle-linkedlist@*" xlink:title="mulle-linkedlist"><polygon fill="#d3d3d3" stroke="#000" points="2432.5 -36 2305.5 -36 2305.5 0 2432.5 0 2432.5 -36"/><text x="2369" y="-14.3" font-family="Times,serif" font-size="14" text-anchor="middle">mulle-linkedlist</text></a></g></g><g id="edge23" class="edge"><title>mulle-core-&gt;mulle-linkedlist</title><path fill="none" stroke="#000" d="M2470.22,-71.88C2452.37,-62.55 2430.1,-50.92 2411,-40.94"/><polygon fill="#000" stroke="#000" points="2412.39 -37.72 2401.91 -36.19 2409.15 -43.92 2412.39 -37.72"/></g><g id="node25" class="node"><title>mulle-mmap</title><g id="a_node25"><a xlink:href="https://github.com/mulle-core/mulle-mmap@*" xlink:title="mulle-mmap"><polygon fill="#d3d3d3" stroke="#000" points="2555.5 -36 2450.5 -36 2450.5 0 2555.5 0 2555.5 -36"/><text x="2503" y="-14.3" font-family="Times,serif" font-size="14" text-anchor="middle">mulle-mmap</text></a></g></g><g id="edge24" class="edge"><title>mulle-core-&gt;mulle-mmap</title><path fill="none" stroke="#000" d="M2503,-71.7C2503,-63.98 2503,-54.71 2503,-46.11"/><polygon fill="#000" stroke="#000" points="2506.5 -46.1 2503 -36.1 2499.5 -46.1 2506.5 -46.1"/></g><g id="node26" class="node"><title>mulle-multififo</title><g id="a_node26"><a xlink:href="https://github.com/mulle-concurrent/mulle-multififo@*" xlink:title="mulle-multififo"><polygon fill="#d3d3d3" stroke="#000" points="2694.5 -36 2573.5 -36 2573.5 0 2694.5 0 2694.5 -36"/><text x="2634" y="-14.3" font-family="Times,serif" font-size="14" text-anchor="middle">mulle-multififo</text></a></g></g><g id="edge25" class="edge"><title>mulle-core-&gt;mulle-multififo</title><path fill="none" stroke="#000" d="M2535.05,-71.88C2552.49,-62.55 2574.27,-50.92 2592.94,-40.94"/><polygon fill="#000" stroke="#000" points="2594.66 -43.99 2601.83 -36.19 2591.36 -37.82 2594.66 -43.99"/></g><g id="node27" class="node"><title>mulle-rbtree</title><g id="a_node27"><a xlink:href="https://github.com/mulle-c/mulle-rbtree@*" xlink:title="mulle-rbtree"><polygon fill="#d3d3d3" stroke="#000" points="2819 -36 2713 -36 2713 0 2819 0 2819 -36"/><text x="2766" y="-14.3" font-family="Times,serif" font-size="14" text-anchor="middle">mulle-rbtree</text></a></g></g><g id="edge26" class="edge"><title>mulle-core-&gt;mulle-rbtree</title><path fill="none" stroke="#000" d="M2549.34,-76.92C2587.95,-66.82 2644.66,-51.92 2703.13,-36.22"/><polygon fill="#000" stroke="#000" points="2704.16 -39.57 2712.91 -33.59 2702.34 -32.81 2704.16 -39.57"/></g><g id="node28" class="node"><title>mulle-rbtree-debug</title><g id="a_node28"><a xlink:href="https://github.com/mulle-core/mulle-rbtree-debug@*" xlink:title="mulle-rbtree-debug"><polygon fill="#d3d3d3" stroke="#000" points="2992.5 -36 2837.5 -36 2837.5 0 2992.5 0 2992.5 -36"/><text x="2915" y="-14.3" font-family="Times,serif" font-size="14" text-anchor="middle">mulle-rbtree-debug</text></a></g></g><g id="edge27" class="edge"><title>mulle-core-&gt;mulle-rbtree-debug</title><path fill="none" stroke="#000" d="M2549.09,-81.95C2610.25,-72.49 2721.81,-54.88 2827.37,-36.08"/><polygon fill="#000" stroke="#000" points="2828.01 -39.53 2837.23 -34.32 2826.77 -32.63 2828.01 -39.53"/></g><g id="node29" class="node"><title>mulle-regex</title><g id="a_node29"><a xlink:href="https://github.com/mulle-c/mulle-regex@*" xlink:title="mulle-regex"><polygon fill="#d3d3d3" stroke="#000" points="3111.5 -36 3010.5 -36 3010.5 0 3111.5 0 3111.5 -36"/><text x="3061" y="-14.3" font-family="Times,serif" font-size="14" text-anchor="middle">mulle-regex</text></a></g></g><g id="edge28" class="edge"><title>mulle-core-&gt;mulle-regex</title><path fill="none" stroke="#000" d="M2549.15,-86.8C2636,-82.07 2829.64,-68.76 3000.37,-36.14"/><polygon fill="#000" stroke="#000" points="3001.14 -39.56 3010.29 -34.22 2999.81 -32.69 3001.14 -39.56"/></g><g id="node30" class="node"><title>mulle-slug</title><g id="a_node30"><a xlink:href="https://github.com/mulle-c/mulle-slug@*" xlink:title="mulle-slug"><polygon fill="#d3d3d3" stroke="#000" points="3220.5 -36 3129.5 -36 3129.5 0 3220.5 0 3220.5 -36"/><text x="3175" y="-14.3" font-family="Times,serif" font-size="14" text-anchor="middle">mulle-slug</text></a></g></g><g id="edge29" class="edge"><title>mulle-core-&gt;mulle-slug</title><path fill="none" stroke="#000" d="M2549.22,-88.49C2651.09,-86.62 2902.49,-77.95 3119.25,-36.12"/><polygon fill="#000" stroke="#000" points="3120.08 -39.52 3129.22 -34.16 3118.73 -32.65 3120.08 -39.52"/></g><g id="node31" class="node"><title>mulle-sprintf</title><g id="a_node31"><a xlink:href="https://github.com/mulle-core/mulle-sprintf@*" xlink:title="mulle-sprintf"><polygon fill="#d3d3d3" stroke="#000" points="3347.5 -36 3238.5 -36 3238.5 0 3347.5 0 3347.5 -36"/><text x="3293" y="-14.3" font-family="Times,serif" font-size="14" text-anchor="middle">mulle-sprintf</text></a></g></g><g id="edge30" class="edge"><title>mulle-core-&gt;mulle-sprintf</title><path fill="none" stroke="#000" d="M2549.3,-88.68C2663.48,-87.23 2967.63,-79.41 3228.13,-36.15"/><polygon fill="#000" stroke="#000" points="3228.88 -39.57 3238.16 -34.46 3227.72 -32.67 3228.88 -39.57"/></g><g id="node32" class="node"><title>mulle-storage</title><g id="a_node32"><a xlink:href="https://github.com/mulle-c/mulle-storage@*" xlink:title="mulle-storage"><polygon fill="#d3d3d3" stroke="#000" points="3480.5 -36 3365.5 -36 3365.5 0 3480.5 0 3480.5 -36"/><text x="3423" y="-14.3" font-family="Times,serif" font-size="14" text-anchor="middle">mulle-storage</text></a></g></g><g id="edge31" class="edge"><title>mulle-core-&gt;mulle-storage</title><path fill="none" stroke="#000" d="M2549.16,-89.21C2676.5,-89.12 3043.46,-84.48 3355.05,-36.15"/><polygon fill="#000" stroke="#000" points="3355.85 -39.56 3365.18 -34.56 3354.76 -32.65 3355.85 -39.56"/></g><g id="node33" class="node"><title>mulle-time</title><g id="a_node33"><a xlink:href="https://github.com/mulle-core/mulle-time@*" xlink:title="mulle-time"><polygon fill="#d3d3d3" stroke="#000" points="3591.5 -36 3498.5 -36 3498.5 0 3591.5 0 3591.5 -36"/><text x="3545" y="-14.3" font-family="Times,serif" font-size="14" text-anchor="middle">mulle-time</text></a></g></g><g id="edge33" class="edge"><title>mulle-core-&gt;mulle-time</title><path fill="none" stroke="#000" d="M2549.03,-88.03C2715.45,-84.29 3286.27,-69.42 3488.46,-35.97"/><polygon fill="#000" stroke="#000" points="3489.13 -39.41 3498.39 -34.26 3487.94 -32.51 3489.13 -39.41"/></g><g id="node34" class="node"><title>mulle-unicode</title><g id="a_node34"><a xlink:href="https://github.com/mulle-c/mulle-unicode@*" xlink:title="mulle-unicode"><polygon fill="#d3d3d3" stroke="#000" points="3726 -36 3610 -36 3610 0 3726 0 3726 -36"/><text x="3668" y="-14.3" font-family="Times,serif" font-size="14" text-anchor="middle">mulle-unicode</text></a></g></g><g id="edge34" class="edge"><title>mulle-core-&gt;mulle-unicode</title><path fill="none" stroke="#000" d="M2549.1,-88.01C2727.46,-83.97 3373.18,-67.57 3599.54,-36"/><polygon fill="#000" stroke="#000" points="3600.28 -39.43 3609.67 -34.53 3599.28 -32.5 3600.28 -39.43"/></g><g id="node35" class="node"><title>mulle-url</title><g id="a_node35"><a xlink:href="https://github.com/mulle-c/mulle-url@*" xlink:title="mulle-url"><polygon fill="#d3d3d3" stroke="#000" points="3825.5 -36 3744.5 -36 3744.5 0 3825.5 0 3825.5 -36"/><text x="3785" y="-14.3" font-family="Times,serif" font-size="14" text-anchor="middle">mulle-url</text></a></g></g><g id="edge35" class="edge"><title>mulle-core-&gt;mulle-url</title><path fill="none" stroke="#000" d="M2549.07,-88.77C2741.36,-87.53 3481.17,-80.07 3734.44,-35.68"/><polygon fill="#000" stroke="#000" points="3735.11 -39.12 3744.32 -33.88 3733.86 -32.23 3735.11 -39.12"/></g><g id="node36" class="node"><title>mulle-utf</title><g id="a_node36"><a xlink:href="https://github.com/mulle-c/mulle-utf@*" xlink:title="mulle-utf"><polygon fill="#d3d3d3" stroke="#000" points="3924.5 -36 3843.5 -36 3843.5 0 3924.5 0 3924.5 -36"/><text x="3884" y="-14.3" font-family="Times,serif" font-size="14" text-anchor="middle">mulle-utf</text></a></g></g><g id="edge36" class="edge"><title>mulle-core-&gt;mulle-utf</title><path fill="none" stroke="#000" d="M2549.32,-88.98C2751.79,-88.61 3560.65,-84.18 3833.47,-35.92"/><polygon fill="#000" stroke="#000" points="3834.13 -39.36 3843.34 -34.11 3832.87 -32.47 3834.13 -39.36"/></g><g id="node37" class="node"><title>mulle-vararg</title><g id="a_node37"><a xlink:href="https://github.com/mulle-c/mulle-vararg@*" xlink:title="mulle-vararg"><polygon fill="#d3d3d3" stroke="#000" points="4051 -36 3943 -36 3943 0 4051 0 4051 -36"/><text x="3997" y="-14.3" font-family="Times,serif" font-size="14" text-anchor="middle">mulle-vararg</text></a></g></g><g id="edge37" class="edge"><title>mulle-core-&gt;mulle-vararg</title><path fill="none" stroke="#000" d="M2549.06,-88.7C2760.11,-87.09 3636.74,-78.07 3932.59,-35.95"/><polygon fill="#000" stroke="#000" points="3933.49 -39.36 3942.87 -34.44 3932.47 -32.43 3933.49 -39.36"/></g><g id="edge40" class="edge"><title>mulle-objc-runtime-&gt;mulle-core-all-load</title><path fill="none" stroke="#000" d="M1437.85,-155.21C1267.26,-142.25 855.5,-110.95 677.42,-97.42"/><polygon fill="#000" stroke="#000" points="677.55 -93.92 667.31 -96.65 677.02 -100.9 677.55 -93.92"/></g><g id="edge39" class="edge"><title>mulle-objc-runtime-&gt;mulle-core</title><path fill="none" stroke="#000" d="M1590.37,-155.59C1781.87,-142.04 2279.1,-106.85 2446.82,-94.98"/><polygon fill="#000" stroke="#000" points="2447.18 -98.46 2456.91 -94.26 2446.69 -91.48 2447.18 -98.46"/></g></g></svg>