<?xml version="1.0" encoding="UTF-8" standalone="no"?>
<!DOCTYPE svg PUBLIC "-//W3C//DTD SVG 1.1//EN"
 "http://www.w3.org/Graphics/SVG/1.1/DTD/svg11.dtd">
<!-- Generated by graphviz version 2.43.0 (0)
 -->
<!-- Title: sourcetree Pages: 1 -->
<svg width="768pt" height="260pt"
 viewBox="0.00 0.00 768.00 260.00" xmlns="http://www.w3.org/2000/svg" xmlns:xlink="http://www.w3.org/1999/xlink">
<g id="graph0" class="graph" transform="scale(1 1) rotate(0) translate(4 256)">
<title>sourcetree</title>
<polygon fill="white" stroke="transparent" points="-4,4 -4,-256 764,-256 764,4 -4,4"/>
<!-- mulle&#45;objc&#45;list -->
<g id="node1" class="node">
<title>mulle&#45;objc&#45;list</title>
<polygon fill="yellow" stroke="black" points="383.5,-252 266.5,-252 266.5,-216 383.5,-216 383.5,-252"/>
<text text-anchor="middle" x="325" y="-230.3" font-family="Times,serif" font-size="14.00">mulle&#45;objc&#45;list</text>
</g>
<!-- mulle&#45;dlfcn -->
<g id="node6" class="node">
<title>mulle&#45;dlfcn</title>
<polygon fill="lightgrey" stroke="black" points="98,-180 2,-180 2,-144 98,-144 98,-180"/>
<text text-anchor="middle" x="50" y="-158.3" font-family="Times,serif" font-size="14.00">mulle&#45;dlfcn</text>
</g>
<!-- mulle&#45;objc&#45;list&#45;&gt;mulle&#45;dlfcn -->
<g id="edge8" class="edge">
<title>mulle&#45;objc&#45;list&#45;&gt;mulle&#45;dlfcn</title>
<path fill="none" stroke="black" d="M266.5,-219.64C224.81,-209.92 167.23,-196.09 108.05,-180.22"/>
<polygon fill="black" stroke="black" points="108.72,-176.78 98.15,-177.55 106.9,-183.53 108.72,-176.78"/>
</g>
<!-- mulle&#45;objc&#45;debug -->
<g id="node10" class="node">
<title>mulle&#45;objc&#45;debug</title>
<polygon fill="lightgrey" stroke="black" points="255.5,-180 116.5,-180 116.5,-144 255.5,-144 255.5,-180"/>
<text text-anchor="middle" x="186" y="-158.3" font-family="Times,serif" font-size="14.00">mulle&#45;objc&#45;debug</text>
</g>
<!-- mulle&#45;objc&#45;list&#45;&gt;mulle&#45;objc&#45;debug -->
<g id="edge9" class="edge">
<title>mulle&#45;objc&#45;list&#45;&gt;mulle&#45;objc&#45;debug</title>
<path fill="none" stroke="black" d="M291,-215.88C272.4,-206.51 249.17,-194.81 229.29,-184.8"/>
<polygon fill="black" stroke="black" points="230.64,-181.56 220.13,-180.19 227.49,-187.81 230.64,-181.56"/>
</g>
<!-- mulle&#45;atexit -->
<g id="node11" class="node">
<title>mulle&#45;atexit</title>
<polygon fill="lightgrey" stroke="black" points="376,-180 274,-180 274,-144 376,-144 376,-180"/>
<text text-anchor="middle" x="325" y="-158.3" font-family="Times,serif" font-size="14.00">mulle&#45;atexit</text>
</g>
<!-- mulle&#45;objc&#45;list&#45;&gt;mulle&#45;atexit -->
<g id="edge6" class="edge">
<title>mulle&#45;objc&#45;list&#45;&gt;mulle&#45;atexit</title>
<path fill="none" stroke="black" d="M325,-215.7C325,-207.98 325,-198.71 325,-190.11"/>
<polygon fill="black" stroke="black" points="328.5,-190.1 325,-180.1 321.5,-190.1 328.5,-190.1"/>
</g>
<!-- mulle&#45;atinit -->
<g id="node12" class="node">
<title>mulle&#45;atinit</title>
<polygon fill="lightgrey" stroke="black" points="493.5,-180 394.5,-180 394.5,-144 493.5,-144 493.5,-180"/>
<text text-anchor="middle" x="444" y="-158.3" font-family="Times,serif" font-size="14.00">mulle&#45;atinit</text>
</g>
<!-- mulle&#45;objc&#45;list&#45;&gt;mulle&#45;atinit -->
<g id="edge7" class="edge">
<title>mulle&#45;objc&#45;list&#45;&gt;mulle&#45;atinit</title>
<path fill="none" stroke="black" d="M354.11,-215.88C369.67,-206.72 389.02,-195.34 405.78,-185.48"/>
<polygon fill="black" stroke="black" points="407.93,-188.28 414.78,-180.19 404.38,-182.24 407.93,-188.28"/>
</g>
<!-- mulle&#45;objc&#45;runtime -->
<g id="node13" class="node">
<title>mulle&#45;objc&#45;runtime</title>
<polygon fill="lightgrey" stroke="black" points="664,-180 512,-180 512,-144 664,-144 664,-180"/>
<text text-anchor="middle" x="588" y="-158.3" font-family="Times,serif" font-size="14.00">mulle&#45;objc&#45;runtime</text>
</g>
<!-- mulle&#45;objc&#45;list&#45;&gt;mulle&#45;objc&#45;runtime -->
<g id="edge10" class="edge">
<title>mulle&#45;objc&#45;list&#45;&gt;mulle&#45;objc&#45;runtime</title>
<path fill="none" stroke="black" d="M383.69,-217.38C422.24,-207.12 472.96,-193.62 514.23,-182.63"/>
<polygon fill="black" stroke="black" points="515.2,-186 523.96,-180.04 513.4,-179.23 515.2,-186"/>
</g>
<!-- mulle&#45;concurrent -->
<g id="node2" class="node">
<title>mulle&#45;concurrent</title>
<polygon fill="lightgrey" stroke="black" points="523.5,-108 384.5,-108 384.5,-72 523.5,-72 523.5,-108"/>
<text text-anchor="middle" x="454" y="-86.3" font-family="Times,serif" font-size="14.00">mulle&#45;concurrent</text>
</g>
<!-- mulle&#45;aba -->
<g id="node3" class="node">
<title>mulle&#45;aba</title>
<polygon fill="lightgrey" stroke="black" points="497,-36 411,-36 411,0 497,0 497,-36"/>
<text text-anchor="middle" x="454" y="-14.3" font-family="Times,serif" font-size="14.00">mulle&#45;aba</text>
</g>
<!-- mulle&#45;concurrent&#45;&gt;mulle&#45;aba -->
<g id="edge1" class="edge">
<title>mulle&#45;concurrent&#45;&gt;mulle&#45;aba</title>
<path fill="none" stroke="black" d="M454,-71.7C454,-63.98 454,-54.71 454,-46.11"/>
<polygon fill="black" stroke="black" points="457.5,-46.1 454,-36.1 450.5,-46.1 457.5,-46.1"/>
</g>
<!-- mulle&#45;data -->
<g id="node4" class="node">
<title>mulle&#45;data</title>
<polygon fill="lightgrey" stroke="black" points="634,-108 542,-108 542,-72 634,-72 634,-108"/>
<text text-anchor="middle" x="588" y="-86.3" font-family="Times,serif" font-size="14.00">mulle&#45;data</text>
</g>
<!-- src/farmhash -->
<g id="node5" class="node">
<title>src/farmhash</title>
<polygon fill="lightgrey" stroke="black" points="643,-36 533,-36 533,0 643,0 643,-36"/>
<text text-anchor="middle" x="588" y="-14.3" font-family="Times,serif" font-size="14.00">src/farmhash</text>
</g>
<!-- mulle&#45;data&#45;&gt;src/farmhash -->
<g id="edge2" class="edge">
<title>mulle&#45;data&#45;&gt;src/farmhash</title>
<path fill="none" stroke="black" d="M588,-71.7C588,-63.98 588,-54.71 588,-46.11"/>
<polygon fill="black" stroke="black" points="591.5,-46.1 588,-36.1 584.5,-46.1 591.5,-46.1"/>
</g>
<!-- dlfcn&#45;win32 -->
<g id="node7" class="node">
<title>dlfcn&#45;win32</title>
<polygon fill="lightgrey" stroke="black" points="100,-108 0,-108 0,-72 100,-72 100,-108"/>
<text text-anchor="middle" x="50" y="-86.3" font-family="Times,serif" font-size="14.00">dlfcn&#45;win32</text>
</g>
<!-- mulle&#45;dlfcn&#45;&gt;dlfcn&#45;win32 -->
<g id="edge3" class="edge">
<title>mulle&#45;dlfcn&#45;&gt;dlfcn&#45;win32</title>
<path fill="none" stroke="black" d="M50,-143.7C50,-135.98 50,-126.71 50,-118.11"/>
<polygon fill="black" stroke="black" points="53.5,-118.1 50,-108.1 46.5,-118.1 53.5,-118.1"/>
</g>
<!-- mulle&#45;fprintf -->
<g id="node8" class="node">
<title>mulle&#45;fprintf</title>
<polygon fill="lightgrey" stroke="black" points="239.5,-108 132.5,-108 132.5,-72 239.5,-72 239.5,-108"/>
<text text-anchor="middle" x="186" y="-86.3" font-family="Times,serif" font-size="14.00">mulle&#45;fprintf</text>
</g>
<!-- mulle&#45;sprintf -->
<g id="node9" class="node">
<title>mulle&#45;sprintf</title>
<polygon fill="lightgrey" stroke="black" points="240.5,-36 131.5,-36 131.5,0 240.5,0 240.5,-36"/>
<text text-anchor="middle" x="186" y="-14.3" font-family="Times,serif" font-size="14.00">mulle&#45;sprintf</text>
</g>
<!-- mulle&#45;fprintf&#45;&gt;mulle&#45;sprintf -->
<g id="edge4" class="edge">
<title>mulle&#45;fprintf&#45;&gt;mulle&#45;sprintf</title>
<path fill="none" stroke="black" d="M186,-71.7C186,-63.98 186,-54.71 186,-46.11"/>
<polygon fill="black" stroke="black" points="189.5,-46.1 186,-36.1 182.5,-46.1 189.5,-46.1"/>
</g>
<!-- mulle&#45;objc&#45;debug&#45;&gt;mulle&#45;fprintf -->
<g id="edge5" class="edge">
<title>mulle&#45;objc&#45;debug&#45;&gt;mulle&#45;fprintf</title>
<path fill="none" stroke="black" d="M186,-143.7C186,-135.98 186,-126.71 186,-118.11"/>
<polygon fill="black" stroke="black" points="189.5,-118.1 186,-108.1 182.5,-118.1 189.5,-118.1"/>
</g>
<!-- mulle&#45;objc&#45;runtime&#45;&gt;mulle&#45;concurrent -->
<g id="edge11" class="edge">
<title>mulle&#45;objc&#45;runtime&#45;&gt;mulle&#45;concurrent</title>
<path fill="none" stroke="black" d="M555.22,-143.88C537.37,-134.55 515.1,-122.92 496,-112.94"/>
<polygon fill="black" stroke="black" points="497.39,-109.72 486.91,-108.19 494.15,-115.92 497.39,-109.72"/>
</g>
<!-- mulle&#45;objc&#45;runtime&#45;&gt;mulle&#45;data -->
<g id="edge12" class="edge">
<title>mulle&#45;objc&#45;runtime&#45;&gt;mulle&#45;data</title>
<path fill="none" stroke="black" d="M588,-143.7C588,-135.98 588,-126.71 588,-118.11"/>
<polygon fill="black" stroke="black" points="591.5,-118.1 588,-108.1 584.5,-118.1 591.5,-118.1"/>
</g>
<!-- mulle&#45;vararg -->
<g id="node14" class="node">
<title>mulle&#45;vararg</title>
<polygon fill="lightgrey" stroke="black" points="760,-108 652,-108 652,-72 760,-72 760,-108"/>
<text text-anchor="middle" x="706" y="-86.3" font-family="Times,serif" font-size="14.00">mulle&#45;vararg</text>
</g>
<!-- mulle&#45;objc&#45;runtime&#45;&gt;mulle&#45;vararg -->
<g id="edge13" class="edge">
<title>mulle&#45;objc&#45;runtime&#45;&gt;mulle&#45;vararg</title>
<path fill="none" stroke="black" d="M616.87,-143.88C632.29,-134.72 651.48,-123.34 668.1,-113.48"/>
<polygon fill="black" stroke="black" points="670.21,-116.3 677.02,-108.19 666.64,-110.28 670.21,-116.3"/>
</g>
</g>
</svg>
